<svg xmlns="http://www.w3.org/2000/svg" width="40" height="40" viewBox="0 0 40 40" fill="none">
  <g clip-path="url(#clip0_352_3448)">
    <path d="M9.0625 10.3125H8.4375C8.27174 10.3125 8.11277 10.3783 7.99556 10.4956C7.87835 10.6128 7.8125 10.7717 7.8125 10.9375C7.8125 11.1033 7.87835 11.2622 7.99556 11.3794C8.11277 11.4967 8.27174 11.5625 8.4375 11.5625H9.0625V10.3125Z" fill="#2B70F9"/>
    <path d="M7.8125 15.3125C7.81251 15.4783 7.87836 15.6372 7.99557 15.7544C8.11278 15.8716 8.27174 15.9375 8.4375 15.9375H9.0625V14.6875H8.4375C8.27174 14.6875 8.11278 14.7534 7.99557 14.8706C7.87836 14.9878 7.81251 15.1467 7.8125 15.3125Z" fill="#2B70F9"/>
    <path d="M9.0625 5.625H6.25C5.58719 5.62576 4.95175 5.88939 4.48307 6.35807C4.01439 6.82675 3.75076 7.46219 3.75 8.125V21.9817L4.18884 20.4099C4.33509 19.889 4.61468 19.4154 5 19.0357V8.125C5.00033 7.79358 5.13213 7.47583 5.36648 7.24148C5.60083 7.00713 5.91858 6.87533 6.25 6.875H9.0625V5.625Z" fill="#2B70F9"/>
    <path d="M37.1875 15.625V3.75C37.1867 3.08719 36.9231 2.45175 36.4544 1.98307C35.9858 1.51439 35.3503 1.25076 34.6875 1.25H12.8125C12.1497 1.25076 11.5142 1.51439 11.0456 1.98307C10.5769 2.45175 10.3133 3.08719 10.3125 3.75V18.125H11.5625V3.75C11.5628 3.41858 11.6946 3.10083 11.929 2.86648C12.1633 2.63213 12.4811 2.50033 12.8125 2.5H34.6875C35.0189 2.50033 35.3367 2.63213 35.571 2.86648C35.8054 3.10083 35.9372 3.41858 35.9375 3.75V15.625H37.1875Z" fill="#2B70F9"/>
    <path d="M1.875 40H32.7576C33.1707 39.9967 33.5714 39.8579 33.8981 39.605C34.2248 39.3521 34.4596 38.999 34.5663 38.5999L39.9426 18.8901C40.0089 18.6515 40.0189 18.4009 39.9717 18.1578C39.9245 17.9148 39.8215 17.686 39.6707 17.4896C39.5265 17.2984 39.3397 17.1434 39.1253 17.0367C38.9109 16.9301 38.6746 16.8747 38.4351 16.875H27.7548C27.4876 16.875 27.2234 16.9321 26.98 17.0426C26.7367 17.153 26.5197 17.3142 26.3437 17.5153L24.9033 19.1614C24.8446 19.2285 24.7723 19.2823 24.6911 19.3191C24.6099 19.356 24.5218 19.375 24.4327 19.375H7.19879C6.78962 19.376 6.39192 19.5103 6.066 19.7577C5.74008 20.0051 5.50372 20.352 5.39276 20.7458L1.25 35.5859V12.5C1.25022 12.3343 1.31613 12.1755 1.4333 12.0583C1.55046 11.9411 1.70931 11.8752 1.875 11.875H2.5V10.625H1.875C1.37789 10.6255 0.901287 10.8233 0.549774 11.1748C0.198261 11.5263 0.000542622 12.0029 0 12.5L0 38.125C0.000542622 38.6221 0.198261 39.0987 0.549774 39.4502C0.901287 39.8017 1.37789 39.9995 1.875 40ZM1.89942 37.9092L6.59698 21.0818C6.63398 20.9506 6.71275 20.835 6.82134 20.7526C6.92994 20.6702 7.06245 20.6254 7.19879 20.625H24.4327C24.6999 20.625 24.9641 20.5679 25.2075 20.4574C25.4508 20.347 25.6678 20.1858 25.8438 19.9847L27.2842 18.3386C27.3429 18.2715 27.4153 18.2177 27.4964 18.1809C27.5776 18.144 27.6657 18.125 27.7548 18.125H38.4351C38.4823 18.1253 38.5288 18.1367 38.5708 18.1581C38.6129 18.1796 38.6494 18.2106 38.6774 18.2486C38.7108 18.2925 38.7335 18.3436 38.7438 18.3979C38.754 18.4521 38.7516 18.508 38.7366 18.5611L33.3603 38.2712C33.326 38.4059 33.2485 38.5257 33.1396 38.6122C33.0308 38.6987 32.8966 38.7471 32.7576 38.75H2.50305C2.40805 38.75 2.31438 38.7276 2.22958 38.6848C2.14478 38.642 2.0712 38.5798 2.01477 38.5034C1.95086 38.4201 1.90718 38.323 1.88716 38.2199C1.86714 38.1168 1.87134 38.0105 1.89942 37.9092Z" fill="#2B70F9"/>
    <path d="M15.9297 6.10413H15.1484C14.9827 6.10413 14.8237 6.16997 14.7065 6.28718C14.5893 6.40439 14.5234 6.56337 14.5234 6.72913C14.5234 6.89489 14.5893 7.05386 14.7065 7.17107C14.8237 7.28828 14.9827 7.35413 15.1484 7.35413H15.9297C16.0954 7.35413 16.2544 7.28828 16.3716 7.17107C16.4888 7.05386 16.5547 6.89489 16.5547 6.72913C16.5547 6.56337 16.4888 6.40439 16.3716 6.28718C16.2544 6.16997 16.0954 6.10413 15.9297 6.10413Z" fill="#2B70F9"/>
    <path d="M19.4021 6.10413H17.9531C17.7874 6.10413 17.6284 6.16997 17.5112 6.28718C17.394 6.40439 17.3281 6.56337 17.3281 6.72913C17.3281 6.89489 17.394 7.05386 17.5112 7.17107C17.6284 7.28828 17.7874 7.35413 17.9531 7.35413H19.4021C19.5679 7.35413 19.7268 7.28828 19.844 7.17107C19.9613 7.05386 20.0271 6.89489 20.0271 6.72913C20.0271 6.56337 19.9613 6.40439 19.844 6.28718C19.7268 6.16997 19.5679 6.10413 19.4021 6.10413Z" fill="#2B70F9"/>
    <path d="M29.8396 6.10413H28.3906C28.2249 6.10413 28.0659 6.16997 27.9487 6.28718C27.8315 6.40439 27.7656 6.56337 27.7656 6.72913C27.7656 6.89489 27.8315 7.05386 27.9487 7.17107C28.0659 7.28828 28.2249 7.35413 28.3906 7.35413H29.8396C30.0054 7.35413 30.1643 7.28828 30.2815 7.17107C30.3987 7.05386 30.4646 6.89489 30.4646 6.72913C30.4646 6.56337 30.3987 6.40439 30.2815 6.28718C30.1643 6.16997 30.0054 6.10413 29.8396 6.10413Z" fill="#2B70F9"/>
    <path d="M22.8787 6.10413H21.4297C21.2639 6.10413 21.105 6.16997 20.9877 6.28718C20.8705 6.40439 20.8047 6.56337 20.8047 6.72913C20.8047 6.89489 20.8705 7.05386 20.9877 7.17107C21.105 7.28828 21.2639 7.35413 21.4297 7.35413H22.8787C23.0444 7.35413 23.2034 7.28828 23.3206 7.17107C23.4378 7.05386 23.5037 6.89489 23.5037 6.72913C23.5037 6.56337 23.4378 6.40439 23.3206 6.28718C23.2034 6.16997 23.0444 6.10413 22.8787 6.10413Z" fill="#2B70F9"/>
    <path d="M26.3549 6.10413H24.9062C24.7405 6.10413 24.5815 6.16997 24.4643 6.28718C24.3471 6.40439 24.2812 6.56337 24.2812 6.72913C24.2812 6.89489 24.3471 7.05386 24.4643 7.17107C24.5815 7.28828 24.7405 7.35413 24.9062 7.35413H26.3549C26.5207 7.35413 26.6796 7.28828 26.7969 7.17107C26.9141 7.05386 26.9799 6.89489 26.9799 6.72913C26.9799 6.56337 26.9141 6.40439 26.7969 6.28718C26.6796 6.16997 26.5207 6.10413 26.3549 6.10413Z" fill="#2B70F9"/>
    <path d="M32.6484 6.10413H31.8672C31.7014 6.10413 31.5425 6.16997 31.4252 6.28718C31.308 6.40439 31.2422 6.56337 31.2422 6.72913C31.2422 6.89489 31.308 7.05386 31.4252 7.17107C31.5425 7.28828 31.7014 7.35413 31.8672 7.35413H32.6484C32.8142 7.35413 32.9732 7.28828 33.0904 7.17107C33.2076 7.05386 33.2734 6.89489 33.2734 6.72913C33.2734 6.56337 33.2076 6.40439 33.0904 6.28718C32.9732 6.16997 32.8142 6.10413 32.6484 6.10413Z" fill="#2B70F9"/>
    <path d="M15.9297 10.1666H15.1484C14.9827 10.1666 14.8237 10.2325 14.7065 10.3497C14.5893 10.4669 14.5234 10.6259 14.5234 10.7916C14.5234 10.9574 14.5893 11.1164 14.7065 11.2336C14.8237 11.3508 14.9827 11.4166 15.1484 11.4166H15.9297C16.0954 11.4166 16.2544 11.3508 16.3716 11.2336C16.4888 11.1164 16.5547 10.9574 16.5547 10.7916C16.5547 10.6259 16.4888 10.4669 16.3716 10.3497C16.2544 10.2325 16.0954 10.1666 15.9297 10.1666Z" fill="#2B70F9"/>
    <path d="M26.3549 10.1666H24.9062C24.7405 10.1666 24.5815 10.2325 24.4643 10.3497C24.3471 10.4669 24.2812 10.6259 24.2812 10.7916C24.2812 10.9574 24.3471 11.1164 24.4643 11.2336C24.5815 11.3508 24.7405 11.4166 24.9062 11.4166H26.3549C26.5207 11.4166 26.6796 11.3508 26.7969 11.2336C26.9141 11.1164 26.9799 10.9574 26.9799 10.7916C26.9799 10.6259 26.9141 10.4669 26.7969 10.3497C26.6796 10.2325 26.5207 10.1666 26.3549 10.1666Z" fill="#2B70F9"/>
    <path d="M29.8396 10.1666H28.3906C28.2249 10.1666 28.0659 10.2325 27.9487 10.3497C27.8315 10.4669 27.7656 10.6259 27.7656 10.7916C27.7656 10.9574 27.8315 11.1164 27.9487 11.2336C28.0659 11.3508 28.2249 11.4166 28.3906 11.4166H29.8396C30.0054 11.4166 30.1643 11.3508 30.2815 11.2336C30.3987 11.1164 30.4646 10.9574 30.4646 10.7916C30.4646 10.6259 30.3987 10.4669 30.2815 10.3497C30.1643 10.2325 30.0054 10.1666 29.8396 10.1666Z" fill="#2B70F9"/>
    <path d="M22.8787 10.1666H21.4297C21.2639 10.1666 21.105 10.2325 20.9877 10.3497C20.8705 10.4669 20.8047 10.6259 20.8047 10.7916C20.8047 10.9574 20.8705 11.1164 20.9877 11.2336C21.105 11.3508 21.2639 11.4166 21.4297 11.4166H22.8787C23.0444 11.4166 23.2034 11.3508 23.3206 11.2336C23.4378 11.1164 23.5037 10.9574 23.5037 10.7916C23.5037 10.6259 23.4378 10.4669 23.3206 10.3497C23.2034 10.2325 23.0444 10.1666 22.8787 10.1666Z" fill="#2B70F9"/>
    <path d="M19.4021 10.1666H17.9531C17.7874 10.1666 17.6284 10.2325 17.5112 10.3497C17.394 10.4669 17.3281 10.6259 17.3281 10.7916C17.3281 10.9574 17.394 11.1164 17.5112 11.2336C17.6284 11.3508 17.7874 11.4166 17.9531 11.4166H19.4021C19.5679 11.4166 19.7268 11.3508 19.844 11.2336C19.9613 11.1164 20.0271 10.9574 20.0271 10.7916C20.0271 10.6259 19.9613 10.4669 19.844 10.3497C19.7268 10.2325 19.5679 10.1666 19.4021 10.1666Z" fill="#2B70F9"/>
    <path d="M32.6484 10.1666H31.8672C31.7014 10.1666 31.5425 10.2325 31.4252 10.3497C31.308 10.4669 31.2422 10.6259 31.2422 10.7916C31.2422 10.9574 31.308 11.1164 31.4252 11.2336C31.5425 11.3508 31.7014 11.4166 31.8672 11.4166H32.6484C32.8142 11.4166 32.9732 11.3508 33.0904 11.2336C33.2076 11.1164 33.2734 10.9574 33.2734 10.7916C33.2734 10.6259 33.2076 10.4669 33.0904 10.3497C32.9732 10.2325 32.8142 10.1666 32.6484 10.1666Z" fill="#2B70F9"/>
    <path d="M15.9297 14.375H15.1484C14.9827 14.375 14.8237 14.4408 14.7065 14.5581C14.5893 14.6753 14.5234 14.8342 14.5234 15C14.5234 15.1658 14.5893 15.3247 14.7065 15.4419C14.8237 15.5592 14.9827 15.625 15.1484 15.625H15.9297C16.0954 15.625 16.2544 15.5592 16.3716 15.4419C16.4888 15.3247 16.5547 15.1658 16.5547 15C16.5547 14.8342 16.4888 14.6753 16.3716 14.5581C16.2544 14.4408 16.0954 14.375 15.9297 14.375Z" fill="#2B70F9"/>
    <path d="M22.8787 14.375H21.4297C21.2639 14.375 21.105 14.4408 20.9877 14.5581C20.8705 14.6753 20.8047 14.8342 20.8047 15C20.8047 15.1658 20.8705 15.3247 20.9877 15.4419C21.105 15.5592 21.2639 15.625 21.4297 15.625H22.8787C23.0444 15.625 23.2034 15.5592 23.3206 15.4419C23.4378 15.3247 23.5037 15.1658 23.5037 15C23.5037 14.8342 23.4378 14.6753 23.3206 14.5581C23.2034 14.4408 23.0444 14.375 22.8787 14.375Z" fill="#2B70F9"/>
    <path d="M19.4021 14.375H17.9531C17.7874 14.375 17.6284 14.4408 17.5112 14.5581C17.394 14.6753 17.3281 14.8342 17.3281 15C17.3281 15.1658 17.394 15.3247 17.5112 15.4419C17.6284 15.5592 17.7874 15.625 17.9531 15.625H19.4021C19.5679 15.625 19.7268 15.5592 19.844 15.4419C19.9613 15.3247 20.0271 15.1658 20.0271 15C20.0271 14.8342 19.9613 14.6753 19.844 14.5581C19.7268 14.4408 19.5679 14.375 19.4021 14.375Z" fill="#2B70F9"/>
    <path d="M29.8396 14.375H28.3906C28.2249 14.375 28.0659 14.4408 27.9487 14.5581C27.8315 14.6753 27.7656 14.8342 27.7656 15C27.7656 15.1658 27.8315 15.3247 27.9487 15.4419C28.0659 15.5592 28.2249 15.625 28.3906 15.625H29.8396C30.0054 15.625 30.1643 15.5592 30.2815 15.4419C30.3987 15.3247 30.4646 15.1658 30.4646 15C30.4646 14.8342 30.3987 14.6753 30.2815 14.5581C30.1643 14.4408 30.0054 14.375 29.8396 14.375Z" fill="#2B70F9"/>
    <path d="M26.3549 14.375H24.9062C24.7405 14.375 24.5815 14.4408 24.4643 14.5581C24.3471 14.6753 24.2812 14.8342 24.2812 15C24.2812 15.1658 24.3471 15.3247 24.4643 15.4419C24.5815 15.5592 24.7405 15.625 24.9062 15.625H26.3549C26.5207 15.625 26.6796 15.5592 26.7969 15.4419C26.9141 15.3247 26.9799 15.1658 26.9799 15C26.9799 14.8342 26.9141 14.6753 26.7969 14.5581C26.6796 14.4408 26.5207 14.375 26.3549 14.375Z" fill="#2B70F9"/>
    <path d="M32.6484 14.375H31.8672C31.7014 14.375 31.5425 14.4408 31.4252 14.5581C31.308 14.6753 31.2422 14.8342 31.2422 15C31.2422 15.1658 31.308 15.3247 31.4252 15.4419C31.5425 15.5592 31.7014 15.625 31.8672 15.625H32.6484C32.8142 15.625 32.9732 15.5592 33.0904 15.4419C33.2076 15.3247 33.2734 15.1658 33.2734 15C33.2734 14.8342 33.2076 14.6753 33.0904 14.5581C32.9732 14.4408 32.8142 14.375 32.6484 14.375Z" fill="#2B70F9"/>
  </g>
  <defs>
    <clipPath id="clip0_352_3448">
      <rect width="40" height="40" fill="white"/>
    </clipPath>
  </defs>
</svg>