<svg width="40" height="40" viewBox="0 0 40 40" fill="none" xmlns="http://www.w3.org/2000/svg">
<mask id="path-1-outside-1_395_826" maskUnits="userSpaceOnUse" x="-0.242188" y="3" width="40" height="33" fill="black">
<rect fill="white" x="-0.242188" y="3" width="40" height="33"/>
<path d="M4.17199 4C2.28896 4 0.757812 5.54459 0.757812 7.43365V17.1844C0.757812 19.0734 2.28896 20.6167 4.17199 20.6167H4.41733V25.4389C4.41737 25.5708 4.45664 25.6996 4.53014 25.8091C4.60364 25.9186 4.70805 26.0037 4.83008 26.0536C4.95211 26.1036 5.08624 26.1161 5.2154 26.0896C5.34457 26.0631 5.46292 25.9987 5.55541 25.9048L10.8032 20.6167H15.1037V26.0813C15.1037 27.9703 16.6349 29.5188 18.5179 29.5188H29.2484L34.5014 34.8068C34.5944 34.8993 34.7128 34.9622 34.8416 34.9875C34.9703 35.0128 35.1037 34.9995 35.2249 34.9491C35.3461 34.8987 35.4496 34.8136 35.5224 34.7044C35.5953 34.5953 35.6342 34.467 35.6342 34.3358V29.5188H35.8796C37.7626 29.5188 39.299 27.9703 39.299 26.0813V16.3357C39.299 14.4467 37.7626 12.8969 35.8796 12.8969H24.948V7.43365C24.948 5.54459 23.4168 4 21.5338 4H4.17199ZM4.17199 5.33012H21.5336C22.6981 5.33012 23.6229 6.25253 23.6229 7.43365V12.8969H18.5178C16.6348 12.8969 15.1036 14.4467 15.1036 16.3357V19.2879H10.528C10.4396 19.2872 10.3519 19.3042 10.2701 19.3379C10.1884 19.3715 10.1141 19.4212 10.0518 19.4839L5.74608 23.8194V19.9549C5.74675 19.7787 5.67741 19.6095 5.5533 19.4844C5.42918 19.3593 5.26047 19.2886 5.08427 19.2879H4.17199C3.00741 19.2879 2.08794 18.3655 2.08794 17.1844V7.43365C2.08794 6.25252 3.00741 5.33012 4.17199 5.33012ZM7.0217 9.22444C6.93401 9.2241 6.84712 9.24111 6.76604 9.27451C6.68496 9.30791 6.61129 9.35703 6.54928 9.41904C6.48728 9.48104 6.43816 9.55471 6.40476 9.63579C6.37136 9.71687 6.35434 9.80376 6.35469 9.89145C6.35503 9.9787 6.37255 10.065 6.40625 10.1455C6.43996 10.226 6.48919 10.299 6.55112 10.3605C6.61306 10.422 6.6865 10.4706 6.76724 10.5037C6.84798 10.5368 6.93445 10.5536 7.0217 10.5533H18.6891C18.8644 10.5526 19.0324 10.4826 19.1563 10.3587C19.2803 10.2347 19.3502 10.0668 19.3509 9.89145C19.3513 9.8042 19.3344 9.71773 19.3013 9.63699C19.2683 9.55625 19.2196 9.48282 19.1582 9.42088C19.0967 9.35894 19.0236 9.30971 18.9432 9.27601C18.8627 9.2423 18.7764 9.22478 18.6891 9.22444H7.0217ZM7.0217 14.0648C6.93445 14.0644 6.84798 14.0813 6.76724 14.1144C6.6865 14.1474 6.61306 14.1961 6.55112 14.2575C6.48919 14.319 6.43996 14.392 6.40625 14.4725C6.37255 14.553 6.35503 14.6393 6.35469 14.7266C6.35434 14.8143 6.37136 14.9012 6.40476 14.9822C6.43816 15.0633 6.48728 15.137 6.54928 15.199C6.61129 15.261 6.68496 15.3101 6.76604 15.3435C6.84712 15.3769 6.93401 15.3939 7.0217 15.3936H11.7193C11.8067 15.3934 11.8931 15.376 11.9737 15.3424C12.0544 15.3088 12.1276 15.2596 12.1892 15.1976C12.2508 15.1357 12.2995 15.0622 12.3327 14.9813C12.3658 14.9005 12.3827 14.8139 12.3824 14.7266C12.3817 14.5511 12.3116 14.3829 12.1873 14.2589C12.0631 14.1349 11.8948 14.0651 11.7193 14.0648H7.0217ZM18.5178 14.227H35.8794C37.044 14.227 37.9687 15.1546 37.9687 16.3357V26.0813C37.9687 27.2624 37.044 28.19 35.8794 28.19H34.9723C34.7961 28.1893 34.6269 28.2587 34.5018 28.3828C34.3767 28.5069 34.306 28.6756 34.3053 28.8518V32.7215L29.9996 28.3859C29.9379 28.3238 29.8645 28.2746 29.7837 28.2409C29.7028 28.2073 29.6161 28.19 29.5286 28.19H18.5178C17.3532 28.19 16.4337 27.2624 16.4337 26.0813V16.3357C16.4337 15.1546 17.3532 14.227 18.5178 14.227ZM30.3137 18.547C30.1378 18.5404 29.9665 18.6039 29.8374 18.7234L26.0314 22.2453L24.6195 20.5726C24.5631 20.506 24.4941 20.451 24.4165 20.411C24.3389 20.371 24.2542 20.3467 24.1672 20.3395C24.0801 20.3323 23.9926 20.3423 23.9094 20.3689C23.8263 20.3955 23.7492 20.4383 23.6826 20.4948C23.6158 20.551 23.5608 20.6199 23.5207 20.6975C23.4806 20.7751 23.4561 20.8598 23.4488 20.9468C23.4414 21.0338 23.4513 21.1215 23.4779 21.2046C23.5044 21.2878 23.5471 21.365 23.6035 21.4317L25.4682 23.6338C25.5262 23.702 25.5973 23.7578 25.6773 23.7978C25.7574 23.8378 25.8447 23.8612 25.934 23.8667C26.0233 23.8721 26.1128 23.8595 26.1971 23.8295C26.2814 23.7995 26.3588 23.7528 26.4246 23.6922L30.7394 19.7006C30.8038 19.6412 30.8558 19.5696 30.8925 19.49C30.9291 19.4104 30.9496 19.3243 30.9529 19.2368C30.9561 19.1492 30.942 19.0619 30.9114 18.9798C30.8807 18.8977 30.8341 18.8225 30.7743 18.7585C30.6547 18.6298 30.4892 18.5538 30.3137 18.547Z"/>
</mask>
<path d="M4.17199 4C2.28896 4 0.757812 5.54459 0.757812 7.43365V17.1844C0.757812 19.0734 2.28896 20.6167 4.17199 20.6167H4.41733V25.4389C4.41737 25.5708 4.45664 25.6996 4.53014 25.8091C4.60364 25.9186 4.70805 26.0037 4.83008 26.0536C4.95211 26.1036 5.08624 26.1161 5.2154 26.0896C5.34457 26.0631 5.46292 25.9987 5.55541 25.9048L10.8032 20.6167H15.1037V26.0813C15.1037 27.9703 16.6349 29.5188 18.5179 29.5188H29.2484L34.5014 34.8068C34.5944 34.8993 34.7128 34.9622 34.8416 34.9875C34.9703 35.0128 35.1037 34.9995 35.2249 34.9491C35.3461 34.8987 35.4496 34.8136 35.5224 34.7044C35.5953 34.5953 35.6342 34.467 35.6342 34.3358V29.5188H35.8796C37.7626 29.5188 39.299 27.9703 39.299 26.0813V16.3357C39.299 14.4467 37.7626 12.8969 35.8796 12.8969H24.948V7.43365C24.948 5.54459 23.4168 4 21.5338 4H4.17199ZM4.17199 5.33012H21.5336C22.6981 5.33012 23.6229 6.25253 23.6229 7.43365V12.8969H18.5178C16.6348 12.8969 15.1036 14.4467 15.1036 16.3357V19.2879H10.528C10.4396 19.2872 10.3519 19.3042 10.2701 19.3379C10.1884 19.3715 10.1141 19.4212 10.0518 19.4839L5.74608 23.8194V19.9549C5.74675 19.7787 5.67741 19.6095 5.5533 19.4844C5.42918 19.3593 5.26047 19.2886 5.08427 19.2879H4.17199C3.00741 19.2879 2.08794 18.3655 2.08794 17.1844V7.43365C2.08794 6.25252 3.00741 5.33012 4.17199 5.33012ZM7.0217 9.22444C6.93401 9.2241 6.84712 9.24111 6.76604 9.27451C6.68496 9.30791 6.61129 9.35703 6.54928 9.41904C6.48728 9.48104 6.43816 9.55471 6.40476 9.63579C6.37136 9.71687 6.35434 9.80376 6.35469 9.89145C6.35503 9.9787 6.37255 10.065 6.40625 10.1455C6.43996 10.226 6.48919 10.299 6.55112 10.3605C6.61306 10.422 6.6865 10.4706 6.76724 10.5037C6.84798 10.5368 6.93445 10.5536 7.0217 10.5533H18.6891C18.8644 10.5526 19.0324 10.4826 19.1563 10.3587C19.2803 10.2347 19.3502 10.0668 19.3509 9.89145C19.3513 9.8042 19.3344 9.71773 19.3013 9.63699C19.2683 9.55625 19.2196 9.48282 19.1582 9.42088C19.0967 9.35894 19.0236 9.30971 18.9432 9.27601C18.8627 9.2423 18.7764 9.22478 18.6891 9.22444H7.0217ZM7.0217 14.0648C6.93445 14.0644 6.84798 14.0813 6.76724 14.1144C6.6865 14.1474 6.61306 14.1961 6.55112 14.2575C6.48919 14.319 6.43996 14.392 6.40625 14.4725C6.37255 14.553 6.35503 14.6393 6.35469 14.7266C6.35434 14.8143 6.37136 14.9012 6.40476 14.9822C6.43816 15.0633 6.48728 15.137 6.54928 15.199C6.61129 15.261 6.68496 15.3101 6.76604 15.3435C6.84712 15.3769 6.93401 15.3939 7.0217 15.3936H11.7193C11.8067 15.3934 11.8931 15.376 11.9737 15.3424C12.0544 15.3088 12.1276 15.2596 12.1892 15.1976C12.2508 15.1357 12.2995 15.0622 12.3327 14.9813C12.3658 14.9005 12.3827 14.8139 12.3824 14.7266C12.3817 14.5511 12.3116 14.3829 12.1873 14.2589C12.0631 14.1349 11.8948 14.0651 11.7193 14.0648H7.0217ZM18.5178 14.227H35.8794C37.044 14.227 37.9687 15.1546 37.9687 16.3357V26.0813C37.9687 27.2624 37.044 28.19 35.8794 28.19H34.9723C34.7961 28.1893 34.6269 28.2587 34.5018 28.3828C34.3767 28.5069 34.306 28.6756 34.3053 28.8518V32.7215L29.9996 28.3859C29.9379 28.3238 29.8645 28.2746 29.7837 28.2409C29.7028 28.2073 29.6161 28.19 29.5286 28.19H18.5178C17.3532 28.19 16.4337 27.2624 16.4337 26.0813V16.3357C16.4337 15.1546 17.3532 14.227 18.5178 14.227ZM30.3137 18.547C30.1378 18.5404 29.9665 18.6039 29.8374 18.7234L26.0314 22.2453L24.6195 20.5726C24.5631 20.506 24.4941 20.451 24.4165 20.411C24.3389 20.371 24.2542 20.3467 24.1672 20.3395C24.0801 20.3323 23.9926 20.3423 23.9094 20.3689C23.8263 20.3955 23.7492 20.4383 23.6826 20.4948C23.6158 20.551 23.5608 20.6199 23.5207 20.6975C23.4806 20.7751 23.4561 20.8598 23.4488 20.9468C23.4414 21.0338 23.4513 21.1215 23.4779 21.2046C23.5044 21.2878 23.5471 21.365 23.6035 21.4317L25.4682 23.6338C25.5262 23.702 25.5973 23.7578 25.6773 23.7978C25.7574 23.8378 25.8447 23.8612 25.934 23.8667C26.0233 23.8721 26.1128 23.8595 26.1971 23.8295C26.2814 23.7995 26.3588 23.7528 26.4246 23.6922L30.7394 19.7006C30.8038 19.6412 30.8558 19.5696 30.8925 19.49C30.9291 19.4104 30.9496 19.3243 30.9529 19.2368C30.9561 19.1492 30.942 19.0619 30.9114 18.9798C30.8807 18.8977 30.8341 18.8225 30.7743 18.7585C30.6547 18.6298 30.4892 18.5538 30.3137 18.547Z" fill="#2B70F9"/>
<path d="M4.17199 4C2.28896 4 0.757812 5.54459 0.757812 7.43365V17.1844C0.757812 19.0734 2.28896 20.6167 4.17199 20.6167H4.41733V25.4389C4.41737 25.5708 4.45664 25.6996 4.53014 25.8091C4.60364 25.9186 4.70805 26.0037 4.83008 26.0536C4.95211 26.1036 5.08624 26.1161 5.2154 26.0896C5.34457 26.0631 5.46292 25.9987 5.55541 25.9048L10.8032 20.6167H15.1037V26.0813C15.1037 27.9703 16.6349 29.5188 18.5179 29.5188H29.2484L34.5014 34.8068C34.5944 34.8993 34.7128 34.9622 34.8416 34.9875C34.9703 35.0128 35.1037 34.9995 35.2249 34.9491C35.3461 34.8987 35.4496 34.8136 35.5224 34.7044C35.5953 34.5953 35.6342 34.467 35.6342 34.3358V29.5188H35.8796C37.7626 29.5188 39.299 27.9703 39.299 26.0813V16.3357C39.299 14.4467 37.7626 12.8969 35.8796 12.8969H24.948V7.43365C24.948 5.54459 23.4168 4 21.5338 4H4.17199ZM4.17199 5.33012H21.5336C22.6981 5.33012 23.6229 6.25253 23.6229 7.43365V12.8969H18.5178C16.6348 12.8969 15.1036 14.4467 15.1036 16.3357V19.2879H10.528C10.4396 19.2872 10.3519 19.3042 10.2701 19.3379C10.1884 19.3715 10.1141 19.4212 10.0518 19.4839L5.74608 23.8194V19.9549C5.74675 19.7787 5.67741 19.6095 5.5533 19.4844C5.42918 19.3593 5.26047 19.2886 5.08427 19.2879H4.17199C3.00741 19.2879 2.08794 18.3655 2.08794 17.1844V7.43365C2.08794 6.25252 3.00741 5.33012 4.17199 5.33012ZM7.0217 9.22444C6.93401 9.2241 6.84712 9.24111 6.76604 9.27451C6.68496 9.30791 6.61129 9.35703 6.54928 9.41904C6.48728 9.48104 6.43816 9.55471 6.40476 9.63579C6.37136 9.71687 6.35434 9.80376 6.35469 9.89145C6.35503 9.9787 6.37255 10.065 6.40625 10.1455C6.43996 10.226 6.48919 10.299 6.55112 10.3605C6.61306 10.422 6.6865 10.4706 6.76724 10.5037C6.84798 10.5368 6.93445 10.5536 7.0217 10.5533H18.6891C18.8644 10.5526 19.0324 10.4826 19.1563 10.3587C19.2803 10.2347 19.3502 10.0668 19.3509 9.89145C19.3513 9.8042 19.3344 9.71773 19.3013 9.63699C19.2683 9.55625 19.2196 9.48282 19.1582 9.42088C19.0967 9.35894 19.0236 9.30971 18.9432 9.27601C18.8627 9.2423 18.7764 9.22478 18.6891 9.22444H7.0217ZM7.0217 14.0648C6.93445 14.0644 6.84798 14.0813 6.76724 14.1144C6.6865 14.1474 6.61306 14.1961 6.55112 14.2575C6.48919 14.319 6.43996 14.392 6.40625 14.4725C6.37255 14.553 6.35503 14.6393 6.35469 14.7266C6.35434 14.8143 6.37136 14.9012 6.40476 14.9822C6.43816 15.0633 6.48728 15.137 6.54928 15.199C6.61129 15.261 6.68496 15.3101 6.76604 15.3435C6.84712 15.3769 6.93401 15.3939 7.0217 15.3936H11.7193C11.8067 15.3934 11.8931 15.376 11.9737 15.3424C12.0544 15.3088 12.1276 15.2596 12.1892 15.1976C12.2508 15.1357 12.2995 15.0622 12.3327 14.9813C12.3658 14.9005 12.3827 14.8139 12.3824 14.7266C12.3817 14.5511 12.3116 14.3829 12.1873 14.2589C12.0631 14.1349 11.8948 14.0651 11.7193 14.0648H7.0217ZM18.5178 14.227H35.8794C37.044 14.227 37.9687 15.1546 37.9687 16.3357V26.0813C37.9687 27.2624 37.044 28.19 35.8794 28.19H34.9723C34.7961 28.1893 34.6269 28.2587 34.5018 28.3828C34.3767 28.5069 34.306 28.6756 34.3053 28.8518V32.7215L29.9996 28.3859C29.9379 28.3238 29.8645 28.2746 29.7837 28.2409C29.7028 28.2073 29.6161 28.19 29.5286 28.19H18.5178C17.3532 28.19 16.4337 27.2624 16.4337 26.0813V16.3357C16.4337 15.1546 17.3532 14.227 18.5178 14.227ZM30.3137 18.547C30.1378 18.5404 29.9665 18.6039 29.8374 18.7234L26.0314 22.2453L24.6195 20.5726C24.5631 20.506 24.4941 20.451 24.4165 20.411C24.3389 20.371 24.2542 20.3467 24.1672 20.3395C24.0801 20.3323 23.9926 20.3423 23.9094 20.3689C23.8263 20.3955 23.7492 20.4383 23.6826 20.4948C23.6158 20.551 23.5608 20.6199 23.5207 20.6975C23.4806 20.7751 23.4561 20.8598 23.4488 20.9468C23.4414 21.0338 23.4513 21.1215 23.4779 21.2046C23.5044 21.2878 23.5471 21.365 23.6035 21.4317L25.4682 23.6338C25.5262 23.702 25.5973 23.7578 25.6773 23.7978C25.7574 23.8378 25.8447 23.8612 25.934 23.8667C26.0233 23.8721 26.1128 23.8595 26.1971 23.8295C26.2814 23.7995 26.3588 23.7528 26.4246 23.6922L30.7394 19.7006C30.8038 19.6412 30.8558 19.5696 30.8925 19.49C30.9291 19.4104 30.9496 19.3243 30.9529 19.2368C30.9561 19.1492 30.942 19.0619 30.9114 18.9798C30.8807 18.8977 30.8341 18.8225 30.7743 18.7585C30.6547 18.6298 30.4892 18.5538 30.3137 18.547Z" stroke="#2B70F9" stroke-width="0.4" mask="url(#path-1-outside-1_395_826)"/>
</svg>
