<svg width="40" height="40" viewBox="0 0 40 40" fill="none" xmlns="http://www.w3.org/2000/svg">
<g clip-path="url(#clip0_395_539)">
<path d="M1.77562 20.9046H1.77913V20.8046C1.77913 19.8905 2.52795 19.1442 3.45007 19.1442H9.48863V34.1429C9.48863 36.1394 8.03062 37.8108 6.16271 38.0812C3.80933 38.4064 1.77562 36.5877 1.77562 34.2869V20.9046ZM36.6482 0.525H12.4172C10.8022 0.525 9.49214 1.83089 9.49214 3.43953V17.8901H3.45007C1.83505 17.8901 0.525 19.1959 0.525 20.8046V34.2869C0.525 37.1081 2.81918 39.3765 5.63564 39.3765H34.4626C37.2828 39.3765 39.5732 37.0938 39.5732 34.2869V3.43953C39.5732 1.83081 38.2596 0.525 36.6482 0.525ZM38.3191 34.2869C38.3191 36.3992 36.5899 38.1223 34.4626 38.1223H8.9895C10.0682 37.1865 10.7428 35.8172 10.7428 34.1464V3.43953C10.7428 2.52548 11.4916 1.77913 12.4137 1.77913H36.6482C37.5703 1.77913 38.3191 2.52548 38.3191 3.43953V34.2869Z" fill="#2B70F9" stroke="#2B70F9" stroke-width="0.2"/>
<path d="M34.2793 4.45688H14.7849C14.438 4.45688 14.1578 4.73708 14.1578 5.08395V13.7138C14.1578 14.0606 14.438 14.3408 14.7849 14.3408H34.2793C34.6262 14.3408 34.9063 14.0606 34.9063 13.7138V5.08395C34.9063 4.73708 34.6262 4.45688 34.2793 4.45688ZM33.6522 13.0867H15.4119V5.71102H33.6522V13.0867Z" fill="#2B70F9" stroke="#2B70F9" stroke-width="0.2"/>
<path d="M14.7849 27.2012H22.8841C23.231 27.2012 23.5112 26.921 23.5112 26.5741V18.5171C23.5112 18.1702 23.231 17.89 22.8841 17.89H14.7849C14.438 17.89 14.1578 18.1702 14.1578 18.5171V26.5741C14.1578 26.921 14.438 27.2012 14.7849 27.2012ZM15.4119 19.1441H22.2571V25.9471H15.4119V19.1441Z" fill="#2B70F9" stroke="#2B70F9" stroke-width="0.2"/>
<path d="M34.2819 17.1593H26.7484C26.5469 17.1593 26.3887 17.2366 26.2819 17.3579C26.1769 17.4773 26.1266 17.6335 26.1266 17.7863C26.1266 17.9391 26.1769 18.0954 26.2819 18.2148C26.3887 18.3361 26.5469 18.4134 26.7484 18.4134H34.2819C34.4833 18.4134 34.6415 18.3361 34.7483 18.2148C34.8534 18.0954 34.9037 17.9391 34.9037 17.7863C34.9037 17.6335 34.8534 17.4773 34.7483 17.3579C34.6415 17.2366 34.4833 17.1593 34.2819 17.1593Z" fill="#2B70F9" stroke="#2B70F9" stroke-width="0.2"/>
<path d="M34.2819 21.1896H26.7484C26.5469 21.1896 26.3887 21.2669 26.2819 21.3882C26.1769 21.5076 26.1266 21.6638 26.1266 21.8166C26.1266 21.9694 26.1769 22.1256 26.2819 22.245C26.3887 22.3664 26.5469 22.4437 26.7484 22.4437H34.2819C34.4833 22.4437 34.6415 22.3664 34.7483 22.245C34.8534 22.1256 34.9037 21.9694 34.9037 21.8166C34.9037 21.6638 34.8534 21.5076 34.7483 21.3882C34.6415 21.2669 34.4833 21.1896 34.2819 21.1896Z" fill="#2B70F9" stroke="#2B70F9" stroke-width="0.2"/>
<path d="M34.2819 25.2162H26.7484C26.5469 25.2162 26.3887 25.2935 26.2819 25.4148C26.1769 25.5342 26.1266 25.6904 26.1266 25.8432C26.1266 25.996 26.1769 26.1522 26.2819 26.2716C26.3887 26.393 26.5469 26.4703 26.7484 26.4703H34.2819C34.4833 26.4703 34.6415 26.393 34.7483 26.2716C34.8534 26.1522 34.9037 25.996 34.9037 25.8432C34.9037 25.6904 34.8534 25.5342 34.7483 25.4148C34.6415 25.2935 34.4833 25.2162 34.2819 25.2162Z" fill="#2B70F9" stroke="#2B70F9" stroke-width="0.2"/>
<path d="M34.2818 29.243H14.7874C14.586 29.243 14.4278 29.3203 14.321 29.4417C14.2159 29.5611 14.1656 29.7173 14.1656 29.8701C14.1656 30.0229 14.2159 30.1791 14.321 30.2985C14.4278 30.4198 14.586 30.4971 14.7874 30.4971H34.2818C34.4832 30.4971 34.6415 30.4198 34.7482 30.2985C34.8533 30.1791 34.9036 30.0229 34.9036 29.8701C34.9036 29.7173 34.8533 29.5611 34.7482 29.4417C34.6415 29.3203 34.4832 29.243 34.2818 29.243Z" fill="#2B70F9" stroke="#2B70F9" stroke-width="0.2"/>
<path d="M34.2818 33.2733H14.7874C14.586 33.2733 14.4278 33.3506 14.321 33.4719C14.2159 33.5913 14.1656 33.7476 14.1656 33.9004C14.1656 34.0532 14.2159 34.2094 14.321 34.3288C14.4278 34.4501 14.586 34.5274 14.7874 34.5274H34.2818C34.4832 34.5274 34.6415 34.4501 34.7482 34.3288C34.8533 34.2094 34.9036 34.0532 34.9036 33.9004C34.9036 33.7476 34.8533 33.5913 34.7482 33.4719C34.6415 33.3506 34.4832 33.2733 34.2818 33.2733Z" fill="#2B70F9" stroke="#2B70F9" stroke-width="0.2"/>
</g>
<defs>
<clipPath id="clip0_395_539">
<rect width="40" height="40" fill="white"/>
</clipPath>
</defs>
</svg>
