<svg width="40" height="40" viewBox="0 0 40 40" fill="none" xmlns="http://www.w3.org/2000/svg">
<mask id="path-1-outside-1_395_489" maskUnits="userSpaceOnUse" x="0" y="6.1687" width="40" height="27" fill="black">
<rect fill="white" y="6.1687" width="40" height="27"/>
<path d="M37.3272 22.3899L33.9644 21.1287C33.7612 21.0518 33.5861 20.915 33.4622 20.7365C33.3384 20.5579 33.2716 20.346 33.2708 20.1287V19.8087C33.8253 19.2542 34.2631 18.5943 34.5586 17.8679C34.854 17.1414 35.0009 16.3632 34.9908 15.5791C34.9908 14.4396 34.5381 13.3468 33.7324 12.5411C32.9267 11.7354 31.8339 11.2827 30.6944 11.2827C29.5549 11.2827 28.4621 11.7354 27.6564 12.5411C26.8507 13.3468 26.398 14.4396 26.398 15.5791C26.3876 16.3634 26.5345 17.1419 26.8299 17.8685C27.1253 18.5952 27.5633 19.2553 28.118 19.8099V20.1299C28.1171 20.3472 28.0503 20.5592 27.9264 20.7378C27.8025 20.9163 27.6273 21.0531 27.424 21.1299L25.064 22.0151L24.824 21.9255C24.4723 21.792 24.1693 21.555 23.9551 21.2458C23.7409 20.9366 23.6254 20.5697 23.624 20.1935V19.6083C24.4554 18.7977 25.1127 17.8261 25.5559 16.7529C25.9991 15.6796 26.2188 14.5273 26.2016 13.3663C26.2016 11.7226 25.5486 10.1462 24.3864 8.98394C23.2241 7.82166 21.6477 7.1687 20.004 7.1687C18.3603 7.1687 16.7839 7.82166 15.6216 8.98394C14.4594 10.1462 13.8064 11.7226 13.8064 13.3663C13.7891 14.5277 14.009 15.6805 14.4525 16.754C14.8961 17.8276 15.554 18.7994 16.386 19.6099V20.1927C16.3846 20.5689 16.2691 20.9358 16.0549 21.245C15.8407 21.5542 15.5377 21.7912 15.186 21.9247L14.946 22.0147L12.584 21.1291C12.3807 21.0523 12.2055 20.9155 12.0816 20.737C11.9577 20.5584 11.8909 20.3464 11.89 20.1291V19.8091C12.4446 19.2544 12.8825 18.5943 13.1779 17.8677C13.4733 17.141 13.6202 16.3626 13.61 15.5783C13.6155 15.0106 13.5084 14.4475 13.295 13.9215C13.0815 13.3954 12.7659 12.9169 12.3664 12.5135C11.967 12.1102 11.4915 11.79 10.9675 11.5715C10.4436 11.353 9.8815 11.2404 9.3138 11.2404C8.7461 11.2404 8.18403 11.353 7.66007 11.5715C7.13611 11.79 6.66065 12.1102 6.26117 12.5135C5.86168 12.9169 5.5461 13.3954 5.33265 13.9215C5.1192 14.4475 5.01212 15.0106 5.0176 15.5783C5.00745 16.3624 5.15441 17.1406 5.44982 17.8671C5.74522 18.5935 6.18309 19.2534 6.7376 19.8079V20.1279C6.73654 20.3452 6.66961 20.5572 6.54564 20.7357C6.42167 20.9142 6.24648 21.051 6.0432 21.1279L2.6728 22.3899C2.18239 22.5758 1.75993 22.9061 1.46126 23.3372C1.16258 23.7683 1.00174 24.2799 1 24.8043V27.4443C1.00011 27.7824 1.13442 28.1067 1.37345 28.3459C1.61247 28.5851 1.93666 28.7196 2.2748 28.7199H7.7856V31.1667C7.78613 31.6084 7.96184 32.0318 8.27417 32.344C8.5865 32.6563 9.00995 32.8319 9.4516 32.8323H30.5492C30.9907 32.8317 31.414 32.656 31.7261 32.3437C32.0383 32.0315 32.2139 31.6082 32.2144 31.1667V28.7199H37.7252C38.0634 28.7196 38.3877 28.585 38.6267 28.3457C38.8657 28.1065 39 27.7821 39 27.4439V24.8039C38.9982 24.2795 38.8373 23.768 38.5386 23.337C38.24 22.906 37.8175 22.5758 37.3272 22.3899ZM27.3832 15.5775C27.3832 14.6997 27.7319 13.8579 28.3526 13.2373C28.9732 12.6166 29.815 12.2679 30.6928 12.2679C31.5706 12.2679 32.4124 12.6166 33.033 13.2373C33.6537 13.8579 34.0024 14.6997 34.0024 15.5775C34.0024 17.8955 32.456 19.9287 30.6924 19.9287C28.9288 19.9287 27.3832 17.8955 27.3832 15.5775ZM14.7892 13.3663C14.8012 11.9922 15.3556 10.6784 16.3315 9.71097C17.3074 8.74354 18.626 8.20076 20.0002 8.20076C21.3744 8.20076 22.693 8.74354 23.6689 9.71097C24.6448 10.6784 25.1992 11.9922 25.2112 13.3663C25.2112 16.9747 22.776 20.1399 20 20.1399C17.224 20.1399 14.7892 16.9747 14.7892 13.3663ZM5.9976 15.5775C5.9976 14.6997 6.34629 13.8579 6.96696 13.2373C7.58763 12.6166 8.42944 12.2679 9.3072 12.2679C10.185 12.2679 11.0268 12.6166 11.6474 13.2373C12.2681 13.8579 12.6168 14.6997 12.6168 15.5775C12.6168 17.8955 11.0704 19.9287 9.3076 19.9287C7.5448 19.9287 5.9976 17.8955 5.9976 15.5775ZM2.2748 27.7319C2.19845 27.7318 2.12526 27.7014 2.07127 27.6474C2.01728 27.5934 1.98691 27.5203 1.9868 27.4439V24.8039C1.98814 24.4802 2.08762 24.1646 2.27208 23.8987C2.45654 23.6327 2.71733 23.429 3.02 23.3143L6.38 22.0531C6.71178 21.9276 7.00567 21.7187 7.23335 21.4467C7.46103 21.1747 7.61485 20.8486 7.68 20.4999C8.1795 20.7724 8.7394 20.9152 9.3084 20.9152C9.8774 20.9152 10.4373 20.7724 10.9368 20.4999C11.0015 20.8481 11.1547 21.1738 11.3817 21.4457C11.6087 21.7175 11.9018 21.9264 12.2328 22.0523L13.536 22.5411L10.136 23.8159C9.44728 24.077 8.85398 24.5409 8.43447 25.1463C8.01497 25.7517 7.78899 26.4702 7.7864 27.2067V27.7319H2.2748ZM31.2276 31.1655C31.2276 31.3458 31.156 31.5188 31.0284 31.6463C30.9009 31.7739 30.7279 31.8455 30.5476 31.8455H9.4516C9.27125 31.8455 9.09829 31.7739 8.97077 31.6463C8.84324 31.5188 8.7716 31.3458 8.7716 31.1655V27.2075C8.77327 26.6716 8.93767 26.1488 9.24302 25.7084C9.54838 25.2679 9.9803 24.9306 10.4816 24.7411L15.5268 22.8487C16.0407 22.653 16.4869 22.3127 16.8114 21.8688C17.136 21.4249 17.325 20.8965 17.3556 20.3475C18.1437 20.8564 19.0619 21.1271 20 21.1271C20.9381 21.1271 21.8563 20.8564 22.6444 20.3475C22.6751 20.8967 22.8642 21.4252 23.1888 21.8692C23.5134 22.3132 23.9596 22.6537 24.4736 22.8495L29.5168 24.7411C30.0181 24.9306 30.45 25.2678 30.7553 25.7081C31.0607 26.1485 31.2251 26.6712 31.2268 27.2071L31.2276 31.1655ZM38.0132 27.4455C38.0131 27.5219 37.9827 27.595 37.9287 27.649C37.8747 27.703 37.8016 27.7334 37.7252 27.7335H32.2144V27.2063C32.2121 26.4697 31.9863 25.7512 31.5667 25.1458C31.1472 24.5404 30.5537 24.0767 29.8648 23.8159L26.4648 22.5415L27.7672 22.0531C28.0983 21.9273 28.3914 21.7184 28.6184 21.4465C28.8454 21.1747 28.9986 20.8489 29.0632 20.5007C29.5627 20.7733 30.1227 20.9161 30.6918 20.9161C31.2609 20.9161 31.8209 20.7733 32.3204 20.5007C32.385 20.8491 32.5381 21.1749 32.7651 21.447C32.9921 21.719 33.2852 21.928 33.6164 22.0539L36.9784 23.3151C37.2811 23.4298 37.542 23.6336 37.7264 23.8996C37.9109 24.1656 38.0103 24.4814 38.0116 24.8051L38.0132 27.4455Z"/>
</mask>
<path d="M37.3272 22.3899L33.9644 21.1287C33.7612 21.0518 33.5861 20.915 33.4622 20.7365C33.3384 20.5579 33.2716 20.346 33.2708 20.1287V19.8087C33.8253 19.2542 34.2631 18.5943 34.5586 17.8679C34.854 17.1414 35.0009 16.3632 34.9908 15.5791C34.9908 14.4396 34.5381 13.3468 33.7324 12.5411C32.9267 11.7354 31.8339 11.2827 30.6944 11.2827C29.5549 11.2827 28.4621 11.7354 27.6564 12.5411C26.8507 13.3468 26.398 14.4396 26.398 15.5791C26.3876 16.3634 26.5345 17.1419 26.8299 17.8685C27.1253 18.5952 27.5633 19.2553 28.118 19.8099V20.1299C28.1171 20.3472 28.0503 20.5592 27.9264 20.7378C27.8025 20.9163 27.6273 21.0531 27.424 21.1299L25.064 22.0151L24.824 21.9255C24.4723 21.792 24.1693 21.555 23.9551 21.2458C23.7409 20.9366 23.6254 20.5697 23.624 20.1935V19.6083C24.4554 18.7977 25.1127 17.8261 25.5559 16.7529C25.9991 15.6796 26.2188 14.5273 26.2016 13.3663C26.2016 11.7226 25.5486 10.1462 24.3864 8.98394C23.2241 7.82166 21.6477 7.1687 20.004 7.1687C18.3603 7.1687 16.7839 7.82166 15.6216 8.98394C14.4594 10.1462 13.8064 11.7226 13.8064 13.3663C13.7891 14.5277 14.009 15.6805 14.4525 16.754C14.8961 17.8276 15.554 18.7994 16.386 19.6099V20.1927C16.3846 20.5689 16.2691 20.9358 16.0549 21.245C15.8407 21.5542 15.5377 21.7912 15.186 21.9247L14.946 22.0147L12.584 21.1291C12.3807 21.0523 12.2055 20.9155 12.0816 20.737C11.9577 20.5584 11.8909 20.3464 11.89 20.1291V19.8091C12.4446 19.2544 12.8825 18.5943 13.1779 17.8677C13.4733 17.141 13.6202 16.3626 13.61 15.5783C13.6155 15.0106 13.5084 14.4475 13.295 13.9215C13.0815 13.3954 12.7659 12.9169 12.3664 12.5135C11.967 12.1102 11.4915 11.79 10.9675 11.5715C10.4436 11.353 9.8815 11.2404 9.3138 11.2404C8.7461 11.2404 8.18403 11.353 7.66007 11.5715C7.13611 11.79 6.66065 12.1102 6.26117 12.5135C5.86168 12.9169 5.5461 13.3954 5.33265 13.9215C5.1192 14.4475 5.01212 15.0106 5.0176 15.5783C5.00745 16.3624 5.15441 17.1406 5.44982 17.8671C5.74522 18.5935 6.18309 19.2534 6.7376 19.8079V20.1279C6.73654 20.3452 6.66961 20.5572 6.54564 20.7357C6.42167 20.9142 6.24648 21.051 6.0432 21.1279L2.6728 22.3899C2.18239 22.5758 1.75993 22.9061 1.46126 23.3372C1.16258 23.7683 1.00174 24.2799 1 24.8043V27.4443C1.00011 27.7824 1.13442 28.1067 1.37345 28.3459C1.61247 28.5851 1.93666 28.7196 2.2748 28.7199H7.7856V31.1667C7.78613 31.6084 7.96184 32.0318 8.27417 32.344C8.5865 32.6563 9.00995 32.8319 9.4516 32.8323H30.5492C30.9907 32.8317 31.414 32.656 31.7261 32.3437C32.0383 32.0315 32.2139 31.6082 32.2144 31.1667V28.7199H37.7252C38.0634 28.7196 38.3877 28.585 38.6267 28.3457C38.8657 28.1065 39 27.7821 39 27.4439V24.8039C38.9982 24.2795 38.8373 23.768 38.5386 23.337C38.24 22.906 37.8175 22.5758 37.3272 22.3899ZM27.3832 15.5775C27.3832 14.6997 27.7319 13.8579 28.3526 13.2373C28.9732 12.6166 29.815 12.2679 30.6928 12.2679C31.5706 12.2679 32.4124 12.6166 33.033 13.2373C33.6537 13.8579 34.0024 14.6997 34.0024 15.5775C34.0024 17.8955 32.456 19.9287 30.6924 19.9287C28.9288 19.9287 27.3832 17.8955 27.3832 15.5775ZM14.7892 13.3663C14.8012 11.9922 15.3556 10.6784 16.3315 9.71097C17.3074 8.74354 18.626 8.20076 20.0002 8.20076C21.3744 8.20076 22.693 8.74354 23.6689 9.71097C24.6448 10.6784 25.1992 11.9922 25.2112 13.3663C25.2112 16.9747 22.776 20.1399 20 20.1399C17.224 20.1399 14.7892 16.9747 14.7892 13.3663ZM5.9976 15.5775C5.9976 14.6997 6.34629 13.8579 6.96696 13.2373C7.58763 12.6166 8.42944 12.2679 9.3072 12.2679C10.185 12.2679 11.0268 12.6166 11.6474 13.2373C12.2681 13.8579 12.6168 14.6997 12.6168 15.5775C12.6168 17.8955 11.0704 19.9287 9.3076 19.9287C7.5448 19.9287 5.9976 17.8955 5.9976 15.5775ZM2.2748 27.7319C2.19845 27.7318 2.12526 27.7014 2.07127 27.6474C2.01728 27.5934 1.98691 27.5203 1.9868 27.4439V24.8039C1.98814 24.4802 2.08762 24.1646 2.27208 23.8987C2.45654 23.6327 2.71733 23.429 3.02 23.3143L6.38 22.0531C6.71178 21.9276 7.00567 21.7187 7.23335 21.4467C7.46103 21.1747 7.61485 20.8486 7.68 20.4999C8.1795 20.7724 8.7394 20.9152 9.3084 20.9152C9.8774 20.9152 10.4373 20.7724 10.9368 20.4999C11.0015 20.8481 11.1547 21.1738 11.3817 21.4457C11.6087 21.7175 11.9018 21.9264 12.2328 22.0523L13.536 22.5411L10.136 23.8159C9.44728 24.077 8.85398 24.5409 8.43447 25.1463C8.01497 25.7517 7.78899 26.4702 7.7864 27.2067V27.7319H2.2748ZM31.2276 31.1655C31.2276 31.3458 31.156 31.5188 31.0284 31.6463C30.9009 31.7739 30.7279 31.8455 30.5476 31.8455H9.4516C9.27125 31.8455 9.09829 31.7739 8.97077 31.6463C8.84324 31.5188 8.7716 31.3458 8.7716 31.1655V27.2075C8.77327 26.6716 8.93767 26.1488 9.24302 25.7084C9.54838 25.2679 9.9803 24.9306 10.4816 24.7411L15.5268 22.8487C16.0407 22.653 16.4869 22.3127 16.8114 21.8688C17.136 21.4249 17.325 20.8965 17.3556 20.3475C18.1437 20.8564 19.0619 21.1271 20 21.1271C20.9381 21.1271 21.8563 20.8564 22.6444 20.3475C22.6751 20.8967 22.8642 21.4252 23.1888 21.8692C23.5134 22.3132 23.9596 22.6537 24.4736 22.8495L29.5168 24.7411C30.0181 24.9306 30.45 25.2678 30.7553 25.7081C31.0607 26.1485 31.2251 26.6712 31.2268 27.2071L31.2276 31.1655ZM38.0132 27.4455C38.0131 27.5219 37.9827 27.595 37.9287 27.649C37.8747 27.703 37.8016 27.7334 37.7252 27.7335H32.2144V27.2063C32.2121 26.4697 31.9863 25.7512 31.5667 25.1458C31.1472 24.5404 30.5537 24.0767 29.8648 23.8159L26.4648 22.5415L27.7672 22.0531C28.0983 21.9273 28.3914 21.7184 28.6184 21.4465C28.8454 21.1747 28.9986 20.8489 29.0632 20.5007C29.5627 20.7733 30.1227 20.9161 30.6918 20.9161C31.2609 20.9161 31.8209 20.7733 32.3204 20.5007C32.385 20.8491 32.5381 21.1749 32.7651 21.447C32.9921 21.719 33.2852 21.928 33.6164 22.0539L36.9784 23.3151C37.2811 23.4298 37.542 23.6336 37.7264 23.8996C37.9109 24.1656 38.0103 24.4814 38.0116 24.8051L38.0132 27.4455Z" fill="#2B70F9"/>
<path d="M37.3272 22.3899L33.9644 21.1287C33.7612 21.0518 33.5861 20.915 33.4622 20.7365C33.3384 20.5579 33.2716 20.346 33.2708 20.1287V19.8087C33.8253 19.2542 34.2631 18.5943 34.5586 17.8679C34.854 17.1414 35.0009 16.3632 34.9908 15.5791C34.9908 14.4396 34.5381 13.3468 33.7324 12.5411C32.9267 11.7354 31.8339 11.2827 30.6944 11.2827C29.5549 11.2827 28.4621 11.7354 27.6564 12.5411C26.8507 13.3468 26.398 14.4396 26.398 15.5791C26.3876 16.3634 26.5345 17.1419 26.8299 17.8685C27.1253 18.5952 27.5633 19.2553 28.118 19.8099V20.1299C28.1171 20.3472 28.0503 20.5592 27.9264 20.7378C27.8025 20.9163 27.6273 21.0531 27.424 21.1299L25.064 22.0151L24.824 21.9255C24.4723 21.792 24.1693 21.555 23.9551 21.2458C23.7409 20.9366 23.6254 20.5697 23.624 20.1935V19.6083C24.4554 18.7977 25.1127 17.8261 25.5559 16.7529C25.9991 15.6796 26.2188 14.5273 26.2016 13.3663C26.2016 11.7226 25.5486 10.1462 24.3864 8.98394C23.2241 7.82166 21.6477 7.1687 20.004 7.1687C18.3603 7.1687 16.7839 7.82166 15.6216 8.98394C14.4594 10.1462 13.8064 11.7226 13.8064 13.3663C13.7891 14.5277 14.009 15.6805 14.4525 16.754C14.8961 17.8276 15.554 18.7994 16.386 19.6099V20.1927C16.3846 20.5689 16.2691 20.9358 16.0549 21.245C15.8407 21.5542 15.5377 21.7912 15.186 21.9247L14.946 22.0147L12.584 21.1291C12.3807 21.0523 12.2055 20.9155 12.0816 20.737C11.9577 20.5584 11.8909 20.3464 11.89 20.1291V19.8091C12.4446 19.2544 12.8825 18.5943 13.1779 17.8677C13.4733 17.141 13.6202 16.3626 13.61 15.5783C13.6155 15.0106 13.5084 14.4475 13.295 13.9215C13.0815 13.3954 12.7659 12.9169 12.3664 12.5135C11.967 12.1102 11.4915 11.79 10.9675 11.5715C10.4436 11.353 9.8815 11.2404 9.3138 11.2404C8.7461 11.2404 8.18403 11.353 7.66007 11.5715C7.13611 11.79 6.66065 12.1102 6.26117 12.5135C5.86168 12.9169 5.5461 13.3954 5.33265 13.9215C5.1192 14.4475 5.01212 15.0106 5.0176 15.5783C5.00745 16.3624 5.15441 17.1406 5.44982 17.8671C5.74522 18.5935 6.18309 19.2534 6.7376 19.8079V20.1279C6.73654 20.3452 6.66961 20.5572 6.54564 20.7357C6.42167 20.9142 6.24648 21.051 6.0432 21.1279L2.6728 22.3899C2.18239 22.5758 1.75993 22.9061 1.46126 23.3372C1.16258 23.7683 1.00174 24.2799 1 24.8043V27.4443C1.00011 27.7824 1.13442 28.1067 1.37345 28.3459C1.61247 28.5851 1.93666 28.7196 2.2748 28.7199H7.7856V31.1667C7.78613 31.6084 7.96184 32.0318 8.27417 32.344C8.5865 32.6563 9.00995 32.8319 9.4516 32.8323H30.5492C30.9907 32.8317 31.414 32.656 31.7261 32.3437C32.0383 32.0315 32.2139 31.6082 32.2144 31.1667V28.7199H37.7252C38.0634 28.7196 38.3877 28.585 38.6267 28.3457C38.8657 28.1065 39 27.7821 39 27.4439V24.8039C38.9982 24.2795 38.8373 23.768 38.5386 23.337C38.24 22.906 37.8175 22.5758 37.3272 22.3899ZM27.3832 15.5775C27.3832 14.6997 27.7319 13.8579 28.3526 13.2373C28.9732 12.6166 29.815 12.2679 30.6928 12.2679C31.5706 12.2679 32.4124 12.6166 33.033 13.2373C33.6537 13.8579 34.0024 14.6997 34.0024 15.5775C34.0024 17.8955 32.456 19.9287 30.6924 19.9287C28.9288 19.9287 27.3832 17.8955 27.3832 15.5775ZM14.7892 13.3663C14.8012 11.9922 15.3556 10.6784 16.3315 9.71097C17.3074 8.74354 18.626 8.20076 20.0002 8.20076C21.3744 8.20076 22.693 8.74354 23.6689 9.71097C24.6448 10.6784 25.1992 11.9922 25.2112 13.3663C25.2112 16.9747 22.776 20.1399 20 20.1399C17.224 20.1399 14.7892 16.9747 14.7892 13.3663ZM5.9976 15.5775C5.9976 14.6997 6.34629 13.8579 6.96696 13.2373C7.58763 12.6166 8.42944 12.2679 9.3072 12.2679C10.185 12.2679 11.0268 12.6166 11.6474 13.2373C12.2681 13.8579 12.6168 14.6997 12.6168 15.5775C12.6168 17.8955 11.0704 19.9287 9.3076 19.9287C7.5448 19.9287 5.9976 17.8955 5.9976 15.5775ZM2.2748 27.7319C2.19845 27.7318 2.12526 27.7014 2.07127 27.6474C2.01728 27.5934 1.98691 27.5203 1.9868 27.4439V24.8039C1.98814 24.4802 2.08762 24.1646 2.27208 23.8987C2.45654 23.6327 2.71733 23.429 3.02 23.3143L6.38 22.0531C6.71178 21.9276 7.00567 21.7187 7.23335 21.4467C7.46103 21.1747 7.61485 20.8486 7.68 20.4999C8.1795 20.7724 8.7394 20.9152 9.3084 20.9152C9.8774 20.9152 10.4373 20.7724 10.9368 20.4999C11.0015 20.8481 11.1547 21.1738 11.3817 21.4457C11.6087 21.7175 11.9018 21.9264 12.2328 22.0523L13.536 22.5411L10.136 23.8159C9.44728 24.077 8.85398 24.5409 8.43447 25.1463C8.01497 25.7517 7.78899 26.4702 7.7864 27.2067V27.7319H2.2748ZM31.2276 31.1655C31.2276 31.3458 31.156 31.5188 31.0284 31.6463C30.9009 31.7739 30.7279 31.8455 30.5476 31.8455H9.4516C9.27125 31.8455 9.09829 31.7739 8.97077 31.6463C8.84324 31.5188 8.7716 31.3458 8.7716 31.1655V27.2075C8.77327 26.6716 8.93767 26.1488 9.24302 25.7084C9.54838 25.2679 9.9803 24.9306 10.4816 24.7411L15.5268 22.8487C16.0407 22.653 16.4869 22.3127 16.8114 21.8688C17.136 21.4249 17.325 20.8965 17.3556 20.3475C18.1437 20.8564 19.0619 21.1271 20 21.1271C20.9381 21.1271 21.8563 20.8564 22.6444 20.3475C22.6751 20.8967 22.8642 21.4252 23.1888 21.8692C23.5134 22.3132 23.9596 22.6537 24.4736 22.8495L29.5168 24.7411C30.0181 24.9306 30.45 25.2678 30.7553 25.7081C31.0607 26.1485 31.2251 26.6712 31.2268 27.2071L31.2276 31.1655ZM38.0132 27.4455C38.0131 27.5219 37.9827 27.595 37.9287 27.649C37.8747 27.703 37.8016 27.7334 37.7252 27.7335H32.2144V27.2063C32.2121 26.4697 31.9863 25.7512 31.5667 25.1458C31.1472 24.5404 30.5537 24.0767 29.8648 23.8159L26.4648 22.5415L27.7672 22.0531C28.0983 21.9273 28.3914 21.7184 28.6184 21.4465C28.8454 21.1747 28.9986 20.8489 29.0632 20.5007C29.5627 20.7733 30.1227 20.9161 30.6918 20.9161C31.2609 20.9161 31.8209 20.7733 32.3204 20.5007C32.385 20.8491 32.5381 21.1749 32.7651 21.447C32.9921 21.719 33.2852 21.928 33.6164 22.0539L36.9784 23.3151C37.2811 23.4298 37.542 23.6336 37.7264 23.8996C37.9109 24.1656 38.0103 24.4814 38.0116 24.8051L38.0132 27.4455Z" stroke="#2B70F9" stroke-width="0.4" mask="url(#path-1-outside-1_395_489)"/>
</svg>
