<svg xmlns="http://www.w3.org/2000/svg" width="40" height="40" viewBox="0 0 40 40" fill="none">
  <path d="M6.04688 8.71875H24.3058C24.4633 8.71875 24.6143 8.65619 24.7257 8.54484C24.837 8.43349 24.8996 8.28247 24.8996 8.125C24.8996 7.96753 24.837 7.81651 24.7257 7.70516C24.6143 7.59381 24.4633 7.53125 24.3058 7.53125H6.04688C5.8894 7.53125 5.73838 7.59381 5.62703 7.70516C5.51568 7.81651 5.45312 7.96753 5.45312 8.125C5.45312 8.28247 5.51568 8.43349 5.62703 8.54484C5.73838 8.65619 5.8894 8.71875 6.04688 8.71875Z" fill="#2B70F9"/>
  <path d="M25.048 14.0625C25.048 13.905 24.9855 13.754 24.8741 13.6427C24.7628 13.5313 24.6118 13.4688 24.4543 13.4688H6.19531C6.03784 13.4688 5.88682 13.5313 5.77547 13.6427C5.66412 13.754 5.60156 13.905 5.60156 14.0625C5.60156 14.22 5.66412 14.371 5.77547 14.4823C5.88682 14.5937 6.03784 14.6562 6.19531 14.6562H24.4543C24.6118 14.6562 24.7628 14.5937 24.8741 14.4823C24.9855 14.371 25.048 14.22 25.048 14.0625Z" fill="#2B70F9"/>
  <path d="M5.60156 31.875C5.60157 32.0325 5.66413 32.1835 5.77548 32.2948C5.88682 32.4062 6.03784 32.4687 6.19531 32.4688H19.9353C19.6468 32.0899 19.3825 31.6933 19.1439 31.2812H6.19531C6.03784 31.2813 5.88682 31.3438 5.77548 31.4552C5.66413 31.5665 5.60157 31.7175 5.60156 31.875Z" fill="#2B70F9"/>
  <path d="M17.6337 25.3438H6.19531C6.03784 25.3438 5.88682 25.4063 5.77547 25.5177C5.66412 25.629 5.60156 25.78 5.60156 25.9375C5.60156 26.095 5.66412 26.246 5.77547 26.3573C5.88682 26.4687 6.03784 26.5312 6.19531 26.5312H17.6646C17.6415 26.237 17.6262 25.9407 17.6262 25.6406C17.6262 25.5411 17.6311 25.4427 17.6337 25.3438Z" fill="#2B70F9"/>
  <path d="M19.5114 19.4062H6.19531C6.03784 19.4062 5.88682 19.4688 5.77547 19.5802C5.66412 19.6915 5.60156 19.8425 5.60156 20C5.60156 20.1575 5.66412 20.3085 5.77547 20.4198C5.88682 20.5312 6.03784 20.5938 6.19531 20.5938H18.8226C19.0279 20.1843 19.2579 19.7877 19.5114 19.4062Z" fill="#2B70F9"/>
  <path d="M3.375 39H27.125C27.7056 38.9991 28.2658 38.7858 28.6999 38.4003C29.1341 38.0148 29.4121 37.4837 29.4816 36.9073C29.291 36.9169 29.0992 36.9218 28.9062 36.9219C28.6948 36.9219 28.4849 36.9149 28.2763 36.9033C28.2142 37.1621 28.067 37.3924 27.8581 37.5574C27.6493 37.7223 27.3911 37.8121 27.125 37.8125H3.375C3.06006 37.8125 2.75801 37.6874 2.53531 37.4647C2.31261 37.242 2.1875 36.9399 2.1875 36.625V3.375C2.1875 3.06006 2.31261 2.75801 2.53531 2.53531C2.75801 2.31261 3.06006 2.1875 3.375 2.1875H27.125C27.4399 2.1875 27.742 2.31261 27.9647 2.53531C28.1874 2.75801 28.3125 3.06006 28.3125 3.375V14.3752C28.5092 14.3649 28.7071 14.3596 28.9062 14.3594C29.1054 14.3594 29.3033 14.3646 29.5 14.3752V3.375C29.4993 2.74533 29.2488 2.14165 28.8036 1.6964C28.3584 1.25116 27.7547 1.00071 27.125 1L3.375 1C2.74533 1.00071 2.14165 1.25116 1.6964 1.6964C1.25116 2.14165 1.00071 2.74533 1 3.375L1 36.625C1.00071 37.2547 1.25116 37.8584 1.6964 38.3036C2.14165 38.7488 2.74533 38.9993 3.375 39Z" fill="#2B70F9"/>
  <path d="M28.9063 15.5469C26.9099 15.5469 24.9584 16.1389 23.2985 17.248C21.6386 18.3571 20.3448 19.9335 19.5808 21.7779C18.8169 23.6223 18.617 25.6518 19.0065 27.6098C19.3959 29.5678 20.3573 31.3663 21.7689 32.778C23.1805 34.1896 24.9791 35.151 26.9371 35.5404C28.8951 35.9299 30.9246 35.73 32.769 34.966C34.6134 34.2021 36.1898 32.9083 37.2989 31.2484C38.408 29.5885 39 27.637 39 25.6406C38.997 22.9645 37.9326 20.3989 36.0403 18.5066C34.148 16.6143 31.5824 15.5499 28.9063 15.5469ZM28.9063 34.5469C27.1448 34.5469 25.4228 34.0245 23.9582 33.0459C22.4936 32.0673 21.352 30.6763 20.678 29.0489C20.0039 27.4215 19.8275 25.6307 20.1711 23.9031C20.5148 22.1755 21.363 20.5885 22.6086 19.343C23.8541 18.0974 25.4411 17.2492 27.1687 16.9055C28.8964 16.5619 30.6871 16.7382 32.3145 17.4123C33.9419 18.0864 35.3329 19.228 36.3115 20.6926C37.2902 22.1572 37.8125 23.8791 37.8125 25.6406C37.8098 28.0019 36.8706 30.2657 35.201 31.9353C33.5313 33.605 31.2675 34.5442 28.9063 34.5469Z" fill="#2B70F9"/>
  <path d="M31.9718 19.6163L31.7695 19.5171C31.2787 19.279 30.7142 19.2426 30.1969 19.4156C29.6796 19.5887 29.2506 19.9575 29.0019 20.4429L25.4081 27.5252C25.405 27.5313 25.4036 27.5379 25.4008 27.5441C25.3918 27.5639 25.384 27.5841 25.3773 27.6047C25.3717 27.6214 25.3661 27.6379 25.362 27.655C25.3575 27.6749 25.354 27.6949 25.3515 27.7152C25.3489 27.7347 25.3467 27.754 25.346 27.7737C25.3457 27.7818 25.3437 27.7894 25.3438 27.7976L25.3652 31.2848C25.3659 31.3942 25.3968 31.5012 25.4544 31.5941C25.5121 31.6871 25.5943 31.7623 25.6919 31.8115C25.7899 31.8593 25.899 31.8799 26.0077 31.8709C26.1164 31.862 26.2206 31.8238 26.3095 31.7606L29.1567 29.6787C29.1808 29.6602 29.2034 29.6399 29.2244 29.6179C29.23 29.6124 29.2364 29.6081 29.2418 29.6023C29.2755 29.5653 29.3043 29.5241 29.3275 29.4798C29.3298 29.4755 29.3334 29.4725 29.3356 29.4682L32.9106 22.4228C33.0353 22.1773 33.1099 21.9094 33.1302 21.6348C33.1504 21.3602 33.1159 21.0842 33.0285 20.8231C32.9412 20.5619 32.8028 20.3208 32.6213 20.1136C32.4399 19.9064 32.2192 19.7373 31.9718 19.6163ZM26.5455 30.1168L26.5371 28.7489L27.6624 29.3002L26.5455 30.1168ZM28.5418 28.4087L26.7394 27.5256L29.1849 22.7065L30.9873 23.5894L28.5418 28.4087ZM31.8518 21.8854L31.5247 22.5304L29.7222 21.6474L30.0607 20.9802C30.1675 20.7722 30.3514 20.6143 30.5731 20.5402C30.7947 20.466 31.0366 20.4816 31.247 20.5834L31.4494 20.6826C31.6618 20.7892 31.8234 20.9756 31.8988 21.201C31.9742 21.4264 31.9573 21.6725 31.8518 21.8854Z" fill="#2B70F9"/>
</svg>