<svg width="40" height="40" viewBox="0 0 40 40" fill="none" xmlns="http://www.w3.org/2000/svg">
<path d="M6.44125 34.5155C5.25014 34.5155 4.28125 33.5466 4.28125 32.3555C4.28125 32.1066 4.47681 31.9111 4.72569 31.9111C4.97458 31.9111 5.17014 32.1066 5.17014 32.3555C5.17014 33.0577 5.73903 33.6266 6.44125 33.6266C7.14347 33.6266 7.71236 33.0577 7.71236 32.3555C7.71236 31.6533 7.14347 31.0844 6.44125 31.0844C5.25014 31.0844 4.28125 30.1155 4.28125 28.9244C4.28125 27.7333 5.25014 26.7644 6.44125 26.7644C7.63236 26.7644 8.60125 27.7333 8.60125 28.9244C8.60125 29.1733 8.40569 29.3688 8.15681 29.3688C7.90792 29.3688 7.71236 29.1733 7.71236 28.9244C7.71236 28.2222 7.14347 27.6533 6.44125 27.6533C5.73903 27.6533 5.17014 28.2222 5.17014 28.9244C5.17014 29.6266 5.73903 30.1955 6.44125 30.1955C7.63236 30.1955 8.60125 31.1644 8.60125 32.3555C8.60125 33.5466 7.63236 34.5155 6.44125 34.5155Z" fill="#2B70F9"/>
<path d="M6.44444 27.6623C6.19556 27.6623 6 27.4667 6 27.2178V26.5067C6 26.2578 6.19556 26.0623 6.44444 26.0623C6.69333 26.0623 6.88889 26.2578 6.88889 26.5067V27.2178C6.88889 27.4667 6.69333 27.6623 6.44444 27.6623Z" fill="#2B70F9"/>
<path d="M6.44444 35.2178C6.19556 35.2178 6 35.0222 6 34.7734V34.0622C6 33.8134 6.19556 33.6178 6.44444 33.6178C6.69333 33.6178 6.88889 33.8134 6.88889 34.0622V34.7734C6.88889 35.0222 6.69333 35.2178 6.44444 35.2178Z" fill="#2B70F9"/>
<path d="M20.9627 19.7689H19.0871C18.9182 19.7689 18.7582 19.6711 18.6871 19.5111L17.8249 17.6711C17.6382 17.6089 17.4605 17.5289 17.2827 17.4489L15.3716 18.1422C15.2116 18.2045 15.0249 18.16 14.9093 18.0356L13.5849 16.7111C13.4605 16.5867 13.4249 16.4089 13.4782 16.2489L14.1716 14.3378C14.0916 14.16 14.0116 13.9822 13.9493 13.7956L12.1093 12.9334C11.9493 12.8622 11.8516 12.7022 11.8516 12.5334V10.6578C11.8516 10.4889 11.9493 10.3289 12.1093 10.2578L13.9493 9.39557C14.0116 9.20891 14.0916 9.03113 14.1716 8.85335L13.4782 6.94224C13.416 6.78224 13.4605 6.59557 13.5849 6.48002L14.9093 5.15557C15.0338 5.03113 15.2116 4.99557 15.3716 5.04891L17.2827 5.74224C17.4605 5.66224 17.6382 5.58224 17.8249 5.52002L18.6871 3.68002C18.7582 3.52002 18.9182 3.42224 19.0871 3.42224H20.9627C21.1316 3.42224 21.2916 3.52002 21.3627 3.68002L22.2249 5.52002C22.4027 5.58224 22.5893 5.66224 22.7671 5.74224L24.6782 5.04891C24.8382 4.98669 25.0249 5.03113 25.1405 5.15557L26.4649 6.48002C26.5893 6.60446 26.6249 6.78224 26.5716 6.94224L25.8782 8.85335C25.9582 9.03113 26.0382 9.20891 26.1005 9.39557L27.9405 10.2578C28.1005 10.3289 28.1982 10.4889 28.1982 10.6578V12.5334C28.1982 12.7022 28.1005 12.8622 27.9405 12.9334L26.1005 13.7956C26.0293 13.9822 25.9582 14.16 25.8782 14.3378L26.5716 16.2489C26.6338 16.4089 26.5893 16.5956 26.4649 16.7111L25.1405 18.0445C25.016 18.1689 24.8382 18.2045 24.6782 18.1511L22.7671 17.4578C22.5893 17.5378 22.4116 17.6178 22.2249 17.68L21.3627 19.52C21.2916 19.6711 21.1405 19.7689 20.9627 19.7689ZM19.3716 18.88H20.6871L21.5049 17.1289C21.5582 17.0134 21.656 16.9334 21.7716 16.8978C22.0382 16.8089 22.296 16.7022 22.5449 16.5778C22.6516 16.5245 22.7849 16.5156 22.9005 16.56L24.7227 17.2178L25.656 16.2934L24.9982 14.4711C24.9538 14.3556 24.9627 14.2311 25.016 14.1156C25.1405 13.8667 25.2471 13.6089 25.336 13.3422C25.3716 13.2267 25.4605 13.1289 25.5671 13.0756L27.3182 12.2578V10.9422L25.5671 10.1245C25.4516 10.0711 25.3716 9.97335 25.336 9.8578C25.2471 9.59113 25.1405 9.33335 25.016 9.08446C24.9627 8.9778 24.9538 8.84446 24.9982 8.72891L25.656 6.90669L24.7138 5.98224L22.8916 6.64002C22.776 6.68446 22.6516 6.67557 22.536 6.62224C22.2871 6.4978 22.0293 6.39113 21.7627 6.30224C21.6471 6.26669 21.5493 6.1778 21.496 6.07113L20.6782 4.32002H19.3627L18.5449 6.07113C18.4916 6.18669 18.3938 6.26669 18.2782 6.30224C18.0116 6.39113 17.7538 6.4978 17.5049 6.62224C17.3982 6.67557 17.2649 6.68446 17.1493 6.64002L15.3271 5.98224L14.4027 6.90669L15.0605 8.72891C15.1049 8.84446 15.096 8.96891 15.0427 9.08446C14.9182 9.33335 14.8116 9.59113 14.7227 9.8578C14.6871 9.97335 14.5982 10.0711 14.4916 10.1245L12.7405 10.9422V12.2578L14.4916 13.0756C14.6071 13.1289 14.6871 13.2267 14.7227 13.3422C14.8116 13.6089 14.9182 13.8667 15.0427 14.1156C15.096 14.2222 15.1049 14.3556 15.0605 14.4711L14.4027 16.2934L15.3271 17.2178L17.1493 16.56C17.2649 16.5156 17.3893 16.5245 17.5049 16.5778C17.7538 16.7022 18.0116 16.8089 18.2782 16.8978C18.3938 16.9334 18.4916 17.0222 18.5449 17.1289L19.3716 18.88Z" fill="#2B70F9"/>
<path d="M20.0245 15.6088C17.8112 15.6088 16.0156 13.8133 16.0156 11.6C16.0156 9.38662 17.8112 7.59106 20.0245 7.59106C22.2378 7.59106 24.0334 9.38662 24.0334 11.6C24.0334 13.8133 22.229 15.6088 20.0245 15.6088ZM20.0245 8.47106C18.3001 8.47106 16.9045 9.87551 16.9045 11.5911C16.9045 13.3066 18.309 14.7111 20.0245 14.7111C21.749 14.7111 23.1445 13.3066 23.1445 11.5911C23.1445 9.87551 21.7401 8.47106 20.0245 8.47106Z" fill="#2B70F9"/>
<path d="M33.6007 36.7111C33.3518 36.7111 33.1562 36.5155 33.1562 36.2666V35.2533C33.1562 35.0044 33.3518 34.8088 33.6007 34.8088C33.8496 34.8088 34.0451 35.0044 34.0451 35.2533V36.2666C34.0451 36.5066 33.8496 36.7111 33.6007 36.7111Z" fill="#2B70F9"/>
<path d="M36.4111 35.9555C36.26 35.9555 36.1088 35.8755 36.0288 35.7333L35.5222 34.8533C35.3977 34.64 35.4688 34.3644 35.6822 34.2489C35.8955 34.1244 36.1711 34.1955 36.2866 34.4089L36.7933 35.2889C36.9177 35.5022 36.8466 35.7777 36.6333 35.8933C36.5711 35.9377 36.4911 35.9555 36.4111 35.9555Z" fill="#2B70F9"/>
<path d="M38.4719 33.9023C38.3919 33.9023 38.3208 33.8845 38.2497 33.84L37.3697 33.3334C37.1563 33.2089 37.0852 32.9423 37.2097 32.7289C37.3341 32.5156 37.6008 32.4445 37.8141 32.5689L38.6941 33.0756C38.9074 33.2 38.9786 33.4667 38.8541 33.68C38.7741 33.8223 38.623 33.9023 38.4719 33.9023Z" fill="#2B70F9"/>
<path d="M39.2234 31.0844H38.2101C37.9612 31.0844 37.7656 30.8889 37.7656 30.64C37.7656 30.3911 37.9612 30.1956 38.2101 30.1956H39.2234C39.4723 30.1956 39.6678 30.3911 39.6678 30.64C39.6678 30.8889 39.4634 31.0844 39.2234 31.0844Z" fill="#2B70F9"/>
<path d="M37.5919 28.7823C37.4408 28.7823 37.2897 28.7023 37.2097 28.56C37.0852 28.3467 37.1563 28.0712 37.3697 27.9556L38.2497 27.4489C38.463 27.3245 38.7386 27.3956 38.8541 27.6089C38.9786 27.8223 38.9074 28.0978 38.6941 28.2134L37.8141 28.72C37.743 28.7645 37.6719 28.7823 37.5919 28.7823Z" fill="#2B70F9"/>
<path d="M35.9122 27.0933C35.8322 27.0933 35.7611 27.0756 35.69 27.0311C35.4767 26.9067 35.4055 26.64 35.53 26.4267L36.0366 25.5467C36.1611 25.3333 36.4278 25.2622 36.6411 25.3867C36.8544 25.5111 36.9255 25.7778 36.8011 25.9911L36.2944 26.8711C36.2144 27.0133 36.0633 27.0933 35.9122 27.0933Z" fill="#2B70F9"/>
<path d="M33.6007 26.48C33.3518 26.48 33.1562 26.2844 33.1562 26.0355V25.0222C33.1562 24.7733 33.3518 24.5778 33.6007 24.5778C33.8496 24.5778 34.0451 24.7733 34.0451 25.0222V26.0355C34.0451 26.2755 33.8496 26.48 33.6007 26.48Z" fill="#2B70F9"/>
<path d="M31.3017 27.0933C31.1506 27.0933 30.9995 27.0133 30.9195 26.8711L30.4128 25.9911C30.2884 25.7778 30.3595 25.5022 30.5728 25.3867C30.7861 25.2622 31.0617 25.3333 31.1772 25.5467L31.6839 26.4267C31.8084 26.64 31.7372 26.9156 31.5239 27.0311C31.4528 27.0756 31.3728 27.0933 31.3017 27.0933Z" fill="#2B70F9"/>
<path d="M29.6125 28.7823C29.5325 28.7823 29.4614 28.7645 29.3903 28.72L28.5103 28.2134C28.297 28.0889 28.2259 27.8223 28.3503 27.6089C28.4747 27.3956 28.7414 27.3245 28.9547 27.4489L29.8347 27.9556C30.0481 28.08 30.1192 28.3467 29.9947 28.56C29.9147 28.7023 29.7636 28.7823 29.6125 28.7823Z" fill="#2B70F9"/>
<path d="M28.9968 31.0844H27.9835C27.7346 31.0844 27.5391 30.8889 27.5391 30.64C27.5391 30.3911 27.7346 30.1956 27.9835 30.1956H28.9968C29.2457 30.1956 29.4413 30.3911 29.4413 30.64C29.4413 30.8889 29.2368 31.0844 28.9968 31.0844Z" fill="#2B70F9"/>
<path d="M28.7403 33.9023C28.5892 33.9023 28.4381 33.8223 28.3581 33.68C28.2337 33.4667 28.3048 33.1911 28.5181 33.0756L29.3981 32.5689C29.6114 32.4445 29.887 32.5156 30.0026 32.7289C30.127 32.9423 30.0559 33.2178 29.8426 33.3334L28.9626 33.84C28.8914 33.8756 28.8114 33.9023 28.7403 33.9023Z" fill="#2B70F9"/>
<path d="M30.795 35.9555C30.715 35.9555 30.6439 35.9377 30.5728 35.8933C30.3595 35.7689 30.2884 35.5022 30.4128 35.2889L30.9195 34.4089C31.0439 34.1955 31.3106 34.1244 31.5239 34.2489C31.7372 34.3733 31.8084 34.64 31.6839 34.8533L31.1772 35.7333C31.0972 35.8755 30.9461 35.9555 30.795 35.9555Z" fill="#2B70F9"/>
<path d="M33.5987 31.0844H30.6476C30.3987 31.0844 30.2031 30.8889 30.2031 30.64C30.2031 30.3911 30.3987 30.1956 30.6476 30.1956H33.1542V27.8578C33.1542 27.6089 33.3498 27.4133 33.5987 27.4133C33.8476 27.4133 34.0431 27.6089 34.0431 27.8578V30.64C34.0431 30.8889 33.8476 31.0844 33.5987 31.0844Z" fill="#2B70F9"/>
<path d="M20.0226 25.4667C19.7737 25.4667 19.5781 25.2711 19.5781 25.0222V19.3244C19.5781 19.0756 19.7737 18.88 20.0226 18.88C20.2715 18.88 20.467 19.0756 20.467 19.3244V25.0222C20.467 25.2711 20.2626 25.4667 20.0226 25.4667Z" fill="#2B70F9"/>
<path d="M33.6 25.4667C33.3511 25.4667 33.1556 25.2711 33.1556 25.0222V23.9022C33.1556 23.0311 32.4444 22.3111 31.5644 22.3111H8.47111C7.6 22.3111 6.88889 23.0222 6.88889 23.9022V25.0222C6.88889 25.2711 6.69333 25.4667 6.44444 25.4667C6.19556 25.4667 6 25.2711 6 25.0222V23.9022C6 22.5334 7.11111 21.4222 8.47111 21.4222H31.5644C32.9333 21.4222 34.0444 22.5334 34.0444 23.9022V25.0222C34.0444 25.2711 33.8489 25.4667 33.6 25.4667Z" fill="#2B70F9"/>
<path d="M20.0232 36.7111C16.6809 36.7111 13.9609 33.9911 13.9609 30.6489C13.9609 27.3067 16.6809 24.5867 20.0232 24.5867C23.3654 24.5867 26.0854 27.3067 26.0854 30.6489C26.0854 33.9911 23.3654 36.7111 20.0232 36.7111ZM20.0232 25.4667C17.1698 25.4667 14.8498 27.7867 14.8498 30.64C14.8498 33.4933 17.1698 35.8133 20.0232 35.8133C22.8765 35.8133 25.1965 33.4933 25.1965 30.64C25.1965 27.7867 22.8765 25.4667 20.0232 25.4667Z" fill="#2B70F9"/>
<path d="M6.44503 36.7111C3.10281 36.7111 0.382812 33.9911 0.382812 30.6489C0.382812 27.3067 3.10281 24.5867 6.44503 24.5867C9.78726 24.5867 12.5073 27.3067 12.5073 30.6489C12.5073 33.9911 9.78726 36.7111 6.44503 36.7111ZM6.44503 25.4667C3.5917 25.4667 1.2717 27.7867 1.2717 30.64C1.2717 33.4933 3.5917 35.8133 6.44503 35.8133C9.29837 35.8133 11.6184 33.4933 11.6184 30.64C11.6184 27.7867 9.29837 25.4667 6.44503 25.4667Z" fill="#2B70F9"/>
<path d="M33.6013 36.7111C30.2591 36.7111 27.5391 33.9911 27.5391 30.6489C27.5391 27.3067 30.2591 24.5867 33.6013 24.5867C36.9435 24.5867 39.6635 27.3067 39.6635 30.6489C39.6724 33.9911 36.9435 36.7111 33.6013 36.7111ZM33.6013 25.4667C30.748 25.4667 28.428 27.7867 28.428 30.64C28.428 33.4933 30.748 35.8133 33.6013 35.8133C36.4546 35.8133 38.7746 33.4933 38.7746 30.64C38.7835 27.7867 36.4546 25.4667 33.6013 25.4667Z" fill="#2B70F9"/>
<path d="M22.7837 35.9912C22.5348 35.9912 22.3392 35.7956 22.3392 35.5467V33.9912C22.3392 33.1023 21.8148 32.2845 21.0148 31.9023C20.7926 31.7956 20.6948 31.5289 20.8015 31.3067C20.9081 31.0845 21.1748 30.9956 21.397 31.0934C22.5081 31.6267 23.2281 32.7556 23.2281 33.9823V35.5378C23.2281 35.7867 23.0237 35.9912 22.7837 35.9912ZM17.2726 35.9912C17.0237 35.9912 16.8281 35.7956 16.8281 35.5467V33.9912C16.8281 32.7645 17.5481 31.6267 18.6592 31.1023C18.8815 30.9956 19.1481 31.0934 19.2548 31.3156C19.3615 31.5378 19.2637 31.8045 19.0415 31.9112C18.2326 32.2934 17.717 33.1112 17.717 34.0001V35.5556C17.717 35.7867 17.5126 35.9912 17.2726 35.9912Z" fill="#2B70F9"/>
<path d="M20.0266 32.2489C18.4799 32.2489 17.2266 30.9956 17.2266 29.4489C17.2266 27.9023 18.4799 26.6489 20.0266 26.6489C21.5732 26.6489 22.8266 27.9023 22.8266 29.4489C22.8266 30.9956 21.5643 32.2489 20.0266 32.2489ZM20.0266 27.5378C18.9688 27.5378 18.1155 28.3911 18.1155 29.4489C18.1155 30.5067 18.9688 31.36 20.0266 31.36C21.0755 31.36 21.9377 30.5067 21.9377 29.4489C21.9377 28.3911 21.0755 27.5378 20.0266 27.5378Z" fill="#2B70F9"/>
</svg>
