<?xml version="1.0" standalone="no"?>
<!DOCTYPE svg PUBLIC "-//W3C//DTD SVG 1.1//EN" "http://www.w3.org/Graphics/SVG/1.1/DTD/svg11.dtd" >
<svg xmlns="http://www.w3.org/2000/svg" xmlns:xlink="http://www.w3.org/1999/xlink" version="1.1">
<metadata>
Created by FontForge 20170731 at Sat Jul 29 00:23:34 2023
 By Aleksey,,,
(c) 2015-2020 Apple Inc. All rights reserved.
</metadata>
<defs>
<font id="SFProText-Thin" horiz-adv-x="1261" >
  <font-face 
    font-family="SF Pro Text"
    font-weight="200"
    font-stretch="normal"
    units-per-em="2048"
    panose-1="0 0 0 0 0 0 0 0 0 0"
    ascent="1638"
    descent="-410"
    x-height="1077"
    cap-height="1443"
    bbox="-297 -494 5082 1950"
    underline-thickness="61"
    underline-position="-459"
    unicode-range="U+0020-221A"
  />
<missing-glyph horiz-adv-x="2048" 
d="M100 1603v347h1848v-347h-1848zM100 1184v347h1848v-347h-1848zM100 764v347h1848v-347h-1848zM100 345v347h1848v-347h-1848zM100 -74v346h1848v-346h-1848zM100 -494v347h1848v-347h-1848z" />
    <glyph glyph-name="dblemdash" unicode="&#x2014;&#x2014;" horiz-adv-x="3448" 
d="M89 548v72h3270v-72h-3270z" />
    <glyph glyph-name="trplemdash" unicode="&#x2014;&#x2014;&#x2014;" horiz-adv-x="5171" 
d="M89 548v72h4993v-72h-4993z" />
    <glyph glyph-name=".notdef" horiz-adv-x="2048" 
d="M100 1603v347h1848v-347h-1848zM100 1184v347h1848v-347h-1848zM100 764v347h1848v-347h-1848zM100 345v347h1848v-347h-1848zM100 -74v346h1848v-346h-1848zM100 -494v347h1848v-347h-1848z" />
    <glyph glyph-name=".null" horiz-adv-x="0" 
 />
    <glyph glyph-name="nonmarkingreturn" horiz-adv-x="0" 
 />
    <glyph glyph-name="space" unicode=" " horiz-adv-x="520" 
 />
    <glyph glyph-name="exclamationmark" unicode="!" horiz-adv-x="590" 
d="M257 427l-4 1016h84l-4 -1016h-76zM295 -9q-34 0 -55.5 21.5t-21.5 55.5q0 33 21.5 54.5t55.5 21.5q33 0 54.5 -21.5t21.5 -54.5q0 -34 -21.5 -55.5t-54.5 -21.5z" />
    <glyph glyph-name="quotedbl" unicode="&#x22;" horiz-adv-x="841" 
d="M254 960l-8 483h81l-7 -483h-66zM521 960l-7 483h81l-7 -483h-67z" />
    <glyph glyph-name="numbersign" unicode="#" 
d="M268 0h-69l90 440h-266l13 67h267l89 436h-276l13 67h277l90 438h69l-90 -438h404l90 438h70l-90 -438h290l-14 -67h-290l-89 -436h299l-14 -67h-299l-90 -440h-70l90 440h-404zM372 507h404l89 436h-404z" />
    <glyph glyph-name="dollarsign" unicode="$" 
d="M601 -169v191q-201 8 -332.5 112t-138.5 269v2h78v-2q9 -134 115 -218t278 -92v615l-41 10q-197 46 -294.5 132t-97.5 220v2q0 148 124 244.5t309 104.5v173h63v-173q186 -8 310.5 -104t131.5 -243v-2h-78v2q-7 118 -108.5 193t-255.5 83v-580l65 -15
q204 -48 302.5 -135.5t98.5 -230.5v-2q0 -161 -129.5 -259.5t-336.5 -106.5v-190h-63zM575 791l26 -6v565q-155 -8 -255 -84t-100 -191v-2q0 -105 80.5 -174t248.5 -108zM713 682l-49 11v-600q180 6 284.5 85.5t104.5 205.5v2q0 113 -79.5 183.5t-260.5 112.5z" />
    <glyph glyph-name="percent" unicode="%" horiz-adv-x="1766" 
d="M393 733q-122 0 -192 97t-70 264v2q0 167 70 263.5t192 96.5t192 -97t70 -263v-2q0 -168 -70 -264.5t-192 -96.5zM439 0h-77l965 1443h77zM393 789q93 0 145.5 81.5t52.5 223.5v2q0 141 -52.5 222.5t-145.5 81.5t-146 -81.5t-53 -222.5v-2q0 -142 53 -223.5t146 -81.5z
M1373 -13q-122 0 -192 97t-70 264v1q0 167 70 264t192 97t192 -97.5t70 -263.5v-1q0 -168 -70 -264.5t-192 -96.5zM1373 43q93 0 145.5 81.5t52.5 223.5v1q0 142 -52.5 223.5t-145.5 81.5t-146 -82t-53 -223v-1q0 -142 53 -223.5t146 -81.5z" />
    <glyph glyph-name="ampersand" unicode="&#x26;" horiz-adv-x="1492" 
d="M586 -22q-201 0 -328.5 109t-127.5 278v2q0 234 281 381l98 51q-130 138 -174 211.5t-44 157.5v2q0 127 99.5 211.5t245.5 84.5q144 0 240.5 -84.5t96.5 -209.5v-2q0 -106 -80 -197.5t-270 -189.5l454 -473q121 174 121 418v73h76v-72q0 -281 -143 -475l243 -253v-1h-102
l-188 197q-98 -106 -229.5 -162.5t-268.5 -56.5zM368 1165q0 -73 41 -137.5t168 -196.5q171 85 245.5 166.5t74.5 170.5v2q0 95 -75.5 162t-185.5 67t-189 -67.5t-79 -164.5v-2zM209 367q0 -137 106.5 -228t275.5 -91q117 0 235 52.5t206 150.5l-474 497l-104 -55
q-245 -128 -245 -324v-2z" />
    <glyph glyph-name="quotesingle" unicode="'" horiz-adv-x="573" 
d="M254 960l-8 483h81l-7 -483h-66z" />
    <glyph glyph-name="parenleft" unicode="(" horiz-adv-x="710" 
d="M520 -353q-133 173 -203.5 419t-70.5 511q0 263 70.5 509.5t203.5 419.5h73q-122 -160 -195 -420t-73 -509q0 -251 73 -510t195 -420h-73z" />
    <glyph glyph-name="parenright" unicode=")" horiz-adv-x="710" 
d="M190 -353h-73q122 160 195 419.5t73 510.5q0 250 -73 509.5t-195 419.5h73q133 -173 203.5 -419.5t70.5 -509.5q0 -265 -70.5 -511t-203.5 -419z" />
    <glyph glyph-name="asterisk" unicode="*" horiz-adv-x="986" 
d="M463 782l4 280l-252 -143l-30 47l259 137l-259 136l30 47l252 -143l-4 281h61l-5 -280l252 142l30 -47l-259 -136l259 -137l-30 -47l-252 143l5 -280h-61z" />
    <glyph glyph-name="plus" unicode="+" 
d="M114 548v72h481v502h73v-502h480v-72h-480v-502h-73v502h-481z" />
    <glyph glyph-name="comma" unicode="," horiz-adv-x="573" 
d="M148 -326l96 483h93l-127 -483h-62z" />
    <glyph glyph-name="hyphen" unicode="-" horiz-adv-x="986" 
d="M163 548v72h660v-72h-660z" />
    <glyph glyph-name="period" unicode="." horiz-adv-x="573" 
d="M287 -6q-31 0 -52.5 21t-21.5 52t21.5 52.5t52.5 21.5t52.5 -21.5t21.5 -52.5t-21.5 -52t-52.5 -21z" />
    <glyph glyph-name="slash" unicode="/" horiz-adv-x="569" 
d="M569 1506l-494 -1859h-75l494 1859h75z" />
    <glyph glyph-name="zero" unicode="0" horiz-adv-x="1271" 
d="M635 -24q-235 0 -369.5 200t-134.5 544v3q0 345 134.5 544.5t369.5 199.5t370.5 -200.5t135.5 -543.5v-3q0 -345 -135.5 -544.5t-370.5 -199.5zM635 47q199 0 312.5 181t113.5 492v3q0 312 -113 492t-313 180q-198 0 -311.5 -181t-113.5 -491v-3q0 -311 113.5 -492
t311.5 -181z" />
    <glyph glyph-name="one" unicode="1" horiz-adv-x="855" 
d="M509 0v1353h-7l-380 -251v86l387 255h79v-1443h-79z" />
    <glyph glyph-name="two" unicode="2" horiz-adv-x="1203" 
d="M151 0v60l510 539q166 175 223.5 269.5t57.5 196.5v2q0 141 -100.5 235t-254.5 94q-155 0 -256.5 -95.5t-106.5 -244.5v-1h-77v1q4 179 129 295t315 116q184 0 308 -113t124 -282v-2q0 -117 -65.5 -226.5t-249.5 -301.5l-443 -462v-7h808v-73h-922z" />
    <glyph glyph-name="three" unicode="3" horiz-adv-x="1228" 
d="M615 -21q-205 0 -334 105t-150 270l-1 9h77l1 -8q21 -134 129 -219.5t278 -85.5q174 0 288.5 96.5t114.5 243.5v2q0 152 -113.5 237.5t-313.5 85.5h-164v70h161q164 0 268 85.5t104 219.5v2q0 132 -100 216.5t-256 84.5q-153 0 -252 -81.5t-111 -206.5l-1 -10h-77l1 10
q15 157 134.5 258t305.5 101q190 0 312.5 -103.5t122.5 -261.5v-2q0 -132 -83 -223t-226 -119v-4q167 -11 267.5 -108t100.5 -250v-2q0 -178 -137 -295t-346 -117z" />
    <glyph glyph-name="four" unicode="4" horiz-adv-x="1304" 
d="M875 0v361h-753v73q122 193 258.5 387t461.5 627h111v-1015h229v-72h-229v-361h-78zM211 433h664v931h-6q-315 -419 -434.5 -588.5t-223.5 -336.5v-6z" />
    <glyph glyph-name="five" unicode="5" horiz-adv-x="1240" 
d="M618 -24q-184 0 -316.5 105t-149.5 259l-1 9h78l1 -7q17 -124 128 -209t262 -85q178 0 295.5 116t117.5 292v2q0 174 -115.5 291t-287.5 117q-102 0 -189.5 -40.5t-147.5 -116.5q-28 -34 -42 -59h-76l85 793h759v-72h-693l-69 -620h7q58 86 158.5 136.5t215.5 50.5
q203 0 338 -136.5t135 -341.5v-2q0 -209 -140 -345.5t-353 -136.5z" />
    <glyph glyph-name="six" unicode="6" horiz-adv-x="1265" 
d="M657 -24q-114 0 -209 43.5t-166 127t-110.5 215.5t-39.5 300v2q0 376 143 589.5t389 213.5q175 0 295 -96t148 -247l2 -12h-79l-3 11q-26 120 -126 195.5t-238 75.5q-112 0 -199.5 -55t-142 -153t-82.5 -225.5t-30 -279.5v-57h8q37 139 161 230t286 91q204 0 340.5 -137
t136.5 -340v-2q0 -210 -138.5 -350t-345.5 -140zM241 483q0 -119 53 -218.5t148.5 -158t213.5 -58.5q171 0 288.5 120.5t117.5 296.5v2q0 173 -117 290t-290 117q-168 0 -291 -115.5t-123 -273.5v-2z" />
    <glyph glyph-name="seven" unicode="7" horiz-adv-x="1153" 
d="M264 0l692 1364v7h-837v72h920v-76l-685 -1367h-90z" />
    <glyph glyph-name="eight" unicode="8" horiz-adv-x="1276" 
d="M639 -21q-222 0 -362 115.5t-140 297.5v2q0 138 93.5 240.5t241.5 130.5v3q-128 30 -206 116.5t-78 205.5v2q0 163 126.5 267.5t324.5 104.5t324 -104.5t126 -267.5v-2q0 -119 -77.5 -205.5t-206.5 -116.5v-3q149 -28 242.5 -130.5t93.5 -240.5v-2q0 -182 -140 -297.5
t-362 -115.5zM639 799q162 0 266.5 80.5t104.5 205.5v2q0 132 -104 219t-267 87t-267.5 -87t-104.5 -219v-2q0 -125 104.5 -205.5t267.5 -80.5zM639 50q186 0 304 98t118 248v2q0 145 -117.5 236.5t-304.5 91.5t-304.5 -91.5t-117.5 -236.5v-2q0 -150 118 -248t304 -98z" />
    <glyph glyph-name="nine" unicode="9" horiz-adv-x="1265" 
d="M609 1467q113 0 208 -43.5t166 -127t110.5 -215.5t39.5 -300v-2q0 -376 -142.5 -589.5t-388.5 -213.5q-176 0 -296 96t-148 247l-2 12h79l3 -11q26 -120 126 -195.5t238 -75.5q112 0 199.5 55t142 153t82.5 225.5t30 279.5q2 28 0 57h-8q-37 -139 -161 -230t-286 -91
q-204 0 -340.5 137t-136.5 340v2q0 210 138.5 350t346.5 140zM610 569q168 0 291 115.5t123 273.5v2q0 119 -53 218.5t-148.5 158t-213.5 58.5q-171 0 -288.5 -120.5t-117.5 -296.5v-2q0 -173 117 -290t290 -117z" />
    <glyph glyph-name="colon" unicode=":" horiz-adv-x="573" 
d="M287 875q-31 0 -52.5 21.5t-21.5 52.5t21.5 52.5t52.5 21.5t52.5 -21.5t21.5 -52.5t-21.5 -52.5t-52.5 -21.5zM287 -6q-31 0 -52.5 21t-21.5 52t21.5 52.5t52.5 21.5t52.5 -21.5t21.5 -52.5t-21.5 -52t-52.5 -21z" />
    <glyph glyph-name="semicolon" unicode=";" horiz-adv-x="573" 
d="M287 875q-31 0 -52.5 21.5t-21.5 52.5t21.5 52.5t52.5 21.5t52.5 -21.5t21.5 -52.5t-21.5 -52.5t-52.5 -21.5zM148 -326l96 483h93l-127 -483h-62z" />
    <glyph glyph-name="less" unicode="&#x3c;" 
d="M144 545v78l973 444v-74l-901 -407l901 -406v-79z" />
    <glyph glyph-name="equal" unicode="=" 
d="M126 817v73h1009v-73h-1009zM126 279v72h1009v-72h-1009z" />
    <glyph glyph-name="greater" unicode="&#x3e;" 
d="M1117 623v-78l-973 -444v75l901 406l-901 407v78z" />
    <glyph glyph-name="questionmark" unicode="?" horiz-adv-x="979" 
d="M407 408v98q-1 99 42 167t153 144q104 73 146.5 137t42.5 148v2q0 124 -89 204.5t-223 80.5q-130 0 -218.5 -80.5t-100.5 -211.5l-1 -1l-76 -1l1 2q10 157 119.5 260t277.5 103q169 0 280 -101t111 -252v-2q0 -101 -50 -179t-163 -157q-102 -70 -138.5 -126.5
t-36.5 -144.5v-90h-77zM456 -9q-33 0 -55 21.5t-22 55.5q0 33 22 54.5t55 21.5t54.5 -21.5t21.5 -54.5q0 -34 -21.5 -55.5t-54.5 -21.5z" />
    <glyph glyph-name="at" unicode="@" horiz-adv-x="1858" 
d="M951 -230q-241 0 -428 105t-289.5 295t-102.5 436v2q0 237 104.5 425t292 293.5t423.5 105.5q174 0 322.5 -55.5t252.5 -154t163 -238.5t59 -304v-2q0 -239 -84 -373t-234 -134q-97 0 -160 52.5t-74 143.5l-1 8h-7q-37 -97 -107 -148t-165 -51q-155 0 -252.5 116.5
t-97.5 300.5v2q0 184 98 301t252 117q91 0 164.5 -51.5t102.5 -134.5h8v165h71v-560q0 -97 45 -147t131 -50q115 0 178.5 117t63.5 327v2q0 200 -92.5 357t-260 244t-380.5 87t-384 -98t-267.5 -272.5t-96.5 -391.5v-2q0 -226 94.5 -402t265.5 -273t392 -97q214 0 328 38
v-64q-117 -37 -328 -37zM923 243q121 0 194 98t73 260v2q0 159 -72 251.5t-195 92.5q-122 0 -202.5 -100.5t-80.5 -253.5v-2q0 -156 78 -252t205 -96z" />
    <glyph glyph-name="A" unicode="A" horiz-adv-x="1341" 
d="M80 0l550 1443h80l550 -1443h-85l-181 481h-649l-181 -481h-84zM666 1335l-294 -783h596l-294 783h-8z" />
    <glyph glyph-name="B" unicode="B" horiz-adv-x="1284" 
d="M187 0v1443h473q199 0 316.5 -96t117.5 -255v-2q0 -128 -77.5 -220.5t-206.5 -116.5v-6q155 -20 257.5 -116t102.5 -247v-2q0 -179 -129 -280.5t-378 -101.5h-476zM648 1371h-382v-593h369q173 0 276 81.5t103 221.5v2q0 132 -98.5 210t-267.5 78zM649 707h-383v-635h388
q216 0 325.5 82t109.5 230v2q0 149 -119.5 235t-320.5 86z" />
    <glyph glyph-name="C" unicode="C" horiz-adv-x="1441" 
d="M760 -24q-293 0 -463 200t-170 545v2q0 343 170.5 543.5t462.5 200.5q216 0 377.5 -135t186.5 -336l-1 -1l-79 -1v2q-26 169 -165 283t-319 114q-252 0 -402.5 -182.5t-150.5 -487.5v-2q0 -307 150 -489t403 -182q190 0 325.5 104t158.5 267l1 1l79 1v-2
q-23 -198 -179.5 -321.5t-384.5 -123.5z" />
    <glyph glyph-name="D" unicode="D" horiz-adv-x="1451" 
d="M187 0v1443h449q334 0 511 -192t177 -528v-2q0 -337 -176.5 -529t-511.5 -192h-449zM266 73h366q292 0 452 172.5t160 474.5v2q0 303 -160 475.5t-452 172.5h-366v-1297z" />
    <glyph glyph-name="E" unicode="E" horiz-adv-x="1166" 
d="M187 0v1443h841v-73h-762v-594h726v-72h-726v-631h762v-73h-841z" />
    <glyph glyph-name="F" unicode="F" horiz-adv-x="1132" 
d="M187 0v1443h830v-73h-751v-603h691v-72h-691v-695h-79z" />
    <glyph glyph-name="G" unicode="G" horiz-adv-x="1476" 
d="M751 -24q-283 0 -453.5 205t-170.5 547v1q0 337 170 537.5t454 200.5q219 0 372.5 -113.5t196.5 -310.5l2 -9h-79l-2 8q-45 168 -175 259.5t-315 91.5q-249 0 -396.5 -179.5t-147.5 -484.5v-1q0 -309 148.5 -493.5t395.5 -184.5q231 0 370 151.5t139 398.5v28h-502v71
h581v-96q0 -282 -161 -454.5t-427 -172.5z" />
    <glyph glyph-name="H" unicode="H" horiz-adv-x="1445" 
d="M187 0v1443h79v-666h913v666h79v-1443h-79v705h-913v-705h-79z" />
    <glyph glyph-name="I" unicode="I" horiz-adv-x="453" 
d="M187 0v1443h79v-1443h-79z" />
    <glyph glyph-name="J" unicode="J" horiz-adv-x="1070" 
d="M484 -24q-165 0 -270.5 95.5t-112.5 244.5l-1 6h80v-4q8 -116 92 -192t212 -76q151 0 235.5 90.5t84.5 251.5v1051h79v-1062q0 -187 -107.5 -296t-291.5 -109z" />
    <glyph glyph-name="K" unicode="K" horiz-adv-x="1260" 
d="M187 0v1443h79v-805h7l750 805h100l-581 -623l647 -820h-102l-601 765l-220 -236v-529h-79z" />
    <glyph glyph-name="L" unicode="L" horiz-adv-x="1106" 
d="M187 0v1443h79v-1370h757v-73h-836z" />
    <glyph glyph-name="M" unicode="M" horiz-adv-x="1724" 
d="M188 0v1443h89l581 -1340h8l581 1340h89v-1443h-76v1276h-7l-553 -1276h-76l-553 1276h-8v-1276h-75z" />
    <glyph glyph-name="N" unicode="N" horiz-adv-x="1460" 
d="M187 0v1443h82l918 -1297h7v1297h79v-1443h-75l-925 1304h-7v-1304h-79z" />
    <glyph glyph-name="O" unicode="O" horiz-adv-x="1537" 
d="M768 -24q-298 0 -469.5 200t-171.5 545v2q0 344 172.5 544t468.5 200q297 0 469.5 -200t172.5 -544v-2q0 -345 -172 -545t-470 -200zM768 50q257 0 409.5 182.5t152.5 488.5v2q0 306 -152.5 488t-409.5 182t-409 -182t-152 -488v-2q0 -306 152 -488.5t409 -182.5z" />
    <glyph glyph-name="P" unicode="P" horiz-adv-x="1234" 
d="M187 0v1443h469q210 0 337 -117t127 -312v-2q0 -195 -127 -312.5t-337 -117.5h-390v-582h-79zM643 1371h-377v-717h377q183 0 289.5 96t106.5 262v2q0 166 -106.5 261.5t-289.5 95.5z" />
    <glyph glyph-name="Q" unicode="Q" horiz-adv-x="1537" 
d="M769 -25q-297 0 -469.5 201.5t-172.5 544.5v2q0 341 173.5 542t467.5 201q296 0 469 -201t173 -542v-2q0 -223 -75.5 -390t-215.5 -258l183 -251h-91l-156 214q-127 -61 -286 -61zM769 49q131 0 239 51l-197 271h91l171 -235q123 83 190 234t67 351v2q0 306 -152 487.5
t-410 181.5q-257 0 -409 -181.5t-152 -487.5v-2q0 -307 152 -489.5t410 -182.5z" />
    <glyph glyph-name="R" unicode="R" horiz-adv-x="1271" 
d="M187 0v1443h471q215 0 339 -110.5t124 -300.5v-2q0 -155 -88.5 -261t-245.5 -138l371 -631h-93l-362 619q-25 -3 -52 -3h-385v-616h-79zM266 689h387q182 0 285 90t103 249v2q0 159 -104 250t-286 91h-385v-682z" />
    <glyph glyph-name="S" unicode="S" horiz-adv-x="1255" 
d="M638 -24q-216 0 -360.5 108t-161.5 279l-1 11h79l1 -11q14 -135 140.5 -224t306.5 -89q182 0 299.5 92.5t117.5 231.5v1q0 114 -88 191.5t-276 121.5l-132 31q-217 51 -314 137t-97 225v2q1 163 135.5 273.5t338.5 110.5q201 0 335 -101t149 -251l1 -10h-79l-2 9
q-15 119 -127 199t-279 80t-279 -89t-112 -220v-2q0 -108 82.5 -176t267.5 -111l133 -31q222 -52 323 -144.5t101 -237.5v-2q0 -177 -140 -290.5t-362 -113.5z" />
    <glyph glyph-name="T" unicode="T" horiz-adv-x="1256" 
d="M589 0v1370h-509v73h1096v-73h-508v-1370h-79z" />
    <glyph glyph-name="U" unicode="U" horiz-adv-x="1451" 
d="M725 -24q-248 0 -393.5 142.5t-145.5 379.5v945h80v-941q0 -208 123.5 -330t335.5 -122q214 0 337 122t123 330v941h80v-945q0 -238 -145.5 -380t-394.5 -142z" />
    <glyph glyph-name="V" unicode="V" horiz-adv-x="1341" 
d="M631 0l-550 1443h84l502 -1335h7l502 1335h85l-550 -1443h-80z" />
    <glyph glyph-name="W" unicode="W" horiz-adv-x="1922" 
d="M505 0l-403 1443h82l354 -1305h7l379 1305h74l379 -1305h6l355 1305h82l-403 -1443h-70l-383 1293h-6l-383 -1293h-70z" />
    <glyph glyph-name="X" unicode="X" horiz-adv-x="1334" 
d="M101 0l515 721v4l-513 718h95l468 -657h5l469 657h92l-516 -720v-4l513 -719h-95l-467 655h-5l-469 -655h-92z" />
    <glyph glyph-name="Y" unicode="Y" horiz-adv-x="1289" 
d="M605 0v629l-524 814h92l468 -731h8l467 731h92l-523 -814v-629h-80z" />
    <glyph glyph-name="Z" unicode="Z" horiz-adv-x="1292" 
d="M131 0v62l923 1301v7h-894v73h997v-62l-921 -1301v-7h925v-73h-1030z" />
    <glyph glyph-name="bracketleft" unicode="[" horiz-adv-x="710" 
d="M262 -353v1859h364v-65h-289v-1728h300v-66h-375z" />
    <glyph glyph-name="backslash" unicode="\" horiz-adv-x="569" 
d="M75 1506l494 -1859h-75l-494 1859h75z" />
    <glyph glyph-name="bracketright" unicode="]" horiz-adv-x="710" 
d="M448 -353h-375v66h300v1728h-289v65h364v-1859z" />
    <glyph glyph-name="asciicircum" unicode="^" 
d="M248 851h-85l432 592h71l432 -592h-85l-382 526z" />
    <glyph glyph-name="underscore" unicode="_" horiz-adv-x="1189" 
d="M0 -173v73h1189v-73h-1189z" />
    <glyph glyph-name="grave" unicode="`" horiz-adv-x="1024" 
d="M586 1231l-222 315h94l202 -315h-74z" />
    <glyph glyph-name="a" unicode="a" horiz-adv-x="1118" 
d="M476 -17q-159 0 -259 85t-100 223v2q0 136 98 214t284 92l371 28v105q0 141 -81 216t-226 75q-129 0 -216 -55t-109 -156v-2h-78v3q22 130 132 205t273 75q179 0 280.5 -94t101.5 -266v-733h-77v220h-8q-44 -109 -148 -173t-238 -64zM195 292q0 -107 81 -173t210 -66
q161 0 272.5 101t111.5 247v160l-359 -27q-156 -12 -236 -73t-80 -167v-2z" />
    <glyph glyph-name="b" unicode="b" horiz-adv-x="1245" 
d="M668 -17q-139 0 -245 77.5t-150 210.5h-8v-271h-77v1506h77v-692h8q45 128 151.5 203.5t243.5 75.5q204 0 329 -152t125 -400v-2q0 -248 -126 -402t-328 -154zM657 54q174 0 280 133.5t106 351.5v2q0 218 -105.5 350t-280.5 132t-284 -134t-109 -348v-2
q0 -216 109.5 -350.5t283.5 -134.5z" />
    <glyph glyph-name="c" unicode="c" horiz-adv-x="1144" 
d="M598 -17q-218 0 -346.5 151t-128.5 407v2q0 252 128.5 401t346.5 149q167 0 284 -88t144 -228l-1 -1l-77 -1l-1 2q-29 111 -123.5 178.5t-225.5 67.5q-181 0 -288.5 -130.5t-107.5 -349.5v-2q0 -222 107.5 -354.5t288.5 -132.5q133 0 226 62.5t121 170.5l2 3l77 1l-1 -5
q-30 -139 -142.5 -221t-282.5 -82z" />
    <glyph glyph-name="d" unicode="d" horiz-adv-x="1252" 
d="M584 -17q-205 0 -333 154.5t-128 399.5v2q0 245 128.5 399.5t332.5 154.5q136 0 243 -76t153 -204h7v693h77v-1506h-77v271h-7q-45 -133 -151 -210.5t-245 -77.5zM595 54q175 0 284 134t109 349v2q0 215 -109 349.5t-284 134.5t-284 -134.5t-109 -349.5v-2
q0 -215 109 -349t284 -134z" />
    <glyph glyph-name="e" unicode="e" horiz-adv-x="1179" 
d="M604 -17q-221 0 -351 149.5t-130 402.5v2q0 255 128.5 405.5t342.5 150.5q211 0 336.5 -146t125.5 -384v-39h-854q2 -217 111.5 -343.5t291.5 -126.5q126 0 220 53t128 136l3 6h79l-3 -8q-39 -113 -154 -185.5t-274 -72.5zM594 1023q-168 0 -275.5 -116t-116.5 -316h777
q-9 202 -113.5 317t-271.5 115z" />
    <glyph glyph-name="f" unicode="f" horiz-adv-x="688" 
d="M251 0v1009h-179v68h179v161q0 135 66.5 206t191.5 71q49 0 92 -6v-66q-33 5 -81 5q-93 0 -142.5 -55t-49.5 -156v-160h262v-68h-262v-1009h-77z" />
    <glyph glyph-name="g" unicode="g" horiz-adv-x="1235" 
d="M605 -370q-170 0 -283.5 69.5t-136.5 184.5l1 1h80l1 -1q23 -83 115 -133t225 -50q170 0 271.5 87t101.5 232v272h-7q-44 -130 -148 -203t-245 -73q-205 0 -331 148.5t-126 387.5v2q0 240 126.5 389.5t331.5 149.5q138 0 244.5 -78.5t147.5 -210.5h7v273h77v-1067
q0 -170 -124.5 -275t-327.5 -105zM591 86q177 0 283.5 127t106.5 334v2q0 209 -108 341.5t-282 132.5q-175 0 -282 -130t-107 -338v-2q0 -208 107 -337.5t282 -129.5z" />
    <glyph glyph-name="h" unicode="h" horiz-adv-x="1199" 
d="M188 0v1506h77v-655h8q47 115 145 178.5t231 63.5q179 0 279.5 -103t100.5 -286v-704h-78v683q0 164 -81.5 252t-234.5 88q-161 0 -265.5 -107.5t-104.5 -273.5v-642h-77z" />
    <glyph glyph-name="i" unicode="i" horiz-adv-x="450" 
d="M225 1320q-28 0 -47.5 19.5t-19.5 47.5t19.5 48t47.5 20t48 -20t20 -48t-20 -47.5t-48 -19.5zM186 0v1077h78v-1077h-78z" />
    <glyph glyph-name="j" unicode="j" horiz-adv-x="450" 
d="M225 1320q-28 0 -48 19.5t-20 47.5t20 48t48 20t47.5 -20t19.5 -48t-19.5 -47.5t-47.5 -19.5zM-3 -363h-18v71h16q99 0 145 47.5t46 152.5v1169h77v-1165q0 -144 -67 -209.5t-199 -65.5z" />
    <glyph glyph-name="k" unicode="k" horiz-adv-x="1065" 
d="M188 0v1506h77v-979h8l602 550h101l-505 -461l515 -616h-100l-473 566l-148 -137v-429h-77z" />
    <glyph glyph-name="l" unicode="l" horiz-adv-x="453" 
d="M188 0v1506h77v-1506h-77z" />
    <glyph glyph-name="m" unicode="m" horiz-adv-x="1760" 
d="M178 0v1077h77v-226h8q34 111 120.5 176.5t200.5 65.5q118 0 201 -64.5t115 -179.5h7q39 112 131.5 178t213.5 66q159 0 248.5 -97t89.5 -269v-727h-78v709q0 149 -72 231.5t-204 82.5q-140 0 -227 -99t-87 -254v-670h-77v707q0 142 -76.5 229t-201.5 87
q-131 0 -221.5 -107.5t-90.5 -264.5v-651h-77z" />
    <glyph glyph-name="n" unicode="n" horiz-adv-x="1189" 
d="M178 0v1077h77v-226h8q47 115 145 178.5t231 63.5q179 0 279.5 -103t100.5 -286v-704h-78v683q0 164 -81 252t-235 88q-161 0 -265.5 -107.5t-104.5 -273.5v-642h-77z" />
    <glyph glyph-name="o" unicode="o" horiz-adv-x="1206" 
d="M603 -17q-220 0 -350 150t-130 404v2q0 255 130 404.5t350 149.5t350 -149.5t130 -404.5v-2q0 -254 -130 -404t-350 -150zM603 54q184 0 292.5 131t108.5 352v2q0 221 -108.5 352.5t-292.5 131.5t-292.5 -131t-108.5 -353v-2q0 -221 108.5 -352t292.5 -131z" />
    <glyph glyph-name="p" unicode="p" horiz-adv-x="1236" 
d="M178 -353v1430h77v-272h8q44 133 150 210.5t245 77.5q205 0 333 -154t128 -399v-2q0 -246 -128.5 -400.5t-332.5 -154.5q-136 0 -243 76t-152 205h-8v-617h-77zM647 54q175 0 284 134t109 349v2q0 215 -109 349.5t-284 134.5t-284 -134.5t-109 -349.5v-2
q0 -215 109.5 -349t283.5 -134z" />
    <glyph glyph-name="q" unicode="q" horiz-adv-x="1235" 
d="M980 -353v614h-7q-46 -128 -152 -203t-244 -75q-202 0 -328 153.5t-126 400.5v2q0 248 125.5 401t328.5 153q138 0 244 -78.5t153 -211.5h6v274h78v-1430h-78zM588 54q174 0 284 134.5t110 348.5v2q0 215 -109.5 349.5t-284.5 134.5q-174 0 -280 -133.5t-106 -350.5v-2
q0 -218 106 -350.5t280 -132.5z" />
    <glyph glyph-name="r" unicode="r" horiz-adv-x="743" 
d="M178 0v1077h77v-201h8q33 102 112 159.5t187 57.5q70 0 120 -15v-77q-60 19 -125 19q-129 0 -215.5 -98t-86.5 -245v-677h-77z" />
    <glyph glyph-name="s" unicode="s" horiz-adv-x="1040" 
d="M530 -17q-172 0 -283.5 75.5t-130.5 205.5h80q22 -99 111.5 -156t224.5 -57q131 0 222.5 65.5t91.5 162.5v2q0 88 -63.5 139t-208.5 85l-126 29q-151 35 -223 98.5t-72 169.5v2q0 124 109 206.5t263 82.5q153 0 257.5 -73t123.5 -194h-76q-18 90 -101.5 144.5
t-203.5 54.5t-206.5 -63t-86.5 -156v-2q0 -78 59.5 -125.5t186.5 -76.5l126 -30q166 -39 243 -105t77 -181v-2q0 -130 -113.5 -215.5t-280.5 -85.5z" />
    <glyph glyph-name="t" unicode="t" horiz-adv-x="696" 
d="M497 -7q-137 0 -197 61t-60 198v757h-177v68h177v280h79v-280h261v-68h-261v-745q0 -106 43 -153t143 -47q31 0 75 4v-68q-47 -7 -83 -7z" />
    <glyph glyph-name="u" unicode="u" horiz-adv-x="1189" 
d="M558 -17q-178 0 -283 106t-105 284v704h78v-683q0 -158 86.5 -249t237.5 -91q162 0 261.5 105.5t99.5 274.5v643h78v-1077h-78v223h-7q-39 -112 -136.5 -176t-231.5 -64z" />
    <glyph glyph-name="v" unicode="v" horiz-adv-x="1035" 
d="M471 0l-406 1077h83l366 -997h7l366 997h83l-406 -1077h-93z" />
    <glyph glyph-name="w" unicode="w" horiz-adv-x="1539" 
d="M374 0l-309 1077h78l275 -985h7l299 985h88l299 -985h7l278 985h78l-313 -1077h-91l-299 974h-7l-298 -974h-92z" />
    <glyph glyph-name="x" unicode="x" horiz-adv-x="1012" 
d="M67 0l395 545l-396 532h95l342 -469h8l341 469h92l-394 -530l396 -547h-94l-344 484h-7l-343 -484h-91z" />
    <glyph glyph-name="y" unicode="y" horiz-adv-x="1036" 
d="M230 -365q-14 0 -36 2v67q10 -1 33 -1q78 0 126.5 39.5t85.5 139.5l38 103l-412 1092h84l365 -997h9l365 997h83l-456 -1207q-49 -130 -112 -182.5t-173 -52.5z" />
    <glyph glyph-name="z" unicode="z" horiz-adv-x="1052" 
d="M124 0v65l710 937v7h-710v68h803v-66l-711 -936v-7h712v-68h-804z" />
    <glyph glyph-name="braceleft" unicode="{" horiz-adv-x="710" 
d="M587 -353q-150 0 -218.5 73t-68.5 237v344q0 125 -48.5 174t-178.5 49v113q131 0 179 49t48 176v340q0 162 68 233t219 71h50v-67h-46q-112 0 -164 -54.5t-52 -186.5v-377q0 -113 -52 -168.5t-174 -61.5v-20q122 -5 174 -60.5t52 -168.5v-378q0 -133 54 -191.5t162 -58.5
h46v-67h-50z" />
    <glyph glyph-name="bar" unicode="|" horiz-adv-x="446" 
d="M187 -353v1796h73v-1796h-73z" />
    <glyph glyph-name="braceright" unicode="}" horiz-adv-x="710" 
d="M123 -353h-50v67h46q108 0 162 58.5t54 191.5v378q0 113 52 168.5t174 60.5v20q-122 6 -174 61.5t-52 168.5v377q0 132 -52 186.5t-164 54.5h-46v67h50q151 0 219 -71t68 -233v-340q0 -127 48 -176t179 -49v-113q-130 0 -178.5 -49t-48.5 -174v-344q0 -164 -68.5 -237
t-218.5 -73z" />
    <glyph glyph-name="asciitilde" unicode="~" 
d="M878 464q-58 0 -129 26t-127 56.5t-124.5 56.5t-123.5 26q-79 0 -137.5 -32t-110.5 -91v75q101 118 257 118q58 0 129 -26t127 -56.5t125 -56.5t123 -26q140 0 248 122v-74q-98 -118 -257 -118z" />
    <glyph glyph-name="copyright" unicode="&#xa9;" horiz-adv-x="1759" 
d="M1632 726v-9q0 -206 -99 -378t-271 -271t-378 -99h-9q-206 0 -378 99t-271 271t-99 378v9q0 206 99 378t271 271t378 99h9q206 0 378 -99t271 -271t99 -378zM1570 726q0 94 -24.5 183.5t-68 164.5t-107 138.5t-138.5 107t-164.5 68t-183.5 24.5h-9q-94 0 -183.5 -24.5
t-164.5 -68t-138.5 -107t-107 -138.5t-68 -164.5t-24.5 -183.5v-9q0 -94 24.5 -183.5t68 -164.5t107 -138.5t138.5 -107t164.5 -68t183.5 -24.5h9q94 0 183.5 24.5t164.5 68t138.5 107t107 138.5t68 164.5t24.5 183.5v9zM894 378q-143 0 -226 92t-83 251v1q0 158 83 250.5
t226 92.5q109 0 188 -63.5t91 -160.5l-1 -1l-61 -1l-1 2q-12 71 -73.5 118t-142.5 47q-112 0 -178 -77t-66 -207v-1q0 -130 66 -207t178 -77q84 0 144.5 43t71.5 111l1 2h62v-2q-11 -95 -88 -154t-191 -59z" />
    <glyph glyph-name="guillemetleft" unicode="&#xab;" horiz-adv-x="1283" 
d="M564 155l-371 410v5l371 409h94l-365 -407v-9l365 -408h-94zM935 155l-370 410v5l370 409h95l-366 -407v-9l366 -408h-95z" />
    <glyph glyph-name="registered" unicode="&#xae;" horiz-adv-x="1290" 
d="M1164 952v-7q0 -106 -40.5 -201.5t-109 -164t-164 -109t-201.5 -40.5h-7q-142 0 -260.5 68t-186.5 186.5t-68 260.5v7q0 142 68 260.5t186.5 186.5t260.5 68h7q106 0 201.5 -40.5t164 -109t109 -164t40.5 -201.5zM1102 952q0 190 -131 321.5t-322 131.5h-7
q-191 0 -322.5 -131.5t-131.5 -321.5v-7q0 -191 132 -322.5t322 -131.5h7q190 0 321.5 131.5t131.5 322.5v7zM451 670v557h208q91 0 142.5 -45t51.5 -122q0 -58 -33.5 -99.5t-92.5 -56.5l142 -234h-69l-135 224h-153v-224h-61zM511 944h142q65 0 101.5 30.5t36.5 84.5
q0 53 -37.5 84t-101.5 31h-141v-230z" />
    <glyph glyph-name="degree" unicode="&#xb0;" horiz-adv-x="986" 
d="M493 798q-128 0 -216.5 88.5t-88.5 215.5v2q0 127 88.5 215.5t216.5 88.5t216.5 -88.5t88.5 -215.5v-2q0 -126 -88.5 -215t-216.5 -89zM493 864q98 0 166 70.5t68 167.5v2q0 98 -68.5 167.5t-165.5 69.5q-98 0 -166 -69.5t-68 -167.5v-2q0 -98 68 -168t166 -70z" />
    <glyph glyph-name="plusminus" unicode="&#xb1;" 
d="M596 131v471h-439v73h439v470h71v-470h437v-73h-437v-471h-71zM157 22v63h947v-63h-947z" />
    <glyph glyph-name="guillemetright" unicode="&#xbb;" horiz-adv-x="1283" 
d="M719 979l371 -409v-5l-371 -410h-94l365 408v9l-365 407h94zM348 979l370 -409v-5l-370 -410h-95l366 408v9l-366 407h95z" />
    <glyph glyph-name="divide" unicode="&#xf7;" 
d="M632 907q-28 0 -47.5 19t-19.5 47q0 29 19.5 48t47.5 19t47 -19.5t19 -47.5t-19 -47t-47 -19zM95 548v72h1072v-72h-1072zM631 128q-28 0 -47 19.5t-19 47.5t19 47t47 19t47.5 -19t19.5 -47q0 -29 -19 -48t-48 -19z" />
    <glyph glyph-name="ka.cyrl" unicode="&#x43a;" horiz-adv-x="1071" 
d="M316 512h-51v-512h-77v1077h77v-501h51l532 501h100l-564 -529l593 -548h-106z" />
    <glyph glyph-name="Io.cyrl" unicode="&#x401;" horiz-adv-x="1186" 
d="M429 1680q-25 0 -42.5 18t-17.5 43t17.5 42.5t42.5 17.5t43 -17.5t18 -42.5t-18 -43t-43 -18zM807 1680q-25 0 -43 18t-18 43t18 42.5t43 17.5t42.5 -17.5t17.5 -42.5t-17.5 -43t-42.5 -18zM197 0v1443h841v-73h-762v-594h726v-72h-726v-631h762v-73h-841z" />
    <glyph glyph-name="A.cyrl" unicode="&#x410;" horiz-adv-x="1361" 
d="M90 0l550 1443h80l550 -1443h-85l-181 481h-649l-181 -481h-84zM676 1335l-294 -783h596l-294 783h-8z" />
    <glyph glyph-name="Be.cyrl" unicode="&#x411;" horiz-adv-x="1256" 
d="M197 0v1443h811v-73h-732v-540h391q211 0 337.5 -113t126.5 -301v-2q0 -188 -126.5 -301t-336.5 -113h-471zM276 73h379q182 0 288.5 91.5t107.5 249.5v2q0 157 -107 249t-289 92h-379v-684z" />
    <glyph glyph-name="Ve.cyrl" unicode="&#x412;" horiz-adv-x="1304" 
d="M197 0v1443h473q199 0 316.5 -96t117.5 -255v-2q0 -128 -77.5 -220.5t-206.5 -116.5v-6q155 -20 257.5 -116t102.5 -247v-2q0 -179 -129 -280.5t-378 -101.5h-476zM658 1371h-382v-593h369q173 0 276 81.5t103 221.5v2q0 132 -98.5 210t-267.5 78zM659 707h-383v-635h388
q216 0 325.5 82t109.5 230v2q0 149 -119.5 235t-320.5 86z" />
    <glyph glyph-name="Ghe.cyrl" unicode="&#x413;" horiz-adv-x="1143" 
d="M276 0h-79v1443h824v-73h-745v-1370z" />
    <glyph glyph-name="De.cyrl" unicode="&#x414;" horiz-adv-x="1462" 
d="M116 -286h-76v359h102q78 39 116 152.5t52 329.5l56 888h832v-1370h187v-359h-75v286h-1194v-286zM387 550q-12 -201 -43 -308t-86 -160v-9h861v1297h-679z" />
    <glyph glyph-name="Ie.cyrl" unicode="&#x415;" horiz-adv-x="1186" 
d="M197 0v1443h841v-73h-762v-594h726v-72h-726v-631h762v-73h-841z" />
    <glyph glyph-name="Zhe.cyrl" unicode="&#x416;" horiz-adv-x="1923" 
d="M1001 776h54l626 667h102l-664 -697l727 -746h-108l-683 704h-54v-704h-80v704h-54l-683 -704h-107l726 744l-667 699h105l626 -667h54v667h80v-667z" />
    <glyph glyph-name="Ze.cyrl" unicode="&#x417;" horiz-adv-x="1234" 
d="M412 711v73h172q181 0 286 84.5t105 223.5v2q0 128 -98.5 213.5t-263.5 85.5q-151 0 -253.5 -80.5t-116.5 -206.5l-1 -9h-78l1 13q15 157 138.5 257t311.5 100q195 0 317.5 -106t122.5 -263v-2q0 -129 -83 -220t-229 -120v-7q168 -13 269 -110t101 -248v-2
q0 -176 -143.5 -294.5t-365.5 -118.5q-203 0 -341.5 106.5t-149.5 263.5l-1 15h79l1 -13q10 -124 127.5 -211t285.5 -87q188 0 308 97t120 244v2q0 149 -116 233.5t-330 84.5h-175z" />
    <glyph glyph-name="Ii.cyrl" unicode="&#x418;" horiz-adv-x="1480" 
d="M197 0v1443h79v-1307h7l922 1307h78v-1443h-79v1305h-7l-922 -1305h-78z" />
    <glyph glyph-name="Iishort.cyrl" unicode="&#x419;" horiz-adv-x="1480" 
d="M742 1613q-122 0 -194.5 67.5t-72.5 179.5h72q0 -86 52.5 -137t142.5 -51t142 51t52 137h72q0 -112 -72 -179.5t-194 -67.5zM197 0v1443h79v-1307h7l922 1307h78v-1443h-79v1305h-7l-922 -1305h-78z" />
    <glyph glyph-name="Ka.cyrl" unicode="&#x41a;" horiz-adv-x="1283" 
d="M276 0h-79v1443h79v-671h54l703 671h106l-737 -698l805 -745h-110l-767 708h-54v-708z" />
    <glyph glyph-name="El.cyrl" unicode="&#x41b;" horiz-adv-x="1379" 
d="M95 -10q-32 0 -59 9v73q27 -8 54 -8q56 0 96 31t64.5 89t37 128.5t18.5 163.5l58 967h818v-1443h-79v1370h-665l-54 -901q-7 -108 -23.5 -189.5t-48.5 -149.5t-86.5 -104t-130.5 -36z" />
    <glyph glyph-name="Em.cyrl" unicode="&#x41c;" horiz-adv-x="1744" 
d="M198 0v1443h89l581 -1340h8l581 1340h89v-1443h-76v1276h-7l-553 -1276h-76l-553 1276h-8v-1276h-75z" />
    <glyph glyph-name="En.cyrl" unicode="&#x41d;" horiz-adv-x="1465" 
d="M197 0v1443h79v-666h913v666h79v-1443h-79v705h-913v-705h-79z" />
    <glyph glyph-name="O.cyrl" unicode="&#x41e;" horiz-adv-x="1557" 
d="M778 -24q-298 0 -469.5 200t-171.5 545v2q0 344 172.5 544t468.5 200q297 0 469.5 -200t172.5 -544v-2q0 -345 -172 -545t-470 -200zM778 50q257 0 409.5 182.5t152.5 488.5v2q0 306 -152.5 488t-409.5 182t-409 -182t-152 -488v-2q0 -306 152 -488.5t409 -182.5z" />
    <glyph glyph-name="Pe.cyrl" unicode="&#x41f;" horiz-adv-x="1452" 
d="M1255 0h-79v1370h-900v-1370h-79v1443h1058v-1443z" />
    <glyph glyph-name="Er.cyrl" unicode="&#x420;" horiz-adv-x="1254" 
d="M197 0v1443h469q210 0 337 -117t127 -312v-2q0 -195 -127 -312.5t-337 -117.5h-390v-582h-79zM653 1371h-377v-717h377q183 0 289.5 96t106.5 262v2q0 166 -106.5 261.5t-289.5 95.5z" />
    <glyph glyph-name="Es.cyrl" unicode="&#x421;" horiz-adv-x="1461" 
d="M770 -24q-293 0 -463 200t-170 545v2q0 343 170.5 543.5t462.5 200.5q216 0 377.5 -135t186.5 -336l-1 -1l-79 -1v2q-26 169 -165 283t-319 114q-252 0 -402.5 -182.5t-150.5 -487.5v-2q0 -307 150 -489t403 -182q190 0 325.5 104t158.5 267l1 1l79 1v-2
q-23 -198 -179.5 -321.5t-384.5 -123.5z" />
    <glyph glyph-name="Te.cyrl" unicode="&#x422;" horiz-adv-x="1276" 
d="M599 0v1370h-509v73h1096v-73h-508v-1370h-79z" />
    <glyph glyph-name="U.cyrl" unicode="&#x423;" horiz-adv-x="1259" 
d="M324 -10q-39 0 -69 10v73q25 -9 69 -9q89 0 151 70.5t127 210.5l-511 1098h89l461 -1004h8l435 1004h84l-467 -1062q-25 -56 -42 -93t-41.5 -82.5t-45.5 -74t-49 -58t-56.5 -46t-65 -27t-77.5 -10.5z" />
    <glyph glyph-name="Ef.cyrl" unicode="&#x424;" horiz-adv-x="1633" 
d="M778 -13v158q-303 2 -480 156.5t-177 420.5v2q0 266 177.5 420.5t479.5 156.5v155h78v-155q302 -2 479 -157t177 -420v-2q0 -266 -177 -420.5t-479 -156.5v-158h-78zM201 722q0 -230 156.5 -366.5t420.5 -138.5v1012q-264 -2 -420.5 -139t-156.5 -366v-2zM856 1229v-1012
q262 2 419 138.5t157 366.5v2q0 229 -156.5 366t-419.5 139z" />
    <glyph glyph-name="Ha.cyrl" unicode="&#x425;" horiz-adv-x="1354" 
d="M111 0l515 721v4l-513 718h95l468 -657h5l469 657h92l-516 -720v-4l513 -719h-95l-467 655h-5l-469 -655h-92z" />
    <glyph glyph-name="Tse.cyrl" unicode="&#x426;" horiz-adv-x="1521" 
d="M1369 -285v285h-1172v1443h79v-1370h900v1370h79v-1370h188v-358h-74z" />
    <glyph glyph-name="Che.cyrl" unicode="&#x427;" horiz-adv-x="1329" 
d="M1052 0v690h-5q-56 -45 -159 -79.5t-233 -34.5q-232 0 -367 131t-135 347v389h79v-384q0 -191 115.5 -300t307.5 -109q144 0 244 39t153 88v666h80v-1443h-80z" />
    <glyph glyph-name="Sha.cyrl" unicode="&#x428;" horiz-adv-x="1888" 
d="M197 0v1443h79v-1370h629v1370h79v-1370h628v1370h80v-1443h-1495z" />
    <glyph glyph-name="Shcha.cyrl" unicode="&#x429;" horiz-adv-x="1956" 
d="M197 0v1443h79v-1370h629v1370h79v-1370h628v1370h80v-1370h187v-358h-74v285h-1608z" />
    <glyph glyph-name="Hardsign.cyrl" unicode="&#x42a;" horiz-adv-x="1532" 
d="M478 0v1370h-396v73h475v-588h387q210 0 337 -116.5t127 -309.5v-2q0 -194 -126.5 -310.5t-337.5 -116.5h-466zM931 783h-374v-710h374q183 0 289.5 95t106.5 259v2q0 163 -107 258.5t-289 95.5z" />
    <glyph glyph-name="Yeru.cyrl" unicode="&#x42b;" horiz-adv-x="1676" 
d="M197 0v1443h79v-588h387q211 0 337.5 -116.5t126.5 -309.5v-2q0 -194 -126.5 -310.5t-337.5 -116.5h-466zM1400 0v1443h79v-1443h-79zM650 783h-374v-710h374q184 0 290.5 95t106.5 259v2q0 163 -107 258.5t-290 95.5z" />
    <glyph glyph-name="Softsign.cyrl" unicode="&#x42c;" horiz-adv-x="1251" 
d="M197 0v1443h79v-588h387q211 0 337.5 -116.5t126.5 -309.5v-2q0 -194 -126.5 -310.5t-337.5 -116.5h-466zM650 783h-374v-710h374q184 0 290.5 95t106.5 259v2q0 163 -107 258.5t-290 95.5z" />
    <glyph glyph-name="E.cyrl" unicode="&#x42d;" horiz-adv-x="1471" 
d="M696 -24q-227 0 -386.5 123.5t-181.5 313.5l-1 9h80l1 -8q25 -160 161.5 -262t326.5 -102q251 0 402 177.5t155 477.5h-736v72h735q-14 283 -164 449.5t-392 166.5q-181 0 -320 -111.5t-168 -278.5l-1 -8h-80l1 7q27 199 189.5 332t378.5 133q294 0 466 -200.5
t172 -543.5v-2q0 -345 -171.5 -545t-466.5 -200z" />
    <glyph glyph-name="Iu.cyrl" unicode="&#x42e;" horiz-adv-x="1972" 
d="M197 0v1443h79v-666h312q14 321 180.5 505.5t442.5 184.5q289 0 456.5 -200t167.5 -544v-2q0 -345 -167 -545t-457 -200q-286 0 -452.5 195.5t-171.5 533.5h-311v-705h-79zM1211 1393q-249 0 -396.5 -182t-147.5 -488v-2q0 -307 147 -489t397 -182q249 0 396.5 182.5
t147.5 488.5v2q0 306 -147.5 488t-396.5 182z" />
    <glyph glyph-name="Ia.cyrl" unicode="&#x42f;" horiz-adv-x="1296" 
d="M1099 0h-79v612h-374l-431 -612h-91l437 622q-178 24 -281.5 130t-103.5 274v2q0 191 125.5 303t338.5 112h459v-1443zM1020 685v685h-367q-185 0 -290.5 -91t-105.5 -251v-2q0 -159 105.5 -250t290.5 -91h367z" />
    <glyph glyph-name="a.cyrl" unicode="&#x430;" horiz-adv-x="1138" 
d="M486 -17q-159 0 -259 85t-100 223v2q0 136 98 214t284 92l371 28v105q0 141 -81 216t-226 75q-129 0 -216 -55t-109 -156v-2h-78v3q22 130 132 205t273 75q179 0 280.5 -94t101.5 -266v-733h-77v220h-8q-44 -109 -148 -173t-238 -64zM205 292q0 -107 81 -173t210 -66
q161 0 272.5 101t111.5 247v160l-359 -27q-156 -12 -236 -73t-80 -167v-2z" />
    <glyph glyph-name="be.cyrl" unicode="&#x431;" horiz-adv-x="1227" 
d="M614 -17q-233 0 -357 159t-124 458v2q0 320 55 509.5t172.5 278.5t316.5 98l130 6q148 6 231 39v-68q-62 -36 -230 -44l-130 -6q-155 -7 -251.5 -67.5t-150 -188.5t-72.5 -344l-2 -16h8q53 132 160.5 204.5t250.5 72.5q216 0 345 -146.5t129 -392.5v-2
q0 -253 -130 -402.5t-351 -149.5zM614 53q184 0 293 131t109 351v2q0 215 -109 341.5t-293 126.5q-185 0 -293.5 -126.5t-108.5 -341.5v-2q0 -221 109 -351.5t293 -130.5z" />
    <glyph glyph-name="ve.cyrl" unicode="&#x432;" horiz-adv-x="1103" 
d="M188 0v1077h399q152 0 238 -71t86 -194v-2q0 -96 -57.5 -163.5t-149.5 -85.5v-8q114 -12 189 -76t75 -175v-2q0 -146 -97 -223t-278 -77h-405zM265 586h305q123 0 193.5 59t70.5 160v2q0 92 -67.5 147t-185.5 55h-316v-423zM265 68h326q147 0 223 59.5t76 172.5v2
q0 106 -84 161t-232 55h-309v-450z" />
    <glyph glyph-name="ghe.cyrl" unicode="&#x433;" horiz-adv-x="963" 
d="M862 1009h-597v-1009h-77v1077h674v-68z" />
    <glyph glyph-name="de.cyrl" unicode="&#x434;" horiz-adv-x="1259" 
d="M130 -285h-74v353h85q110 72 133 387l44 622h690v-1009h178v-353h-74v285h-982v-285zM931 68v941h-543l-40 -559q-21 -278 -108 -375v-7h691z" />
    <glyph glyph-name="ie.cyrl" unicode="&#x435;" horiz-adv-x="1199" 
d="M614 -17q-221 0 -351 149.5t-130 402.5v2q0 255 128.5 405.5t342.5 150.5q211 0 336.5 -146t125.5 -384v-39h-854q2 -217 111.5 -343.5t291.5 -126.5q126 0 220 53t128 136l3 6h79l-3 -8q-39 -113 -154 -185.5t-274 -72.5zM604 1023q-168 0 -275.5 -116t-116.5 -316h777
q-9 202 -113.5 317t-271.5 115z" />
    <glyph glyph-name="zhe.cyrl" unicode="&#x436;" horiz-adv-x="1542" 
d="M190 0h-101l522 547l-495 530h98l461 -501h57v501h76v-501h56l461 501h98l-494 -528l524 -549h-104l-485 512h-56v-512h-76v512h-57z" />
    <glyph glyph-name="ze.cyrl" unicode="&#x437;" horiz-adv-x="1055" 
d="M540 -17q-169 0 -277 76.5t-136 204.5l-3 11h79l2 -10q26 -93 112.5 -153.5t222.5 -60.5q141 0 225 64.5t84 175.5v2q0 114 -85 171t-237 57h-173v68h173q135 0 212 59.5t77 160.5v2q0 95 -73.5 155t-199.5 60q-127 0 -209 -63t-106 -164l-2 -7h-76l2 9q26 130 128 211.5
t263 81.5q162 0 256 -78.5t94 -202.5v-2q0 -97 -63.5 -164t-157.5 -83v-7q111 -14 182.5 -81t71.5 -178v-2q0 -146 -106 -229.5t-280 -83.5z" />
    <glyph glyph-name="ii.cyrl" unicode="&#x438;" horiz-adv-x="1217" 
d="M188 0v1077h77v-948h9l678 948h77v-1077h-77v947h-9l-678 -947h-77z" />
    <glyph glyph-name="iishort.cyrl" unicode="&#x439;" horiz-adv-x="1217" 
d="M608 1255q-128 0 -203.5 70.5t-75.5 188.5h73q0 -91 55.5 -145.5t150.5 -54.5t150 54.5t55 145.5h74q0 -118 -75.5 -188.5t-203.5 -70.5zM188 0v1077h77v-948h9l678 948h77v-1077h-77v947h-9l-678 -947h-77z" />
    <glyph glyph-name="el.cyrl" unicode="&#x43b;" horiz-adv-x="1177" 
d="M352 435q-7 -102 -22 -178t-42 -139t-72 -95.5t-106 -32.5q-33 0 -61 10v71q22 -9 57 -9q42 0 74 29t51.5 83t30.5 119t17 150l43 634h667v-1077h-77v1009h-519z" />
    <glyph glyph-name="em.cyrl" unicode="&#x43c;" horiz-adv-x="1498" 
d="M265 0h-77v1077h90l473 -973h7l465 973h87v-1077h-77v929h-8l-442 -921h-62l-448 921h-8v-929z" />
    <glyph glyph-name="en.cyrl" unicode="&#x43d;" horiz-adv-x="1205" 
d="M940 0v524h-675v-524h-77v1077h77v-485h675v485h78v-1077h-78z" />
    <glyph glyph-name="o.cyrl" unicode="&#x43e;" horiz-adv-x="1226" 
d="M613 -17q-220 0 -350 150t-130 404v2q0 255 130 404.5t350 149.5t350 -149.5t130 -404.5v-2q0 -254 -130 -404t-350 -150zM613 54q184 0 292.5 131t108.5 352v2q0 221 -108.5 352.5t-292.5 131.5t-292.5 -131t-108.5 -353v-2q0 -221 108.5 -352t292.5 -131z" />
    <glyph glyph-name="pe.cyrl" unicode="&#x43f;" horiz-adv-x="1195" 
d="M188 0v1077h820v-1077h-78v1009h-665v-1009h-77z" />
    <glyph glyph-name="er.cyrl" unicode="&#x440;" horiz-adv-x="1256" 
d="M188 -353v1430h77v-272h8q44 133 150 210.5t245 77.5q205 0 333 -154t128 -399v-2q0 -246 -128.5 -400.5t-332.5 -154.5q-136 0 -243 76t-152 205h-8v-617h-77zM657 54q175 0 284 134t109 349v2q0 215 -109 349.5t-284 134.5t-284 -134.5t-109 -349.5v-2
q0 -215 109.5 -349t283.5 -134z" />
    <glyph glyph-name="es.cyrl" unicode="&#x441;" horiz-adv-x="1164" 
d="M608 -17q-218 0 -346.5 151t-128.5 407v2q0 252 128.5 401t346.5 149q167 0 284 -88t144 -228l-1 -1l-77 -1l-1 2q-29 111 -123.5 178.5t-225.5 67.5q-181 0 -288.5 -130.5t-107.5 -349.5v-2q0 -222 107.5 -354.5t288.5 -132.5q133 0 226 62.5t121 170.5l2 3l77 1l-1 -5
q-30 -139 -142.5 -221t-282.5 -82z" />
    <glyph glyph-name="te.cyrl" unicode="&#x442;" horiz-adv-x="1035" 
d="M948 1077v-68h-392v-1009h-77v1009h-392v68h861z" />
    <glyph glyph-name="u.cyrl" unicode="&#x443;" horiz-adv-x="1056" 
d="M240 -365q-14 0 -36 2v67q10 -1 33 -1q78 0 126.5 39.5t85.5 139.5l38 103l-412 1092h84l365 -997h9l365 997h83l-456 -1207q-49 -130 -112 -182.5t-173 -52.5z" />
    <glyph glyph-name="ef.cyrl" unicode="&#x444;" horiz-adv-x="1495" 
d="M710 -353v335q-264 7 -420.5 154.5t-156.5 397.5v2q0 251 157 399t420 155v375h76v-375q263 -7 419.5 -154.5t156.5 -398.5v-2q0 -251 -157 -398.5t-419 -154.5v-335h-76zM710 51v969q-228 -6 -363.5 -135t-135.5 -349v-2q0 -219 135.5 -347.5t363.5 -135.5zM786 51
q227 7 362.5 136t135.5 348v2q0 219 -135.5 348t-362.5 135v-969z" />
    <glyph glyph-name="ha.cyrl" unicode="&#x445;" horiz-adv-x="1032" 
d="M77 0l395 545l-396 532h95l342 -469h8l341 469h92l-394 -530l396 -547h-94l-344 484h-7l-343 -484h-91z" />
    <glyph glyph-name="tse.cyrl" unicode="&#x446;" horiz-adv-x="1258" 
d="M1111 -285v285h-923v1077h77v-1009h665v1009h78v-1009h177v-353h-74z" />
    <glyph glyph-name="che.cyrl" unicode="&#x447;" horiz-adv-x="1134" 
d="M946 0h-77v497h-10q-100 -84 -296 -84q-191 0 -293 104.5t-102 281.5v278h77v-277q0 -145 82.5 -231t235.5 -86q202 0 306 99v495h77v-1077z" />
    <glyph glyph-name="sha.cyrl" unicode="&#x448;" horiz-adv-x="1684" 
d="M188 0v1077h77v-1009h538v1009h78v-1009h538v1009h78v-1077h-1309z" />
    <glyph glyph-name="shcha.cyrl" unicode="&#x449;" horiz-adv-x="1748" 
d="M188 0v1077h77v-1009h538v1009h78v-1009h538v1009h78v-1009h178v-353h-75v285h-1412z" />
    <glyph glyph-name="hardsign.cyrl" unicode="&#x44a;" horiz-adv-x="1255" 
d="M406 0v1009h-328v68h406v-395h277q169 0 269.5 -92t100.5 -247v-2q0 -156 -100.5 -248.5t-269.5 -92.5h-355zM761 615h-277v-547h277q133 0 212.5 74.5t79.5 198.5v2q0 123 -79.5 197.5t-212.5 74.5z" />
    <glyph glyph-name="yeru.cyrl" unicode="&#x44b;" horiz-adv-x="1395" 
d="M188 0v1077h77v-395h277q169 0 269.5 -92t100.5 -247v-2q0 -156 -100.5 -248.5t-269.5 -92.5h-354zM1130 0v1077h77v-1077h-77zM542 615h-277v-547h277q133 0 213 74.5t80 198.5v2q0 123 -80 197.5t-213 74.5z" />
    <glyph glyph-name="softsign.cyrl" unicode="&#x44c;" horiz-adv-x="1036" 
d="M188 0v1077h77v-395h277q169 0 269.5 -92t100.5 -247v-2q0 -156 -100.5 -248.5t-269.5 -92.5h-354zM542 615h-277v-547h277q133 0 213 74.5t80 198.5v2q0 123 -80 197.5t-213 74.5z" />
    <glyph glyph-name="e.cyrl" unicode="&#x44d;" horiz-adv-x="1165" 
d="M558 -17q-173 0 -286.5 82t-142.5 214l-2 10h79l2 -7q25 -99 117.5 -164t232.5 -65q175 0 282.5 128.5t112.5 343.5h-568v68h567q-10 197 -117 313.5t-276 116.5q-134 0 -227 -66t-125 -171l-3 -11h-77l3 14q28 131 144 218t285 87q216 0 344.5 -148.5t128.5 -397.5v-2
q0 -258 -128.5 -410.5t-345.5 -152.5z" />
    <glyph glyph-name="iu.cyrl" unicode="&#x44e;" horiz-adv-x="1603" 
d="M188 0v1077h77v-485h269q14 234 139 368t328 134q214 0 341.5 -149.5t127.5 -405.5v-2q0 -255 -127.5 -404.5t-341.5 -149.5q-212 0 -338 146t-131 395h-267v-524h-77zM1001 53q178 0 284.5 131t106.5 353v2q0 222 -106.5 353t-284.5 131t-284 -130.5t-106 -353.5v-2
q0 -223 106 -353.5t284 -130.5z" />
    <glyph glyph-name="ia.cyrl" unicode="&#x44f;" horiz-adv-x="1073" 
d="M808 0v434h-257l-324 -434h-94l333 444q-145 16 -227 97.5t-82 209.5v2q0 149 100.5 236.5t270.5 87.5h357v-1077h-77zM528 502h280v507h-280q-134 0 -213 -69.5t-79 -185.5v-2q0 -113 79.5 -181.5t212.5 -68.5z" />
    <glyph glyph-name="io.cyrl" unicode="&#x451;" horiz-adv-x="1199" 
d="M407 1327q-25 0 -43.5 18.5t-18.5 43.5t18.5 43.5t43.5 18.5q26 0 44.5 -18t18.5 -44t-18.5 -44t-44.5 -18zM803 1327q-26 0 -44 18t-18 44t18 44t44 18q25 0 43.5 -18.5t18.5 -43.5t-18.5 -43.5t-43.5 -18.5zM614 -17q-221 0 -351 149.5t-130 402.5v2q0 255 128.5 405.5
t342.5 150.5q211 0 336.5 -146t125.5 -384v-39h-854q2 -217 111.5 -343.5t291.5 -126.5q126 0 220 53t128 136l3 6h79l-3 -8q-39 -113 -154 -185.5t-274 -72.5zM604 1023q-168 0 -275.5 -116t-116.5 -316h777q-9 202 -113.5 317t-271.5 115z" />
    <glyph glyph-name="emdash" unicode="&#x2014;" horiz-adv-x="1724" 
d="M89 548v72h1546v-72h-1546z" />
    <glyph glyph-name="ellipsis" unicode="&#x2026;" horiz-adv-x="1507" 
d="M287 -6q-31 0 -52.5 21t-21.5 52t21.5 52.5t52.5 21.5t52.5 -21.5t21.5 -52.5t-21.5 -52t-52.5 -21zM753 -6q-31 0 -52 21t-21 52t21 52.5t52 21.5t52.5 -21.5t21.5 -52.5t-21.5 -52t-52.5 -21zM1220 -6q-31 0 -52.5 21t-21.5 52t21.5 52.5t52.5 21.5q32 0 53 -21.5
t21 -52.5t-21.5 -52t-52.5 -21z" />
    <glyph glyph-name="fraction" horiz-adv-x="449" 
d="M-220 0h-77l966 1443h77z" />
    <glyph glyph-name="eurosign" unicode="&#x20ac;" horiz-adv-x="1394" 
d="M138 551v61h249q-6 52 -6 110v1q0 45 5 98h-248v60h256q23 136 86 241t154.5 170t202 97.5t234.5 32.5q103 0 156 -14v-74q-53 14 -156 14q-109 0 -205 -28t-176 -84t-136 -146.5t-78 -208.5h582v-60h-591q-5 -53 -5 -99v-1q0 -58 6 -109h590v-61h-580
q47 -226 208.5 -341t384.5 -115q108 0 156 14v-74q-53 -14 -156 -14q-98 0 -187.5 20t-170 62t-144 104t-108.5 149.5t-65 194.5h-258z" />
    <glyph glyph-name="rublesign" unicode="&#x20bd;" 
d="M301 30v264h-200v61h200v233h-200v61h200v764h411q210 0 329.5 -110.5t119.5 -301.5v-2q0 -191 -119.5 -301t-329.5 -110h-332v-233h437v-61h-437v-264h-79zM380 661h319q183 0 282 88t99 250v2q0 163 -99 251.5t-282 88.5h-319v-680z" />
    <glyph glyph-name="numerosign" unicode="&#x2116;" horiz-adv-x="2257" 
d="M1859 814q-135 0 -214 86t-79 233v1q0 148 79 234t214 86q134 0 213.5 -86.5t79.5 -233.5v-1q0 -147 -79.5 -233t-213.5 -86zM187 0v1443h82l918 -1297h7v1297h79v-1443h-75l-925 1304h-7v-1304h-79zM1858 870q106 0 167.5 71t61.5 192v1q0 121 -61.5 192t-167.5 71
q-105 0 -166.5 -71t-61.5 -192v-1q0 -122 61 -192.5t167 -70.5zM1595 595v56h527v-56h-527z" />
    <glyph glyph-name="trademark" unicode="&#x2122;" horiz-adv-x="1523" 
d="M288 746v632h-247v65h565v-65h-247v-632h-71zM741 746v697h80l262 -600h5l262 600h80v-697h-64v568h-10l-243 -568h-54l-244 568h-10v-568h-64z" />
    <glyph glyph-name="summation" unicode="&#x2211;" horiz-adv-x="1301" 
d="M213 -280v72l517 815v3l-515 761v72h891v-72h-800v-2l512 -759v-3l-515 -813v-2h800v-72h-890z" />
    <glyph glyph-name="squareroot" unicode="&#x221a;" horiz-adv-x="1262" 
d="M484 -353l-294 711h76l258 -628h7l668 1982h310v-67h-256l-679 -1998h-90z" />
    <glyph glyph-name="De.cyrl.BGR" horiz-adv-x="1476" 
d="M69 -286v359h114l515 1370h80l515 -1370h114v-359h-76v286h-1187v-286h-75zM734 1329l-466 -1256h939l-466 1256h-7z" />
    <glyph glyph-name="Zhe.cyrl.BGR" horiz-adv-x="2059" 
d="M172 0h-95l645 822l-556 621h98l717 -805h8v805h79v-805h8l717 805h96l-554 -619l647 -824h-97l-599 766l-218 -240v-526h-79v526l-218 240z" />
    <glyph glyph-name="Iishort.cyrl.YAK" horiz-adv-x="1480" 
d="M742 1613q-122 0 -194.5 67.5t-72.5 179.5h72q0 -86 52.5 -137t142.5 -51t142 51t52 137h72q0 -112 -72 -179.5t-194 -67.5zM197 0v1443h79v-1307h7l922 1307h78v-1537q0 -139 -64.5 -204t-190.5 -65q-23 0 -31 1v67h22q94 0 139.5 47.5t45.5 149.5v1403h-7l-922 -1305
h-78z" />
    <glyph glyph-name="Ka.cyrl.BGR" horiz-adv-x="1260" 
d="M187 0v1443h79v-805h7l750 805h100l-581 -623l647 -820h-102l-601 765l-220 -236v-529h-79z" />
    <glyph glyph-name="El.cyrl.BGR" horiz-adv-x="1321" 
d="M91 0l530 1443h80l529 -1443h-86l-480 1329h-7l-480 -1329h-86z" />
    <glyph glyph-name="idotabove" horiz-adv-x="450" 
d="M225 1320q-28 0 -47.5 19.5t-19.5 47.5t19.5 48t47.5 20t48 -20t20 -48t-20 -47.5t-48 -19.5zM186 0v1077h78v-1077h-78z" />
    <glyph glyph-name="be.cyrl.SRB" horiz-adv-x="1226" 
d="M611 -20q-220 0 -349 145t-129 391v2q0 194 84.5 325t236.5 172v5q-128 23 -190.5 75.5t-62.5 139.5v2q0 219 316 219h166q146 0 221 9t134 30v-68q-60 -22 -135.5 -32t-219.5 -10h-166q-114 0 -176 -33t-62 -116v-2q0 -78 83.5 -118.5t267.5 -57.5q227 -20 345.5 -157.5
t118.5 -381.5v-2q0 -247 -130 -392t-353 -145zM614 51q184 0 292.5 126.5t108.5 339.5v2q0 212 -108.5 338t-292.5 126t-293 -126t-109 -338v-2q0 -215 108.5 -340.5t293.5 -125.5z" />
    <glyph glyph-name="ve.cyrl.BGR" horiz-adv-x="1125" 
d="M589 -5q-195 0 -300.5 105.5t-105.5 296.5v705q0 189 97 290t276 101q169 0 269.5 -99t100.5 -263v-2q0 -124 -60 -209.5t-171 -121.5v-7q147 -32 228.5 -132.5t81.5 -250.5v-2q0 -182 -116 -296.5t-300 -114.5zM260 828h278q146 0 228 79.5t82 220.5v2q0 132 -80 212.5
t-213 80.5q-144 0 -219.5 -84t-75.5 -243v-268zM589 65q151 0 244.5 95t93.5 245v2q0 160 -106 255.5t-283 95.5h-278v-354q0 -162 84.5 -250.5t244.5 -88.5z" />
    <glyph glyph-name="ghe.cyrl.BGR" horiz-adv-x="1072" 
d="M510 -17q-179 0 -286.5 80t-107.5 213v2q0 113 76.5 182t243.5 111l124 32q132 32 190 79t58 124v2q0 94 -83 155.5t-210 61.5q-119 0 -203 -54t-102 -143v-2l-75 1l-1 1q19 121 123 193t258 72q161 0 266.5 -81.5t105.5 -205.5v-2q0 -104 -70 -167t-225 -101l-133 -33
q-140 -35 -202.5 -88t-62.5 -141v-2q0 -100 86.5 -160.5t228.5 -60.5q134 0 223.5 56.5t111.5 155.5l1 2l78 -1l1 -1q-19 -129 -130 -204.5t-284 -75.5z" />
    <glyph glyph-name="de.cyrl.BGR" horiz-adv-x="1255" 
d="M615 -370q-170 0 -283.5 69.5t-136.5 184.5l1 1h80l1 -1q23 -83 115 -133t225 -50q170 0 271.5 87t101.5 232v272h-7q-44 -130 -148 -203t-245 -73q-205 0 -331 148.5t-126 387.5v2q0 240 126.5 389.5t331.5 149.5q138 0 244.5 -78.5t147.5 -210.5h7v273h77v-1067
q0 -170 -124.5 -275t-327.5 -105zM601 86q177 0 283.5 127t106.5 334v2q0 209 -108 341.5t-282 132.5q-175 0 -282 -130t-107 -338v-2q0 -208 107 -337.5t282 -129.5z" />
    <glyph glyph-name="zhe.cyrl.BGR" horiz-adv-x="1666" 
d="M188 0h-99l497 605l-483 472h101l582 -560h7v989h78v-989h7l582 560h100l-482 -470l498 -607h-100l-458 558l-147 -135v-423h-78v423l-147 136z" />
    <glyph glyph-name="ze.cyrl.BGR" horiz-adv-x="1097" 
d="M545 -379q-178 0 -301.5 101.5t-133.5 258.5l-1 15h77l1 -13q10 -126 112 -209t246 -83q155 0 257.5 97.5t102.5 238.5v2q0 161 -108 249t-301 88h-109v71h104q155 0 247.5 79t92.5 216v2q0 126 -81.5 205.5t-214.5 79.5q-119 0 -202.5 -77.5t-100.5 -206.5l-1 -8h-78
l1 9q18 161 123 257t257 96q167 0 271.5 -98t104.5 -254v-2q0 -125 -70 -211.5t-192 -114.5v-6q155 -21 245.5 -119t90.5 -254v-2q0 -173 -125.5 -290t-313.5 -117z" />
    <glyph glyph-name="iishort.cyrl.YAK" horiz-adv-x="1217" 
d="M608 1255q-128 0 -203.5 70.5t-75.5 188.5h73q0 -91 55.5 -145.5t150.5 -54.5t150 54.5t55 145.5h74q0 -118 -75.5 -188.5t-203.5 -70.5zM188 0v1077h77v-948h9l678 948h77v-1171q0 -139 -64.5 -204t-190.5 -65q-23 0 -31 1v67h23q94 0 140 47.5t46 149.5v98v947h-9
l-678 -947h-77z" />
    <glyph glyph-name="ii.cyrl.BGR" horiz-adv-x="1209" 
d="M568 -17q-178 0 -283 106t-105 284v704h78v-683q0 -158 86.5 -249t237.5 -91q162 0 261.5 105.5t99.5 274.5v643h78v-1077h-78v223h-7q-39 -112 -136.5 -176t-231.5 -64z" />
    <glyph glyph-name="iishort.cyrl.BGR" horiz-adv-x="1209" 
d="M600 1255q-128 0 -203.5 70.5t-75.5 188.5h73q0 -91 55.5 -145.5t150.5 -54.5t150.5 54.5t55.5 145.5h73q0 -118 -75.5 -188.5t-203.5 -70.5zM568 -17q-178 0 -283 106t-105 284v704h78v-683q0 -158 86.5 -249t237.5 -91q162 0 261.5 105.5t99.5 274.5v643h78v-1077h-78
v223h-7q-39 -112 -136.5 -176t-231.5 -64z" />
    <glyph glyph-name="ka.cyrl.BGR" horiz-adv-x="1090" 
d="M198 0v1506h77v-979h8l602 550h101l-505 -461l515 -616h-100l-473 566l-148 -137v-429h-77z" />
    <glyph glyph-name="el.cyrl.BGR" horiz-adv-x="1055" 
d="M574 1077l406 -1077h-83l-366 997h-7l-366 -997h-83l406 1077h93z" />
    <glyph glyph-name="en.cyrl.BGR" horiz-adv-x="1205" 
d="M940 0v524h-675v-524h-77v1077h77v-485h675v485h78v-1077h-78z" />
    <glyph glyph-name="pe.cyrl.BGR" horiz-adv-x="1209" 
d="M188 0v1077h77v-226h8q47 115 145 178.5t231 63.5q179 0 279.5 -103t100.5 -286v-704h-78v683q0 164 -81 252t-235 88q-161 0 -265.5 -107.5t-104.5 -273.5v-642h-77z" />
    <glyph glyph-name="te.cyrl.BGR" horiz-adv-x="1780" 
d="M188 0v1077h77v-226h8q34 111 120.5 176.5t200.5 65.5q118 0 201 -64.5t115 -179.5h7q39 112 131.5 178t213.5 66q159 0 248.5 -97t89.5 -269v-727h-78v709q0 149 -72 231.5t-204 82.5q-140 0 -227 -99t-87 -254v-670h-77v707q0 142 -76.5 229t-201.5 87
q-131 0 -221.5 -107.5t-90.5 -264.5v-651h-77z" />
    <glyph glyph-name="tse.cyrl.BGR" horiz-adv-x="1274" 
d="M568 -17q-178 0 -283 106t-105 284v704h78v-683q0 -158 86.5 -249t237.5 -91q162 0 261.5 105.5t99.5 274.5v643h78v-1009h180v-353h-75v285h-183v223h-7q-39 -112 -136.5 -176t-231.5 -64z" />
    <glyph glyph-name="che.cyrl.BGR" horiz-adv-x="1134" 
d="M946 0h-77v497h-10q-100 -84 -296 -84q-191 0 -293 104.5t-102 281.5v278h77v-277q0 -145 82.5 -231t235.5 -86q202 0 306 99v495h77v-1077z" />
    <glyph glyph-name="sha.cyrl.BGR" horiz-adv-x="1760" 
d="M1582 1077v-1077h-78v226h-7q-34 -111 -120.5 -177t-200.5 -66q-118 0 -201 65t-115 180h-8q-38 -113 -130.5 -179t-213.5 -66q-159 0 -248.5 97t-89.5 270v727h78v-709q0 -149 72 -231.5t204 -82.5q139 0 226 98.5t87 254.5v670h78v-707q0 -143 76 -229.5t201 -86.5
q132 0 222 107.5t90 264.5v651h78z" />
    <glyph glyph-name="shcha.cyrl.BGR" horiz-adv-x="1835" 
d="M1687 -285v285h-183v226h-7q-34 -111 -120.5 -177t-200.5 -66q-118 0 -201 65t-115 180h-8q-38 -113 -130.5 -179t-213.5 -66q-159 0 -248.5 97t-89.5 270v727h78v-709q0 -149 72 -231.5t204 -82.5q139 0 226 98.5t87 254.5v670h78v-707q0 -143 76 -229.5t201 -86.5
q132 0 222 107.5t90 264.5v651h78v-1009h180v-353h-75z" />
    <glyph glyph-name="softsign.cyrl.BGR" horiz-adv-x="1037" 
d="M549 -5q-174 0 -267.5 97t-93.5 278v707h77v-393h269q176 0 277 -92.5t101 -253.5v-2q0 -151 -101.5 -246t-261.5 -95zM549 65q128 0 206.5 74.5t78.5 197.5v2q0 130 -81.5 203.5t-226.5 73.5h-261v-245q-1 -148 72.5 -227t211.5 -79z" />
    <glyph glyph-name="hardsign.cyrl.BGR" horiz-adv-x="1256" 
d="M768 -5q-174 0 -268 97t-94 278v639h-328v68h406v-393h269q176 0 277 -92.5t101 -253.5v-2q0 -151 -101.5 -246t-261.5 -95zM768 65q128 0 206.5 74.5t78.5 197.5v2q0 130 -81.5 203.5t-226.5 73.5h-261v-245q-1 -148 72.5 -227t211.5 -79z" />
    <glyph glyph-name="iu.cyrl.BGR" horiz-adv-x="1603" 
d="M188 0v1506h77v-914h269q14 234 139 368t328 134q214 0 341.5 -149.5t127.5 -405.5v-2q0 -255 -127.5 -404.5t-341.5 -149.5q-212 0 -338 146t-131 395h-267v-524h-77zM1001 53q178 0 284.5 131t106.5 353v2q0 222 -106.5 353t-284.5 131t-284 -130.5t-106 -353.5v-2
q0 -223 106 -353.5t284 -130.5z" />
    <glyph glyph-name="zero.dnom" horiz-adv-x="677" 
d="M338 -13q-122 0 -192 97t-70 264v1q0 167 70 264t192 97t192.5 -97.5t70.5 -263.5v-1q0 -167 -70.5 -264t-192.5 -97zM338 43q93 0 146 81.5t53 223.5v1q0 142 -53 223.5t-146 81.5t-145.5 -82t-52.5 -223v-1q0 -142 52.5 -223.5t145.5 -81.5z" />
    <glyph glyph-name="one.dnom" horiz-adv-x="456" 
d="M257 0v628h-4l-191 -121v66l195 124h63v-697h-63z" />
    <glyph glyph-name="two.dnom" horiz-adv-x="641" 
d="M88 0v48l253 249q83 81 111 124t28 89v1q0 62 -46.5 102.5t-118.5 40.5q-74 0 -121.5 -42t-48.5 -108h-61q1 91 67 148.5t167 57.5q97 0 161.5 -55t64.5 -139v-1q0 -57 -34.5 -111.5t-128.5 -145.5l-206 -197v-3h391v-58h-478z" />
    <glyph glyph-name="three.dnom" horiz-adv-x="655" 
d="M327 -12q-108 0 -175.5 52.5t-76.5 136.5l-1 4h61l1 -3q9 -59 60 -96t131 -37q82 0 135.5 42t53.5 105v1q0 67 -53 104.5t-147 37.5h-83v52h81q78 0 126.5 37.5t48.5 96.5v1q0 58 -46 94.5t-120 36.5q-72 0 -119 -35.5t-53 -91.5v-5h-60v5q8 81 71 131.5t161 50.5
q101 0 165 -50t64 -129v-1q0 -64 -42.5 -107t-114.5 -56v-3q84 -5 134.5 -51t50.5 -119v-1q0 -88 -71.5 -145.5t-181.5 -57.5z" />
    <glyph glyph-name="four.dnom" horiz-adv-x="695" 
d="M449 0v161h-376v58q68 107 138 204.5t210 274.5h89v-479h112v-58h-112v-161h-61zM137 217h312v422h-5q-205 -256 -307 -417v-5z" />
    <glyph glyph-name="five.dnom" horiz-adv-x="661" 
d="M331 -13q-98 0 -166.5 52.5t-76.5 131.5l-1 4h60l1 -3q8 -54 60 -91.5t123 -37.5q84 0 139 50.5t55 128.5v1q0 76 -54 127t-135 51q-97 0 -155 -64q-14 -14 -24 -31h-57l40 391h400v-57h-348l-32 -272h5q28 40 76.5 63t105.5 23q103 0 171 -65.5t68 -164.5v-1
q0 -103 -72 -169.5t-183 -66.5z" />
    <glyph glyph-name="six.dnom" horiz-adv-x="674" 
d="M349 -13q-121 0 -197 87t-76 252v1q0 179 74 281t202 102q92 0 155 -48t78 -124l2 -5h-63l-1 5q-14 52 -60 83.5t-111 31.5q-105 0 -159 -87t-56 -226v-24h5q19 61 79 101t139 40q104 0 172.5 -65.5t68.5 -164.5v-1q0 -103 -71.5 -171t-180.5 -68zM155 232q0 -79 55 -134
t138 -55q80 0 135.5 52.5t55.5 128.5v1q0 76 -54.5 127t-135.5 51q-80 0 -137 -50t-57 -120v-1z" />
    <glyph glyph-name="seven.dnom" horiz-adv-x="614" 
d="M140 0l342 636v4h-413v57h478v-59l-339 -638h-68z" />
    <glyph glyph-name="eight.dnom" horiz-adv-x="680" 
d="M340 -12q-116 0 -189 56t-73 145v1q0 67 47 116t122 63v1q-65 15 -104 57t-39 99v1q0 79 66.5 130t169.5 51q104 0 170.5 -51t66.5 -130v-1q0 -57 -39 -99t-104 -57v-1q75 -14 122 -63t47 -116v-1q0 -89 -73 -145t-190 -56zM340 393q76 0 125 35.5t49 91.5v1q0 58 -49 96
t-125 38t-125 -38t-49 -96v-1q0 -56 49 -91.5t125 -35.5zM340 42q88 0 143 42.5t55 108.5v1q0 64 -55 104.5t-143 40.5t-143 -40.5t-55 -104.5v-1q0 -66 55.5 -108.5t142.5 -42.5z" />
    <glyph glyph-name="nine.dnom" horiz-adv-x="674" 
d="M324 710q121 0 196.5 -87t75.5 -252v-1q0 -179 -73.5 -281t-201.5 -102q-93 0 -156 48t-78 123l-2 6h64l1 -5q14 -52 60.5 -84t110.5 -32q104 0 158.5 87.5t56.5 226.5v23h-6q-19 -60 -78.5 -100t-139.5 -40q-103 0 -172 65.5t-69 163.5v1q0 103 72 171.5t181 68.5z
M324 294q80 0 137 50t57 120v1q0 79 -55.5 133.5t-138.5 54.5q-81 0 -136 -52t-55 -129v-1q0 -76 54.5 -126.5t136.5 -50.5z" />
    <glyph glyph-name="plus.dnom" horiz-adv-x="620" 
d="M282 87v231h-227v60h227v232h56v-232h226v-60h-226v-231h-56z" />
    <glyph glyph-name="equal.dnom" horiz-adv-x="620" 
d="M61 449v60h497v-60h-497zM61 188v60h497v-60h-497z" />
    <glyph glyph-name="parenleft.dnom" horiz-adv-x="449" 
d="M315 -204q-82 101 -124.5 241t-42.5 294t42.5 294t124.5 240h63q-72 -90 -116 -239.5t-44 -294.5q0 -146 44 -296t116 -239h-63z" />
    <glyph glyph-name="parenright.dnom" horiz-adv-x="449" 
d="M133 865q82 -100 124.5 -240t42.5 -294q0 -155 -42.5 -295t-124.5 -240h-63q72 90 116.5 240t44.5 295q0 146 -44 295.5t-117 238.5h63z" />
    <glyph glyph-name="zero.numr" horiz-adv-x="677" 
d="M338 733q-122 0 -192 97t-70 264v2q0 166 70 263t192 97t192.5 -97t70.5 -263v-2q0 -167 -70.5 -264t-192.5 -97zM338 789q93 0 146 81.5t53 223.5v2q0 142 -53 223t-146 81t-145.5 -81.5t-52.5 -222.5v-2q0 -142 52.5 -223.5t145.5 -81.5z" />
    <glyph glyph-name="one.numr" horiz-adv-x="456" 
d="M257 746v628h-4l-191 -120v65l195 124h63v-697h-63z" />
    <glyph glyph-name="two.numr" horiz-adv-x="641" 
d="M88 746v48l253 249q83 81 111 124t28 89v1q0 62 -46.5 102.5t-118.5 40.5q-74 0 -121.5 -42t-48.5 -107v-1h-61v1q2 90 67.5 147.5t166.5 57.5q97 0 161.5 -55t64.5 -139v-1q0 -57 -34.5 -111.5t-128.5 -145.5l-206 -197v-3h391v-58h-478z" />
    <glyph glyph-name="three.numr" horiz-adv-x="655" 
d="M327 735q-108 0 -175.5 52.5t-76.5 136.5l-1 4h61l1 -4q9 -58 60.5 -95.5t130.5 -37.5q82 0 135.5 42t53.5 106q0 67 -53 104.5t-147 37.5h-83v53h81q78 0 126.5 37t48.5 96v1q0 58 -46 94.5t-120 36.5q-72 0 -119 -35.5t-53 -91.5v-5h-60v5q8 81 71 132t161 51
q101 0 165 -50.5t64 -128.5v-1q0 -64 -42.5 -107.5t-114.5 -56.5v-2q85 -6 135 -52t50 -119v-1q0 -88 -71.5 -145t-181.5 -57z" />
    <glyph glyph-name="four.numr" horiz-adv-x="695" 
d="M449 746v162h-376v57q68 107 138 204.5t210 274.5h89v-479h112v-57h-112v-162h-61zM137 963h312v422h-5q-205 -256 -307 -417v-5z" />
    <glyph glyph-name="five.numr" horiz-adv-x="661" 
d="M331 733q-98 0 -166.5 52.5t-76.5 131.5l-1 5h60l1 -3q8 -55 60 -92t123 -37q84 0 139 50.5t55 127.5v1q0 76 -54 127t-135 51q-97 0 -155 -64q-14 -14 -24 -31h-57l40 391h400v-57h-348l-32 -272h5q28 41 76.5 64t105.5 23q103 0 171 -66t68 -165v-1q0 -103 -72 -169.5
t-183 -66.5z" />
    <glyph glyph-name="six.numr" horiz-adv-x="674" 
d="M349 733q-121 0 -197 87t-76 252v1q0 179 74 281t202 102q92 0 155 -48t78 -123l2 -6h-63l-1 5q-14 52 -60.5 84t-110.5 32q-104 0 -158.5 -87t-56.5 -227v-23h5q19 60 79 100t139 40q104 0 172.5 -65.5t68.5 -163.5v-1q0 -104 -71.5 -172t-180.5 -68zM155 978
q0 -79 55 -133.5t138 -54.5q81 0 136 52t55 129v1q0 76 -54.5 126.5t-135.5 50.5q-80 0 -137 -50t-57 -120v-1z" />
    <glyph glyph-name="seven.numr" horiz-adv-x="614" 
d="M140 746l342 636v4h-413v57h478v-59l-339 -638h-68z" />
    <glyph glyph-name="eight.numr" horiz-adv-x="680" 
d="M340 735q-116 0 -189 55.5t-73 144.5v1q0 67 47 116t122 63v2q-65 14 -104 56t-39 99v1q0 80 66.5 131t169.5 51q104 0 170.5 -51t66.5 -131v-1q0 -57 -39 -99t-104 -56v-2q75 -14 122 -63t47 -116v-1q0 -89 -73 -144.5t-190 -55.5zM340 1140q76 0 125 35.5t49 91.5v1
q0 57 -49 95t-125 38t-125 -38t-49 -95v-1q0 -56 49 -91.5t125 -35.5zM340 788q88 0 143 42.5t55 108.5v1q0 64 -55 104.5t-143 40.5t-143 -40.5t-55 -104.5v-1q0 -66 55.5 -108.5t142.5 -42.5z" />
    <glyph glyph-name="nine.numr" horiz-adv-x="674" 
d="M324 1456q121 0 196.5 -87t75.5 -252v-1q0 -179 -73.5 -281t-201.5 -102q-93 0 -156 48t-78 124l-2 5h64l1 -5q14 -52 60 -83.5t111 -31.5q104 0 158.5 87t56.5 226v24h-6q-18 -61 -78 -101t-140 -40q-103 0 -172 66t-69 164v1q0 103 72 171t181 68zM324 1040
q80 0 137 50t57 120v1q0 79 -55.5 134t-138.5 55q-80 0 -135.5 -52.5t-55.5 -128.5v-1q0 -76 54.5 -127t136.5 -51z" />
    <glyph glyph-name="plus.numr" horiz-adv-x="620" 
d="M282 833v231h-227v60h227v232h56v-232h226v-60h-226v-231h-56z" />
    <glyph glyph-name="equal.numr" horiz-adv-x="620" 
d="M61 1195v60h497v-60h-497zM61 934v60h497v-60h-497z" />
    <glyph glyph-name="parenleft.numr" horiz-adv-x="449" 
d="M315 543q-82 101 -124.5 240t-42.5 294t42.5 294.5t124.5 239.5h63q-72 -89 -116 -239t-44 -295q0 -146 44 -295.5t116 -238.5h-63z" />
    <glyph glyph-name="parenright.numr" horiz-adv-x="449" 
d="M133 1611q82 -100 124.5 -240t42.5 -294q0 -155 -42.5 -294.5t-124.5 -239.5h-63q72 89 116.5 239t44.5 295q0 146 -44 295.5t-117 238.5h63z" />
    <glyph glyph-name="numbersign.numr" horiz-adv-x="663" 
d="M154 746h-55l44 201h-131l10 57h133l41 185h-136l10 57h138l44 198h55l-44 -198h190l44 198h56l-43 -198h142l-11 -57h-144l-40 -185h146l-10 -57h-149l-44 -201h-56l44 201h-190zM209 1001h193l41 190h-193z" />
    <glyph glyph-name="dollarsign.numr" horiz-adv-x="669" 
d="M311 677v88q-93 7 -156.5 56.5t-69.5 122.5l-1 6h67v-5q5 -53 58.5 -87.5t129.5 -34.5q80 0 130 33t50 86v1q0 43 -37 70.5t-122 47.5l-62 15q-100 23 -148.5 65.5t-48.5 107.5v1q0 72 58 119.5t151 54.5v88h53v-88q86 -7 144.5 -53.5t64.5 -112.5l1 -9h-66l-1 7
q-5 47 -53 78.5t-116 31.5q-76 0 -122.5 -30.5t-46.5 -79.5v-1q0 -82 154 -116l60 -14q105 -24 154 -66.5t49 -109.5v-1q0 -77 -62 -127t-160 -56v-88h-52z" />
    <glyph glyph-name="rublesign.numr" horiz-adv-x="672" 
d="M154 760v116h-102v37h102v105h-102v38h102v372h231q108 0 171.5 -55.5t63.5 -149.5v-1q0 -93 -64 -148.5t-173 -55.5h-160v-105h218v-37h-218v-116h-69zM223 1078h146q87 0 134 37.5t47 106.5v1q0 69 -47 106.5t-134 37.5h-146v-289z" />
    <glyph glyph-name="eurosign.numr" horiz-adv-x="727" 
d="M554 756q-136 0 -234 64.5t-124 187.5h-125v38h118q-2 30 -2 49v1q0 29 2 43h-118v37h123q25 126 123 191.5t236 65.5q59 0 88 -9v-63q-28 7 -87 7q-109 0 -186 -48.5t-102 -143.5h296v-37h-303q-2 -28 -2 -44q0 -27 3 -49h302v-38h-294q25 -93 102 -140t185 -47
q57 0 87 6v-63q-32 -8 -88 -8z" />
    <glyph glyph-name="a.dnom" horiz-adv-x="740" 
d="M309 -10q-96 0 -156 49t-60 130v1q0 80 60 125t173 53l215 15v58q0 74 -46 113.5t-129 39.5q-73 0 -122.5 -28.5t-62.5 -81.5v-1h-62v2q13 76 80.5 120.5t168.5 44.5q111 0 173 -54.5t62 -153.5v-422h-62v118h-6q-27 -59 -87.5 -93.5t-138.5 -34.5zM156 171
q0 -56 46.5 -91t118.5 -35q92 0 156 53.5t64 131.5v83l-205 -14q-180 -12 -180 -127v-1z" />
    <glyph glyph-name="b.dnom" horiz-adv-x="824" 
d="M452 -10q-82 0 -144 41.5t-88 113.5h-5v-145h-63v864h63v-385h5q28 69 90.5 109.5t141.5 40.5q123 0 197.5 -87.5t74.5 -230.5v-1q0 -143 -75 -231.5t-197 -88.5zM439 48q100 0 160.5 72t60.5 190v1q0 118 -60.5 189t-160.5 71q-101 0 -163 -72t-62 -189v-1
q0 -117 62 -189t163 -72z" />
    <glyph glyph-name="c.dnom" horiz-adv-x="757" 
d="M395 -10q-134 0 -212.5 86.5t-78.5 234.5v1q0 147 78.5 232.5t212.5 85.5q104 0 175 -53t87 -138h-62l-1 1q-16 60 -70 97t-129 37q-104 0 -165.5 -71t-61.5 -191v-1q0 -121 61.5 -193t165.5 -72q76 0 128.5 34t69.5 93l1 2l62 1l-1 -3q-17 -84 -86 -133.5t-174 -49.5z
" />
    <glyph glyph-name="d.dnom" horiz-adv-x="829" 
d="M377 -10q-124 0 -200.5 88t-76.5 231v1q0 143 76.5 231t200.5 88q79 0 141.5 -41t89.5 -110h5v386h63v-864h-63v145h-5q-27 -72 -88.5 -113.5t-142.5 -41.5zM389 48q101 0 163.5 72t62.5 189v1q0 117 -62.5 189t-163.5 72t-163 -72t-62 -189v-1q0 -117 62 -189t163 -72z
" />
    <glyph glyph-name="e.dnom" horiz-adv-x="779" 
d="M399 -10q-135 0 -214 86t-79 232v1q0 147 78 234t208 87q129 0 205.5 -84.5t76.5 -222.5v-27h-505q1 -116 63.5 -183t166.5 -67q73 0 126.5 28.5t72.5 71.5l1 3h63l-2 -4q-22 -66 -92 -110.5t-169 -44.5zM393 574q-95 0 -156 -61t-67 -167h441q-5 107 -64.5 167.5
t-153.5 60.5z" />
    <glyph glyph-name="f.dnom" horiz-adv-x="456" 
d="M163 0v565h-107v54h107v86q0 81 42 123t123 42q21 0 59 -4v-51q-18 3 -48 3q-56 0 -84.5 -30t-28.5 -85v-84h155v-54h-155v-565h-63z" />
    <glyph glyph-name="g.dnom" horiz-adv-x="817" 
d="M395 -213q-107 0 -176.5 41t-83.5 110l1 1h64l1 -1q13 -44 65.5 -70.5t129.5 -26.5q98 0 156 46.5t58 125.5v147h-6q-26 -70 -87 -108.5t-143 -38.5q-123 0 -198.5 85t-75.5 221v2q0 137 76 222.5t200 85.5q80 0 141.5 -42t87.5 -114h4v146h64v-610q0 -100 -76.5 -161
t-201.5 -61zM387 69q102 0 163 68.5t61 179.5v1q0 113 -61.5 183.5t-162.5 70.5t-162 -69.5t-61 -181.5v-1q0 -112 61 -181.5t162 -69.5z" />
    <glyph glyph-name="h.dnom" horiz-adv-x="793" 
d="M145 0v864h63v-368h6q27 63 84.5 98.5t135.5 35.5q107 0 167.5 -60t60.5 -166v-404h-63v387q0 90 -46.5 137.5t-134.5 47.5q-92 0 -151 -57.5t-59 -146.5v-368h-63z" />
    <glyph glyph-name="i.dnom" horiz-adv-x="299" 
d="M150 750q-20 0 -34.5 14t-14.5 34q0 21 14.5 35t34.5 14t34 -14t14 -35q0 -20 -14 -34t-34 -14zM117 0v619h63v-619h-63z" />
    <glyph glyph-name="j.dnom" horiz-adv-x="299" 
d="M149 750q-19 0 -33.5 14t-14.5 34q0 21 14 35t34 14t34.5 -14t14.5 -35q0 -20 -14.5 -34t-34.5 -14zM11 -209h-15v55h11q58 0 84.5 25.5t26.5 81.5v666h63v-664q0 -164 -170 -164z" />
    <glyph glyph-name="k.dnom" horiz-adv-x="705" 
d="M146 0v864h63v-548h5l343 303h79l-298 -264l306 -355h-79l-273 314l-83 -74v-240h-63z" />
    <glyph glyph-name="l.dnom" horiz-adv-x="301" 
d="M118 0v864h64v-864h-64z" />
    <glyph glyph-name="m.dnom" horiz-adv-x="1165" 
d="M154 0v619h63v-123h6q20 62 71 97.5t119 35.5q71 0 120 -35.5t69 -99.5h6q23 62 78.5 98.5t127.5 36.5q96 0 150 -56t54 -154v-419h-63v403q0 81 -41.5 125t-117.5 44q-79 0 -129 -53t-50 -135v-384h-63v405q0 76 -43 121.5t-116 45.5q-75 0 -126.5 -57t-51.5 -141v-374
h-63z" />
    <glyph glyph-name="n.dnom" horiz-adv-x="787" 
d="M138 0v619h63v-123h6q27 63 84 98t136 35q107 0 167.5 -59.5t60.5 -165.5v-404h-63v387q0 90 -46.5 137.5t-134.5 47.5q-92 0 -151 -57.5t-59 -147.5v-367h-63z" />
    <glyph glyph-name="o.dnom" horiz-adv-x="798" 
d="M399 -10q-134 0 -213.5 86t-79.5 233v1q0 147 79.5 233.5t213.5 86.5t213.5 -86.5t79.5 -233.5v-1q0 -147 -79 -233t-214 -86zM399 46q106 0 167.5 71t61.5 192v1q0 121 -62 192t-167 71q-106 0 -167.5 -71t-61.5 -192v-1q0 -121 61.5 -192t167.5 -71z" />
    <glyph glyph-name="p.dnom" horiz-adv-x="818" 
d="M146 -203v822h63v-144h6q26 71 88 112.5t143 41.5q123 0 199.5 -88t76.5 -230v-2q0 -142 -76.5 -230.5t-199.5 -88.5q-79 0 -142 41t-89 110h-6v-344h-63zM433 48q101 0 163 72t62 189v1q0 117 -62 189t-163 72t-163 -72t-62 -189v-1q0 -117 62 -189t163 -72z" />
    <glyph glyph-name="q.dnom" horiz-adv-x="817" 
d="M610 -203v342h-5q-27 -69 -89 -109t-143 -40q-122 0 -197.5 88t-75.5 231v1q0 144 75.5 231.5t197.5 87.5q80 0 142 -42.5t91 -114.5h4v147h63v-822h-63zM386 48q101 0 163.5 72t62.5 189v1q0 116 -62.5 188.5t-163.5 72.5q-100 0 -160.5 -71.5t-60.5 -189.5v-1
q0 -118 60.5 -189.5t160.5 -71.5z" />
    <glyph glyph-name="r.dnom" horiz-adv-x="492" 
d="M131 0v619h64v-112h5q20 58 66.5 89.5t112.5 31.5q36 0 70 -8v-62q-36 10 -76 10q-77 0 -127.5 -53t-50.5 -133v-382h-64z" />
    <glyph glyph-name="s.dnom" horiz-adv-x="688" 
d="M349 -10q-106 0 -174.5 44.5t-79.5 120.5h65q13 -52 63.5 -82t127.5 -30q75 0 126.5 34t51.5 85v2q0 45 -36 72.5t-116 44.5l-81 18q-92 20 -135.5 57.5t-43.5 100.5v1q0 74 67 123t163 49t160 -43.5t75 -115.5h-61q-11 47 -58.5 76t-115.5 29q-69 0 -117.5 -33
t-48.5 -82v-1q0 -42 33.5 -67t106.5 -40l80 -19q100 -21 146 -59.5t46 -105.5v-1q0 -77 -70 -127.5t-174 -50.5z" />
    <glyph glyph-name="t.dnom" horiz-adv-x="462" 
d="M319 -4q-88 0 -126 36t-38 117v415h-106v55h106v159h64v-159h154v-55h-154v-403q0 -58 25 -83.5t83 -25.5q25 0 46 3v-55q-34 -4 -54 -4z" />
    <glyph glyph-name="u.dnom" horiz-adv-x="787" 
d="M363 -10q-107 0 -169 60.5t-62 164.5v404h62v-387q0 -87 49 -136t136 -49q93 0 150 56.5t57 147.5v368h62v-619h-62v122h-6q-23 -62 -80.5 -97t-136.5 -35z" />
    <glyph glyph-name="v.dnom" horiz-adv-x="686" 
d="M307 0l-243 619h67l209 -554h6l209 554h67l-243 -619h-72z" />
    <glyph glyph-name="w.dnom" horiz-adv-x="1020" 
d="M265 0l-186 619h64l156 -545h5l171 545h67l172 -545h5l158 545h63l-186 -619h-71l-172 537h-5l-171 -537h-70z" />
    <glyph glyph-name="x.dnom" horiz-adv-x="670" 
d="M65 0l233 313l-234 306h75l194 -258h5l194 258h73l-234 -305l235 -314h-74l-196 265h-5l-195 -265h-71z" />
    <glyph glyph-name="y.dnom" horiz-adv-x="687" 
d="M167 -211q-19 0 -28 1v54q14 -2 24 -2q47 0 76 22t50 76l21 53l-246 626h67l209 -554h8l208 554h67l-268 -680q-32 -83 -73.5 -116.5t-114.5 -33.5z" />
    <glyph glyph-name="z.dnom" horiz-adv-x="697" 
d="M103 0v48l415 511v6h-415v54h490v-50l-414 -509v-6h415v-54h-491z" />
    <glyph glyph-name="colon.uc" horiz-adv-x="573" 
d="M287 1088q-31 0 -52.5 21.5t-21.5 52.5q0 32 21.5 53t52.5 21t52.5 -21.5t21.5 -52.5t-21.5 -52.5t-52.5 -21.5zM287 207q-31 0 -52.5 21.5t-21.5 52.5t21.5 52.5t52.5 21.5t52.5 -21.5t21.5 -52.5t-21.5 -52.5t-52.5 -21.5z" />
    </font>
</defs>
</svg>
