<?xml version="1.0" standalone="no"?>
<!DOCTYPE svg PUBLIC "-//W3C//DTD SVG 1.1//EN" "http://www.w3.org/Graphics/SVG/1.1/DTD/svg11.dtd" >
<svg xmlns="http://www.w3.org/2000/svg" xmlns:xlink="http://www.w3.org/1999/xlink" version="1.1">
<metadata>
Created by FontForge 20170731 at Sat Jul 29 00:23:20 2023
 By Aleksey,,,
(c) 2015-2020 Apple Inc. All rights reserved.
</metadata>
<defs>
<font id="SFProText-Bold" horiz-adv-x="1375" >
  <font-face 
    font-family="SF Pro Text"
    font-weight="600"
    font-stretch="normal"
    units-per-em="2048"
    panose-1="0 0 0 0 0 0 0 0 0 0"
    ascent="1638"
    descent="-410"
    x-height="1101"
    cap-height="1443"
    bbox="-340 -494 5497 1950"
    underline-thickness="190"
    underline-position="-660"
    unicode-range="U+0020-221A"
  />
<missing-glyph horiz-adv-x="2048" 
d="M100 1751v199h1848v-199h-1848zM100 1302v200h1848v-200h-1848zM100 853v199h1848v-199h-1848zM100 404v200h1848v-200h-1848zM100 -45v199h1848v-199h-1848zM100 -494v200h1848v-200h-1848z" />
    <glyph glyph-name="dblemdash" unicode="&#x2014;&#x2014;" horiz-adv-x="3713" 
d="M73 451v263h3567v-263h-3567z" />
    <glyph glyph-name="trplemdash" unicode="&#x2014;&#x2014;&#x2014;" horiz-adv-x="5570" 
d="M73 451v263h5424v-263h-5424z" />
    <glyph glyph-name=".notdef" horiz-adv-x="2048" 
d="M100 1751v199h1848v-199h-1848zM100 1302v200h1848v-200h-1848zM100 853v199h1848v-199h-1848zM100 404v200h1848v-200h-1848zM100 -45v199h1848v-199h-1848zM100 -494v200h1848v-200h-1848z" />
    <glyph glyph-name=".null" horiz-adv-x="0" 
 />
    <glyph glyph-name="nonmarkingreturn" horiz-adv-x="0" 
 />
    <glyph glyph-name="space" unicode=" " horiz-adv-x="528" 
 />
    <glyph glyph-name="exclamationmark" unicode="!" horiz-adv-x="730" 
d="M231 476l-26 968h320l-27 -968h-267zM365 -29q-84 0 -133 45t-49 122q0 78 49 123t133 45q85 0 133.5 -45t48.5 -123q0 -77 -48.5 -122t-133.5 -45z" />
    <glyph glyph-name="quotedbl" unicode="&#x22;" horiz-adv-x="1165" 
d="M246 824l-29 619h278l-29 -619h-220zM699 824l-29 619h278l-29 -619h-220z" />
    <glyph glyph-name="numbersign" unicode="#" 
d="M408 0h-221l75 374h-226l41 215h228l56 282h-234l42 215h235l72 358h221l-72 -358h256l72 358h222l-72 -358h237l-41 -215h-239l-57 -282h244l-41 -215h-246l-75 -374h-222l76 374h-256zM511 575h280l62 308h-280z" />
    <glyph glyph-name="dollarsign" unicode="$" 
d="M637 -142v164q-217 12 -352 118.5t-141 288.5l1 1h267v-1q27 -162 225 -181v359l-67 16q-201 46 -302.5 140t-101.5 251v2q0 175 130.5 283.5t340.5 120.5v168h115v-168q208 -16 334.5 -127t133.5 -287l-1 -1l-265 -1l-1 2q-10 79 -63 127t-138 61v-348l71 -15
q212 -48 314 -139.5t102 -251.5v-2q0 -182 -134 -291t-353 -124v-165h-115zM445 1036q0 -58 45.5 -97t146.5 -66v322q-92 -10 -142 -52.5t-50 -104.5v-2zM960 410q0 66 -46 104t-162 67v-334q103 10 155.5 51.5t52.5 109.5v2z" />
    <glyph glyph-name="percent" unicode="%" horiz-adv-x="2121" 
d="M469 652q-158 0 -249.5 109t-91.5 297v1q0 188 91.5 296.5t249.5 108.5q159 0 250 -108.5t91 -296.5v-1q0 -188 -91 -297t-250 -109zM691 0h-231l971 1443h231zM469 812q66 0 101.5 64t35.5 182v1q0 118 -35.5 181.5t-101.5 63.5q-65 0 -100.5 -63.5t-35.5 -181.5v-1
q0 -118 35.5 -182t100.5 -64zM1652 -21q-158 0 -249.5 109t-91.5 297v1q0 188 91.5 296.5t249.5 108.5q159 0 250 -108.5t91 -296.5v-1q0 -188 -91 -297t-250 -109zM1652 139q66 0 101.5 64t35.5 182v1q0 118 -35.5 181.5t-101.5 63.5q-65 0 -100.5 -63.5t-35.5 -181.5v-1
q0 -118 35.5 -182t100.5 -64z" />
    <glyph glyph-name="ampersand" unicode="&#x26;" horiz-adv-x="1525" 
d="M612 -27q-230 0 -367.5 110t-137.5 294v2q0 126 65.5 219.5t205.5 166.5l63 34q-102 114 -141 185.5t-39 144.5v2q0 148 116 242t294 94q177 0 290.5 -92.5t113.5 -237.5v-2q0 -109 -70 -200t-226 -178l276 -289q54 126 54 289v46h245l-1 -65q2 -266 -123 -454l269 -283
v-1h-327l-103 113q-189 -140 -457 -140zM512 1120q0 -47 27.5 -93t107.5 -131q101 55 143 106.5t42 115.5v2q0 66 -44 109t-115 43q-70 0 -115.5 -42.5t-45.5 -107.5v-2zM380 401q0 -97 72.5 -156.5t189.5 -59.5q160 0 275 94l-337 368l-43 -22q-157 -82 -157 -222v-2z" />
    <glyph glyph-name="quotesingle" unicode="'" horiz-adv-x="712" 
d="M246 824l-29 619h278l-29 -619h-220z" />
    <glyph glyph-name="parenleft" unicode="(" horiz-adv-x="878" 
d="M520 -365q-297 361 -297 944q0 584 297 943h268q-113 -143 -188.5 -409.5t-75.5 -533.5t75 -533t189 -411h-268z" />
    <glyph glyph-name="parenright" unicode=")" horiz-adv-x="878" 
d="M359 -365h-269q113 144 188.5 411t75.5 533q0 267 -75.5 533.5t-188.5 409.5h269q296 -359 296 -943q0 -582 -296 -944z" />
    <glyph glyph-name="asterisk" unicode="*" horiz-adv-x="992" 
d="M392 637l13 245l-192 -128l-104 164l222 118l-222 118l104 164l192 -128l-13 245h210l-14 -244l192 127l104 -164l-223 -118l223 -118l-104 -164l-192 128l13 -245h-209z" />
    <glyph glyph-name="plus" unicode="+" 
d="M124 451v263h432v419h263v-419h433v-263h-433v-419h-263v419h-432z" />
    <glyph glyph-name="comma" unicode="," horiz-adv-x="712" 
d="M119 -388l88 619h289l-182 -619h-195z" />
    <glyph glyph-name="hyphen" unicode="-" horiz-adv-x="992" 
d="M164 451v263h665v-263h-665z" />
    <glyph glyph-name="period" unicode="." horiz-adv-x="712" 
d="M356 -25q-76 0 -126 49.5t-50 124.5q0 74 50 123.5t126 49.5q77 0 126.5 -49t49.5 -124t-49.5 -124.5t-126.5 -49.5z" />
    <glyph glyph-name="slash" unicode="/" horiz-adv-x="685" 
d="M685 1522l-416 -1887h-269l416 1887h269z" />
    <glyph glyph-name="zero" unicode="0" horiz-adv-x="1402" 
d="M701 -37q-266 0 -419.5 204t-153.5 554v2q0 351 153 554t420 203t420 -203t153 -554v-2q0 -351 -153 -554.5t-420 -203.5zM701 202q128 0 198 137t70 382v2q0 246 -70 382t-198 136q-127 0 -197 -136t-70 -382v-2q0 -245 70 -382t197 -137z" />
    <glyph glyph-name="one" unicode="1" horiz-adv-x="1048" 
d="M499 0v1158h-18l-354 -246v272l373 259h301v-1443h-302z" />
    <glyph glyph-name="two" unicode="2" horiz-adv-x="1317" 
d="M146 0v203l465 459q155 150 206.5 223.5t51.5 147.5v3q0 94 -60 151.5t-162 57.5q-106 0 -172 -64t-66 -167v-5h-279l-1 4q0 208 147.5 337.5t384.5 129.5q223 0 364 -116.5t141 -302.5v-3q0 -124 -76 -243t-272 -300l-267 -249v-23h636v-243h-1041z" />
    <glyph glyph-name="three" unicode="3" horiz-adv-x="1370" 
d="M685 -32q-242 0 -394 119t-167 314l-1 13h289l1 -11q10 -85 83.5 -138.5t188.5 -53.5t185 58t70 150v2q0 103 -73 158.5t-205 55.5h-165v215h161q113 0 181.5 54.5t68.5 142.5v2q0 90 -59.5 142t-165.5 52t-173 -53.5t-76 -143.5l-1 -9h-278l1 12q16 194 158.5 310
t368.5 116q231 0 370.5 -106.5t139.5 -279.5v-2q0 -130 -84 -217.5t-217 -114.5v-6q163 -15 259 -105t96 -235v-2q0 -197 -155 -318t-407 -121z" />
    <glyph glyph-name="four" unicode="4" horiz-adv-x="1407" 
d="M815 0v265h-707v237q259 460 571 941h424v-936h188v-242h-188v-265h-288zM380 499h441v715h-16q-244 -375 -425 -699v-16z" />
    <glyph glyph-name="five" unicode="5" horiz-adv-x="1359" 
d="M693 -37q-227 0 -372 120t-158 305l-1 14h274l2 -7q16 -82 86.5 -136.5t169.5 -54.5q116 0 189.5 74t73.5 190v2q0 115 -73.5 188t-188.5 73q-110 0 -183 -62q-44 -36 -67 -80h-259l67 854h902v-240h-667l-36 -411h18q44 74 125 115.5t183 41.5q202 0 332.5 -133.5
t130.5 -339.5v-2q0 -228 -152.5 -369.5t-395.5 -141.5z" />
    <glyph glyph-name="six" unicode="6" horiz-adv-x="1400" 
d="M721 -37q-128 0 -235 46t-188.5 135.5t-127 233.5t-45.5 330v2q0 361 159.5 565.5t437.5 204.5q206 0 352 -109.5t179 -281.5l2 -10h-295l-4 9q-26 69 -86.5 110t-146.5 41q-101 0 -170.5 -63.5t-102 -165t-38.5 -238.5q-1 -11 -1 -33h20q43 92 137.5 151.5t234.5 59.5
q209 0 340 -133.5t131 -339.5v-2q0 -222 -155 -367t-398 -145zM456 471q0 -114 76 -191.5t187 -77.5q110 0 186.5 76t76.5 187v2q0 113 -74 187t-187 74t-189 -72.5t-76 -183.5v-1z" />
    <glyph glyph-name="seven" unicode="7" horiz-adv-x="1238" 
d="M210 0l615 1186v17h-728v241h1032v-244l-603 -1200h-316z" />
    <glyph glyph-name="eight" unicode="8" horiz-adv-x="1421" 
d="M711 -32q-260 0 -423 117.5t-163 305.5v2q0 139 93.5 237.5t243.5 128.5v6q-128 31 -206 117.5t-78 202.5v2q0 169 149.5 278.5t383.5 109.5t383.5 -109.5t149.5 -278.5v-2q0 -116 -78 -202t-206 -118v-6q150 -29 243.5 -128t93.5 -238v-2q0 -188 -163 -305.5
t-423 -117.5zM711 856q104 0 169 56t65 144v2q0 88 -65.5 143.5t-168.5 55.5q-104 0 -169.5 -55.5t-65.5 -143.5v-2q0 -89 65.5 -144.5t169.5 -55.5zM711 188q118 0 194 62.5t76 160.5v2q0 98 -75.5 161t-194.5 63q-120 0 -195.5 -63t-75.5 -161v-2q0 -98 76 -160.5
t195 -62.5z" />
    <glyph glyph-name="nine" unicode="9" horiz-adv-x="1400" 
d="M680 1481q127 0 234 -46t188.5 -135.5t127.5 -234t46 -329.5v-2q0 -361 -160 -565.5t-438 -204.5q-206 0 -351.5 109.5t-179.5 281.5l-2 9h296l3 -9q27 -69 87.5 -110t145.5 -41q76 0 135 35.5t95.5 100t57 148t24.5 184.5v32h-20q-43 -92 -137.5 -151.5t-234.5 -59.5
q-209 0 -339.5 133.5t-130.5 339.5v2q0 222 155 367.5t398 145.5zM680 716q113 0 188.5 72t75.5 183v2q0 113 -76 190.5t-186 77.5t-186.5 -76t-76.5 -186v-2q0 -114 74 -187.5t187 -73.5z" />
    <glyph glyph-name="colon" unicode=":" horiz-adv-x="712" 
d="M356 699q-76 0 -126 49.5t-50 124.5q0 74 50 123.5t126 49.5q77 0 126.5 -49t49.5 -124t-49.5 -124.5t-126.5 -49.5zM356 -25q-76 0 -126 49.5t-50 124.5q0 74 50 123.5t126 49.5q77 0 126.5 -49t49.5 -124t-49.5 -124.5t-126.5 -49.5z" />
    <glyph glyph-name="semicolon" unicode=";" horiz-adv-x="712" 
d="M356 699q-76 0 -126 49.5t-50 124.5q0 74 50 123.5t126 49.5q77 0 126.5 -49t49.5 -124t-49.5 -124.5t-126.5 -49.5zM119 -388l88 619h289l-182 -619h-195z" />
    <glyph glyph-name="less" unicode="&#x3c;" 
d="M150 419v327l1076 378v-264l-865 -274l865 -273v-271z" />
    <glyph glyph-name="equal" unicode="=" 
d="M138 727v263h1100v-263h-1100zM138 176v263h1100v-263h-1100z" />
    <glyph glyph-name="greater" unicode="&#x3e;" 
d="M1226 746v-327l-1076 -377v264l864 273l-864 274v271z" />
    <glyph glyph-name="questionmark" unicode="?" horiz-adv-x="1141" 
d="M390 453l-2 58q-10 116 32.5 191t147.5 137q97 58 132.5 104t35.5 116v2q0 71 -52.5 117t-137.5 46q-86 0 -139 -50.5t-57 -135.5h-2l-270 -1v2q4 188 132 302.5t354 114.5q213 0 344 -107.5t131 -278.5v-2q0 -111 -53 -193t-161 -145q-100 -58 -135 -104t-35 -120v-53
h-265zM533 -29q-84 0 -133 45t-49 122q0 78 49 123t133 45t132.5 -45t48.5 -123q0 -77 -48.5 -122t-132.5 -45z" />
    <glyph glyph-name="at" unicode="@" horiz-adv-x="1899" 
d="M989 -218q-258 0 -453.5 103t-302 291.5t-106.5 437.5v2q0 244 106.5 433.5t299 294.5t439.5 105q237 0 420.5 -93t285 -262t101.5 -387v-2q0 -238 -106 -377.5t-287 -139.5q-92 0 -156 40.5t-81 110.5l-1 6h-18q-64 -154 -240 -154q-156 0 -251 116t-95 306v2
q0 182 93 295t243 113q80 0 142 -37.5t92 -104.5h18v120h202v-535q0 -53 25 -83t71 -30q76 0 121 91.5t45 245.5v2q0 271 -172.5 434.5t-457.5 163.5q-290 0 -473 -189.5t-183 -489.5v-2q0 -305 187.5 -485t506.5 -180q179 0 272 35v-160q-120 -37 -287 -37zM939 375
q80 0 127 62.5t47 169.5v2q0 107 -46.5 169.5t-126.5 62.5q-79 0 -124 -61.5t-45 -170.5v-2q0 -108 44.5 -170t123.5 -62z" />
    <glyph glyph-name="A" unicode="A" horiz-adv-x="1500" 
d="M72 0l501 1443h355l502 -1443h-318l-107 350h-509l-107 -350h-317zM742 1155l-177 -579h371l-176 579h-18z" />
    <glyph glyph-name="B" unicode="B" horiz-adv-x="1420" 
d="M175 0v1443h631q209 0 328 -96t119 -263v-2q0 -114 -75 -202.5t-186 -104.5v-18q144 -11 237 -108t93 -235v-2q0 -190 -134 -301t-365 -111h-648zM729 1219h-252v-376h227q122 0 187 48.5t65 138.5v2q0 88 -59.5 137.5t-167.5 49.5zM739 644h-262v-419h269
q131 0 199.5 54t68.5 157v2q0 100 -70.5 153t-204.5 53z" />
    <glyph glyph-name="C" unicode="C" horiz-adv-x="1518" 
d="M788 -37q-313 0 -495 203.5t-182 554.5v2q0 351 181.5 554t495.5 203q169 0 307 -67t221.5 -186t97.5 -270v-12h-294v7q-23 122 -113.5 197t-218.5 75q-170 0 -269 -134.5t-99 -366.5v-2q0 -233 99 -367.5t270 -134.5q129 0 217.5 69.5t112.5 185.5l2 8h294l-1 -11
q-23 -228 -194.5 -368t-431.5 -140z" />
    <glyph glyph-name="D" unicode="D" horiz-adv-x="1531" 
d="M175 0v1443h568q322 0 499.5 -186t177.5 -525v-2q0 -349 -176.5 -539.5t-500.5 -190.5h-568zM477 249h218q201 0 309 123t108 353v2q0 222 -110 344.5t-307 122.5h-218v-945z" />
    <glyph glyph-name="E" unicode="E" horiz-adv-x="1274" 
d="M175 0v1443h956v-249h-654v-348h617v-232h-617v-365h654v-249h-956z" />
    <glyph glyph-name="F" unicode="F" horiz-adv-x="1224" 
d="M175 0v1443h945v-249h-643v-387h587v-239h-587v-568h-302z" />
    <glyph glyph-name="G" unicode="G" horiz-adv-x="1557" 
d="M803 -37q-322 0 -507 203t-185 556v2q0 347 185 551.5t500 204.5q254 0 427.5 -133.5t205.5 -350.5l2 -10h-300l-2 10q-31 107 -118.5 167.5t-214.5 60.5q-175 0 -276 -133.5t-101 -363.5v-2q0 -234 105 -370t284 -136q149 0 242.5 83.5t97.5 219.5l1 27h-312v220h606
v-183q0 -287 -172.5 -455t-467.5 -168z" />
    <glyph glyph-name="H" unicode="H" horiz-adv-x="1604" 
d="M175 0v1443h302v-586h650v586h302v-1443h-302v608h-650v-608h-302z" />
    <glyph glyph-name="I" unicode="I" horiz-adv-x="652" 
d="M175 0v1443h302v-1443h-302z" />
    <glyph glyph-name="J" unicode="J" horiz-adv-x="1231" 
d="M563 -37q-221 0 -351 121.5t-136 326.5v8h293v-6q5 -86 54.5 -137.5t135.5 -51.5q96 0 145.5 56.5t49.5 165.5v997h302v-999q0 -228 -129.5 -354.5t-363.5 -126.5z" />
    <glyph glyph-name="K" unicode="K" horiz-adv-x="1453" 
d="M175 0v1443h302v-648h18l533 648h336l-526 -632l563 -811h-362l-419 613l-143 -172v-441h-302z" />
    <glyph glyph-name="L" unicode="L" horiz-adv-x="1218" 
d="M175 0v1443h302v-1194h642v-249h-944z" />
    <glyph glyph-name="M" unicode="M" horiz-adv-x="1857" 
d="M175 0v1443h346l399 -1056h18l398 1056h346v-1443h-269v982h-20l-370 -982h-189l-370 982h-20v-982h-269z" />
    <glyph glyph-name="N" unicode="N" horiz-adv-x="1573" 
d="M175 0v1443h252l666 -919h16v919h289v-1443h-250l-668 923h-16v-923h-289z" />
    <glyph glyph-name="O" unicode="O" horiz-adv-x="1611" 
d="M806 -37q-321 0 -508 204t-187 554v2q0 350 188 553.5t507 203.5t506.5 -204t187.5 -553v-2q0 -349 -187 -553.5t-507 -204.5zM806 219q176 0 281 136.5t105 365.5v2q0 229 -105 365t-281 136t-281.5 -136t-105.5 -365v-2q0 -229 104.5 -365.5t282.5 -136.5z" />
    <glyph glyph-name="P" unicode="P" horiz-adv-x="1380" 
d="M175 0v1443h595q228 0 367.5 -135t139.5 -358v-2q0 -223 -139.5 -358t-367.5 -135h-293v-455h-302zM696 1204h-219v-513h219q130 0 202.5 67t72.5 189v2q0 122 -72.5 188.5t-202.5 66.5z" />
    <glyph glyph-name="Q" unicode="Q" horiz-adv-x="1611" 
d="M806 -37q-321 0 -508 204t-187 554v2q0 350 188 553.5t507 203.5t506.5 -204t187.5 -553v-2q0 -198 -62 -352.5t-179 -252.5l194 -259h-281l-110 147q-117 -41 -256 -41zM806 219q47 0 87 10l-185 246h281l93 -125q110 138 110 371v2q0 229 -105 365t-281 136
t-281.5 -136t-105.5 -365v-2q0 -229 104.5 -365.5t282.5 -136.5z" />
    <glyph glyph-name="R" unicode="R" horiz-adv-x="1422" 
d="M175 0v1443h601q244 0 380 -122.5t136 -336.5v-2q0 -140 -69.5 -250.5t-191.5 -158.5l304 -573h-342l-269 528h-247v-528h-302zM477 748h266q113 0 176.5 60.5t63.5 167.5v2q0 105 -65.5 167t-178.5 62h-262v-459z" />
    <glyph glyph-name="S" unicode="S" horiz-adv-x="1383" 
d="M691 -37q-257 0 -412 114t-168 307l-1 16h291l1 -10q8 -81 89.5 -131t207.5 -50q121 0 196.5 52.5t75.5 135.5v1q0 71 -58 114t-192 71l-152 31q-222 45 -325.5 149t-103.5 271v1q0 199 154 322t396 123q246 0 392.5 -116.5t161.5 -302.5l1 -13h-284l-2 12
q-13 79 -85 127t-184 48q-112 -1 -180 -48.5t-68 -128.5v-1q0 -71 56.5 -115t183.5 -70l153 -31q229 -47 333.5 -144.5t104.5 -265.5v-1q0 -215 -156.5 -341t-425.5 -126z" />
    <glyph glyph-name="T" unicode="T" horiz-adv-x="1352" 
d="M525 0v1194h-433v249h1168v-249h-433v-1194h-302z" />
    <glyph glyph-name="U" unicode="U" horiz-adv-x="1557" 
d="M779 -37q-276 0 -440.5 146.5t-164.5 388.5v945h302v-918q0 -142 79.5 -224t223.5 -82t223 82t79 224v918h302v-945q0 -242 -163.5 -388.5t-440.5 -146.5z" />
    <glyph glyph-name="V" unicode="V" horiz-adv-x="1477" 
d="M553 0l-481 1443h339l319 -1107h18l318 1107h340l-481 -1443h-372z" />
    <glyph glyph-name="W" unicode="W" horiz-adv-x="2067" 
d="M470 0l-382 1443h314l225 -1031h16l263 1031h255l268 -1031h16l223 1031h312l-383 -1443h-283l-273 972h-16l-270 -972h-285z" />
    <glyph glyph-name="X" unicode="X" horiz-adv-x="1494" 
d="M88 0l458 727v3l-456 713h356l306 -520h12l304 520h338l-473 -718v-4l466 -721h-344l-316 506h-10l-315 -506h-326z" />
    <glyph glyph-name="Y" unicode="Y" horiz-adv-x="1450" 
d="M574 0v539l-502 904h327l318 -607h18l317 607h327l-503 -904v-539h-302z" />
    <glyph glyph-name="Z" unicode="Z" horiz-adv-x="1384" 
d="M135 0v197l726 979v18h-709v249h1077v-196l-724 -980v-18h744v-249h-1114z" />
    <glyph glyph-name="bracketleft" unicode="[" horiz-adv-x="878" 
d="M252 -365v1887h554v-215h-274v-1457h274v-215h-554z" />
    <glyph glyph-name="backslash" unicode="\" horiz-adv-x="685" 
d="M269 1522l416 -1887h-269l-416 1887h269z" />
    <glyph glyph-name="bracketright" unicode="]" horiz-adv-x="878" 
d="M627 -365h-554v215h273v1457h-273v215h554v-1887z" />
    <glyph glyph-name="asciicircum" unicode="^" 
d="M374 768h-283l465 675h263l465 -675h-283l-313 472z" />
    <glyph glyph-name="underscore" unicode="_" horiz-adv-x="1285" 
d="M0 -363v263h1285v-263h-1285z" />
    <glyph glyph-name="grave" unicode="`" horiz-adv-x="1024" 
d="M527 1249l-236 353h276l167 -353h-207z" />
    <glyph glyph-name="a" unicode="a" horiz-adv-x="1208" 
d="M446 -17q-159 0 -259 90.5t-100 239.5v2q0 148 110.5 233t316.5 97l266 16v91q0 72 -47.5 110.5t-137.5 38.5q-159 0 -195 -102l-2 -4h-270l1 9q17 146 146.5 233.5t335.5 87.5q218 0 337.5 -98t119.5 -275v-752h-288v146h-18q-42 -77 -125 -120t-191 -43zM372 331
q0 -62 47.5 -98.5t124.5 -36.5q101 0 168.5 59t67.5 146v81l-222 -14q-186 -12 -186 -135v-2z" />
    <glyph glyph-name="b" unicode="b" horiz-adv-x="1334" 
d="M796 -17q-116 0 -201.5 49t-128.5 139h-18v-171h-292v1522h292v-597h18q42 90 129.5 142t200.5 52q209 0 328 -151t119 -416v-2q0 -263 -120 -415t-327 -152zM696 225q116 0 183 86.5t67 238.5v2q0 151 -67 238t-183 87q-115 0 -183 -87.5t-68 -238.5v-2
q0 -151 67.5 -237.5t183.5 -86.5z" />
    <glyph glyph-name="c" unicode="c" horiz-adv-x="1203" 
d="M631 -23q-258 0 -398.5 150t-140.5 425v2q0 272 140.5 421.5t398.5 149.5q215 0 343 -108.5t148 -296.5v-3h-272l-1 2q-15 83 -70.5 130t-146.5 47q-118 0 -180.5 -88.5t-62.5 -253.5v-2q0 -167 63 -256.5t180 -89.5q178 0 217 167l2 4h270l-1 -6q-23 -183 -150 -288.5
t-339 -105.5z" />
    <glyph glyph-name="d" unicode="d" horiz-adv-x="1334" 
d="M539 -17q-207 0 -327 152t-120 415v2q0 265 119 416t328 151q113 0 200.5 -52t128.5 -142h18v597h292v-1522h-292v171h-18q-43 -90 -128 -139t-201 -49zM638 225q117 0 184 86.5t67 237.5v2q0 151 -67.5 238.5t-183.5 87.5q-115 0 -182 -87t-67 -238v-2
q0 -152 66.5 -238.5t182.5 -86.5z" />
    <glyph glyph-name="e" unicode="e" horiz-adv-x="1231" 
d="M630 -23q-251 0 -394.5 153.5t-143.5 418.5v1q0 263 142.5 419t383.5 156q239 0 380 -151t141 -402v-91h-758q2 -135 70 -210.5t185 -75.5q86 0 143 35t76 75l3 6h272l-2 -10q-11 -44 -33.5 -87t-64 -86.5t-95.5 -76.5t-133 -53.5t-172 -20.5zM623 906
q-97 0 -161.5 -63.5t-77.5 -178.5h475q-13 118 -76 180t-160 62z" />
    <glyph glyph-name="f" unicode="f" horiz-adv-x="836" 
d="M231 0v881h-178v220h178v103q0 167 90.5 248t287.5 81q73 0 150 -11v-195q-36 6 -87 6q-82 0 -118.5 -37.5t-36.5 -111.5v-83h233v-220h-227v-881h-292z" />
    <glyph glyph-name="g" unicode="g" horiz-adv-x="1322" 
d="M632 -387q-224 0 -356 85.5t-150 229.5v5h289l1 -4q12 -49 69.5 -78.5t152.5 -29.5q117 0 182 52.5t65 148.5v205h-18q-46 -87 -130.5 -133t-199.5 -46q-206 0 -327 145t-121 382v2q0 245 121.5 393.5t331.5 148.5q112 0 197.5 -52t130.5 -146h14v180h292v-1067
q0 -193 -147 -307t-397 -114zM636 272q117 0 184.5 83.5t67.5 220.5v2q0 137 -67.5 220.5t-184.5 83.5q-116 0 -182 -83t-66 -221v-2q0 -138 65.5 -221t182.5 -83z" />
    <glyph glyph-name="h" unicode="h" horiz-adv-x="1295" 
d="M156 0v1522h292v-591h18q38 91 119.5 142.5t196.5 51.5q183 0 280 -107.5t97 -305.5v-712h-292v646q0 237 -202 237q-101 0 -159 -67t-58 -179v-637h-292z" />
    <glyph glyph-name="i" unicode="i" horiz-adv-x="588" 
d="M295 1270q-68 0 -116.5 47.5t-48.5 114.5q0 68 48.5 115.5t116.5 47.5t116 -47.5t48 -115.5q0 -67 -48 -114.5t-116 -47.5zM148 0v1101h292v-1101h-292z" />
    <glyph glyph-name="j" unicode="j" horiz-adv-x="588" 
d="M294 1270q-68 0 -116.5 47.5t-48.5 114.5q0 68 48.5 115.5t116.5 47.5t116 -47.5t48 -115.5q0 -67 -48 -114.5t-116 -47.5zM49 -375q-27 0 -78 3v220q11 -1 37 -1q75 0 107.5 28.5t32.5 96.5v1129h292v-1137q0 -168 -99.5 -253.5t-291.5 -85.5z" />
    <glyph glyph-name="k" unicode="k" horiz-adv-x="1232" 
d="M156 0v1522h292v-856h18l368 435h331l-423 -467l452 -634h-345l-321 454l-80 -85v-369h-292z" />
    <glyph glyph-name="l" unicode="l" horiz-adv-x="604" 
d="M156 0v1522h292v-1522h-292z" />
    <glyph glyph-name="m" unicode="m" horiz-adv-x="1909" 
d="M146 0v1101h292v-172h18q35 93 116 144.5t189 51.5q112 0 192 -53.5t114 -149.5h18q38 92 127.5 147.5t204.5 55.5q164 0 260 -99.5t96 -269.5v-756h-292v683q0 200 -182 200q-87 0 -140.5 -58t-53.5 -148v-677h-292v696q0 88 -47.5 137.5t-133.5 49.5q-85 0 -139.5 -62
t-54.5 -157v-664h-292z" />
    <glyph glyph-name="n" unicode="n" horiz-adv-x="1285" 
d="M146 0v1101h292v-170h18q38 91 119.5 142.5t196.5 51.5q183 0 280 -107.5t97 -305.5v-712h-292v646q0 237 -202 237q-101 0 -159 -67t-58 -179v-637h-292z" />
    <glyph glyph-name="o" unicode="o" horiz-adv-x="1269" 
d="M635 -23q-254 0 -398.5 152.5t-144.5 420.5v2q0 266 145.5 419.5t397.5 153.5t397.5 -153t145.5 -420v-2q0 -269 -144.5 -421t-398.5 -152zM635 206q116 0 180 90.5t64 253.5v2q0 162 -64.5 253t-179.5 91q-116 0 -180 -91t-64 -253v-2q0 -163 63.5 -253.5t180.5 -90.5z
" />
    <glyph glyph-name="p" unicode="p" horiz-adv-x="1325" 
d="M146 -365v1466h292v-170h18q43 89 128.5 138.5t201.5 49.5q207 0 327 -152t120 -415v-2q0 -265 -119 -416t-328 -151q-113 0 -200.5 51.5t-129.5 141.5h-18v-541h-292zM686 225q116 0 183 87t67 238v2q0 151 -67 238t-183 87t-183.5 -87t-67.5 -238v-2q0 -151 68 -238
t183 -87z" />
    <glyph glyph-name="q" unicode="q" horiz-adv-x="1326" 
d="M889 -365v533h-18q-41 -88 -127.5 -136.5t-204.5 -48.5q-206 0 -325.5 151.5t-119.5 415.5v2q0 266 119.5 416.5t330.5 150.5q111 0 198.5 -53t133.5 -146h13v181h292v-1466h-292zM641 225q116 0 184 87t68 237v2q0 151 -68.5 238.5t-183.5 87.5q-116 0 -183 -87
t-67 -238v-2q0 -152 67 -238.5t183 -86.5z" />
    <glyph glyph-name="r" unicode="r" horiz-adv-x="891" 
d="M146 0v1101h292v-171h18q26 90 98.5 139.5t179.5 49.5q58 0 109 -14v-255q-75 17 -134 17q-125 0 -198 -67t-73 -184v-616h-292z" />
    <glyph glyph-name="s" unicode="s" horiz-adv-x="1160" 
d="M584 -23q-218 0 -346 88.5t-144 234.5l-1 4h287l2 -4q18 -54 70 -85.5t135 -31.5q84 0 136 33t52 88v2q0 45 -36.5 73.5t-119.5 47.5l-184 39q-314 67 -314 313v1q0 155 126.5 250t332.5 95q209 0 330.5 -91t130.5 -230v-4h-271l-1 5q-13 48 -63 81t-127 33t-125 -33
t-48 -88v-1q0 -45 35 -72t120 -46l183 -39q166 -35 244.5 -108t78.5 -194v-1q0 -162 -135 -261t-348 -99z" />
    <glyph glyph-name="t" unicode="t" horiz-adv-x="845" 
d="M603 -4q-201 0 -288.5 70t-87.5 231v584h-170v220h170v263h295v-263h227v-220h-227v-517q0 -75 33.5 -109t107.5 -34q39 0 86 5v-217q-67 -13 -146 -13z" />
    <glyph glyph-name="u" unicode="u" horiz-adv-x="1285" 
d="M510 -23q-184 0 -279 107t-95 305v712h292v-645q0 -119 47.5 -178t149.5 -59q106 0 164 66t58 180v636h292v-1101h-292v170h-18q-38 -91 -120.5 -142t-198.5 -51z" />
    <glyph glyph-name="v" unicode="v" horiz-adv-x="1194" 
d="M434 0l-383 1101h313l228 -828h18l226 828h307l-381 -1101h-328z" />
    <glyph glyph-name="w" unicode="w" horiz-adv-x="1735" 
d="M355 0l-294 1101h295l164 -797h18l193 797h278l194 -797h18l164 797h289l-293 -1101h-310l-197 768h-18l-195 -768h-306z" />
    <glyph glyph-name="x" unicode="x" horiz-adv-x="1189" 
d="M66 0l345 545l-348 556h335l195 -365h18l195 365h318l-347 -544l349 -557h-323l-206 364h-18l-205 -364h-308z" />
    <glyph glyph-name="y" unicode="y" horiz-adv-x="1223" 
d="M277 -388q-54 0 -105 3v220q30 -3 76 -3q154 0 185 126l10 42l-387 1101h321l231 -834h20l231 834h308l-375 -1100q-72 -215 -190 -302t-325 -87z" />
    <glyph glyph-name="z" unicode="z" horiz-adv-x="1160" 
d="M121 0v168l561 695v18h-553v220h898v-186l-529 -677v-18h542v-220h-919z" />
    <glyph glyph-name="braceleft" unicode="{" horiz-adv-x="878" 
d="M732 -365q-222 0 -322.5 90t-100.5 288v226q0 110 -53.5 156t-182.5 48v278q129 1 182.5 47t53.5 157v224q0 196 100 284.5t323 88.5h74v-212h-44q-95 0 -134.5 -44.5t-39.5 -150.5v-268q0 -108 -67 -171.5t-195 -77.5v-32q128 -14 195 -77.5t67 -171.5v-275
q0 -106 40 -150.5t134 -44.5h44v-212h-74z" />
    <glyph glyph-name="bar" unicode="|" horiz-adv-x="613" 
d="M175 -365v1808h263v-1808h-263z" />
    <glyph glyph-name="braceright" unicode="}" horiz-adv-x="878" 
d="M147 -365h-74v212h44q94 0 134 44.5t40 150.5v275q0 108 67 171.5t195 77.5v32q-128 14 -195 77.5t-67 171.5v268q0 106 -40 150.5t-134 44.5h-44v212h74q222 0 322 -88.5t100 -284.5v-224q0 -111 54 -157t183 -47v-278q-129 -2 -183 -48t-54 -156v-226q0 -198 -100 -288
t-322 -90z" />
    <glyph glyph-name="asciitilde" unicode="~" 
d="M940 387q-63 0 -136.5 23t-130 50t-124.5 50t-121 23q-189 0 -290 -114v253q114 114 298 114q63 0 136.5 -23t129.5 -50t124.5 -50t121.5 -23q187 0 290 114v-253q-116 -114 -298 -114z" />
    <glyph glyph-name="copyright" unicode="&#xa9;" horiz-adv-x="1841" 
d="M1730 725v-7q0 -166 -63 -315.5t-170 -257t-256.5 -170.5t-316.5 -63h-7q-166 0 -315.5 63t-257 170.5t-170.5 257t-63 315.5v7q0 167 63 316.5t170.5 256.5t257 170t315.5 63h7q167 0 316.5 -63t256.5 -170t170 -256.5t63 -316.5zM1554 725q0 174 -83.5 318.5t-228 228
t-318.5 83.5h-7q-174 0 -318.5 -83.5t-228 -228t-83.5 -318.5v-7q0 -174 83.5 -318.5t228 -228t318.5 -83.5h7q174 0 318.5 83.5t228 228t83.5 318.5v7zM934 336q-176 0 -277 103t-101 282v1q0 180 100.5 283t276.5 103q147 0 245.5 -82.5t106.5 -208.5v-11h-195v5
q-8 54 -51 89t-106 35q-80 0 -125.5 -56.5t-45.5 -155.5v-1q0 -100 46 -157t126 -57q62 0 104 34t52 89l1 7h195l-1 -10q-9 -129 -105.5 -210.5t-245.5 -81.5z" />
    <glyph glyph-name="guillemetleft" unicode="&#xab;" horiz-adv-x="1431" 
d="M502 151l-344 411v8l349 411h271l-347 -409v-11l347 -410h-276zM998 151l-344 411v8l348 411h271l-346 -409v-11l346 -410h-275z" />
    <glyph glyph-name="registered" unicode="&#xae;" horiz-adv-x="1464" 
d="M1353 863v-7q0 -128 -48 -242.5t-130.5 -196.5t-197 -130.5t-241.5 -48.5h-7q-170 0 -312 82t-224 224t-82 312v7q0 127 48.5 241.5t130.5 197t196.5 130.5t242.5 48h7q127 0 241.5 -48.5t196.5 -130.5t130.5 -196.5t48.5 -241.5zM1189 863q0 191 -131.5 322t-321.5 131
h-7q-191 0 -322.5 -131.5t-131.5 -321.5v-7q0 -190 131.5 -322t322.5 -132h7q190 0 321.5 131.5t131.5 322.5v7zM465 551v616h296q128 0 194 -55.5t66 -159.5v-1q0 -53 -28 -100.5t-77 -70.5l124 -229h-216l-103 198h-63v-198h-193zM658 881h79q39 0 62.5 19t23.5 49v1
q0 30 -23.5 49.5t-61.5 19.5h-80v-138z" />
    <glyph glyph-name="degree" unicode="&#xb0;" horiz-adv-x="992" 
d="M496 655q-164 0 -274 109.5t-110 269.5v2q0 160 110 269.5t274 109.5t274 -109.5t110 -269.5v-2q0 -160 -110 -269.5t-274 -109.5zM496 865q71 0 117 48.5t46 120.5v2q0 72 -46 120.5t-117 48.5t-117 -48t-46 -121v-2q0 -72 45.5 -120.5t117.5 -48.5z" />
    <glyph glyph-name="plusminus" unicode="&#xb1;" 
d="M172 581v263h387v305h258v-305h387v-263h-387v-307h-258v307h-387zM172 16v226h1032v-226h-1032z" />
    <glyph glyph-name="guillemetright" unicode="&#xbb;" horiz-adv-x="1431" 
d="M929 981l344 -411v-8l-348 -411h-271l346 409v11l-346 410h275zM434 981l344 -411v-8l-349 -411h-271l347 409v11l-347 410h276z" />
    <glyph glyph-name="divide" unicode="&#xf7;" 
d="M689 829q-69 0 -114 44.5t-45 111.5t45 111.5t114 44.5t113.5 -44.5t44.5 -111.5t-44.5 -111.5t-113.5 -44.5zM104 451v263h1169v-263h-1169zM688 25q-69 0 -113.5 44.5t-44.5 111.5t44.5 111.5t113.5 44.5t114 -44.5t45 -111.5t-45 -111.5t-114 -44.5z" />
    <glyph glyph-name="ka.cyrl" unicode="&#x43a;" horiz-adv-x="1237" 
d="M504 461h-56v-461h-292v1101h292v-432h52l328 432h331l-418 -504l440 -597h-347z" />
    <glyph glyph-name="Io.cyrl" unicode="&#x401;" horiz-adv-x="1294" 
d="M428 1608q-61 0 -105 43.5t-44 104.5t44 104t105 43t105 -43t44 -104t-44 -104.5t-105 -43.5zM899 1608q-61 0 -105 43.5t-44 104.5t44 104t105 43q62 0 105.5 -43t43.5 -104t-43.5 -104.5t-105.5 -43.5zM185 0v1443h956v-249h-654v-348h617v-232h-617v-365h654v-249
h-956z" />
    <glyph glyph-name="A.cyrl" unicode="&#x410;" horiz-adv-x="1520" 
d="M82 0l501 1443h355l502 -1443h-318l-107 350h-509l-107 -350h-317zM752 1155l-177 -579h371l-176 579h-18z" />
    <glyph glyph-name="Be.cyrl" unicode="&#x411;" horiz-adv-x="1392" 
d="M185 0v1443h959v-249h-657v-293h280q227 0 368.5 -123t141.5 -322v-2q-1 -204 -139.5 -329t-360.5 -125h-592zM487 241h215q126 0 196 55t70 158v2q0 104 -70 159.5t-197 55.5h-214v-430z" />
    <glyph glyph-name="Ve.cyrl" unicode="&#x412;" horiz-adv-x="1440" 
d="M185 0v1443h631q209 0 328 -96t119 -263v-2q0 -114 -75 -202.5t-186 -104.5v-18q144 -11 237 -108t93 -235v-2q0 -190 -134 -301t-365 -111h-648zM739 1219h-252v-376h227q122 0 187 48.5t65 138.5v2q0 88 -59.5 137.5t-167.5 49.5zM749 644h-262v-419h269
q131 0 199.5 54t68.5 157v2q0 100 -70.5 153t-204.5 53z" />
    <glyph glyph-name="Ghe.cyrl" unicode="&#x413;" horiz-adv-x="1225" 
d="M487 0h-302v1443h930v-249h-628v-1194z" />
    <glyph glyph-name="De.cyrl" unicode="&#x414;" horiz-adv-x="1616" 
d="M314 -285h-274v534h101q72 50 102 136.5t40 241.5l50 816h1033v-1194h180v-534h-273v285h-959v-285zM561 605q-8 -126 -28 -206.5t-63 -132.5v-17h594v945h-465z" />
    <glyph glyph-name="Ie.cyrl" unicode="&#x415;" horiz-adv-x="1294" 
d="M185 0v1443h956v-249h-654v-348h617v-232h-617v-365h654v-249h-956z" />
    <glyph glyph-name="Zhe.cyrl" unicode="&#x416;" horiz-adv-x="2147" 
d="M1219 852h53l450 591h328l-535 -689l576 -754h-358l-459 613h-55v-613h-294v613h-55l-459 -613h-354l571 748l-538 695h331l450 -591h54v591h294v-591z" />
    <glyph glyph-name="Ze.cyrl" unicode="&#x417;" horiz-adv-x="1363" 
d="M479 615v236h191q111 0 177 54t66 144v2q0 83 -63 130.5t-175 47.5t-179.5 -49t-74.5 -137v-5h-281l1 11q10 198 156 314.5t386 116.5q230 0 374.5 -108t144.5 -284v-2q0 -120 -76 -210t-196 -116v-18q145 -14 234 -106.5t89 -236.5v-2q0 -125 -75.5 -224.5t-207 -154.5
t-295.5 -55q-247 0 -403 122t-164 318l-1 7h291l1 -5q7 -89 82 -140t198 -51q120 0 193 55.5t73 148.5v2q0 91 -72 143t-200 52h-194z" />
    <glyph glyph-name="Ii.cyrl" unicode="&#x418;" horiz-adv-x="1629" 
d="M185 0v1443h301v-965h20l649 965h289v-1443h-301v964h-19l-649 -964h-290z" />
    <glyph glyph-name="Iishort.cyrl" unicode="&#x419;" horiz-adv-x="1629" 
d="M825 1588q-164 0 -265 93t-101 241h215q2 -76 43.5 -125t107.5 -49q67 0 108 49t43 125h215q0 -149 -100.5 -241.5t-265.5 -92.5zM185 0v1443h301v-965h20l649 965h289v-1443h-301v964h-19l-649 -964h-290z" />
    <glyph glyph-name="Ka.cyrl" unicode="&#x41a;" horiz-adv-x="1473" 
d="M487 0h-302v1443h302v-614h51l500 614h336l-581 -704l621 -739h-365l-509 598h-53v-598z" />
    <glyph glyph-name="El.cyrl" unicode="&#x41b;" horiz-adv-x="1539" 
d="M159 -13q-68 0 -109 13v264q33 -7 67 -7q43 0 75.5 17t52.5 45t33.5 72t20 90.5t9.5 108.5l43 853h1003v-1443h-302v1194h-431l-35 -624q-7 -138 -33 -241.5t-75 -182t-129 -119t-190 -40.5z" />
    <glyph glyph-name="Em.cyrl" unicode="&#x41c;" horiz-adv-x="1877" 
d="M185 0v1443h346l399 -1056h18l398 1056h346v-1443h-269v982h-20l-370 -982h-189l-370 982h-20v-982h-269z" />
    <glyph glyph-name="En.cyrl" unicode="&#x41d;" horiz-adv-x="1624" 
d="M185 0v1443h302v-586h650v586h302v-1443h-302v608h-650v-608h-302z" />
    <glyph glyph-name="O.cyrl" unicode="&#x41e;" horiz-adv-x="1631" 
d="M816 -37q-321 0 -508 204t-187 554v2q0 350 188 553.5t507 203.5t506.5 -204t187.5 -553v-2q0 -349 -187 -553.5t-507 -204.5zM816 219q176 0 281 136.5t105 365.5v2q0 229 -105 365t-281 136t-281.5 -136t-105.5 -365v-2q0 -229 104.5 -365.5t282.5 -136.5z" />
    <glyph glyph-name="Pe.cyrl" unicode="&#x41f;" horiz-adv-x="1619" 
d="M1434 0h-302v1194h-645v-1194h-302v1443h1249v-1443z" />
    <glyph glyph-name="Er.cyrl" unicode="&#x420;" horiz-adv-x="1400" 
d="M185 0v1443h595q228 0 367.5 -135t139.5 -358v-2q0 -223 -139.5 -358t-367.5 -135h-293v-455h-302zM706 1204h-219v-513h219q130 0 202.5 67t72.5 189v2q0 122 -72.5 188.5t-202.5 66.5z" />
    <glyph glyph-name="Es.cyrl" unicode="&#x421;" horiz-adv-x="1538" 
d="M798 -37q-313 0 -495 203.5t-182 554.5v2q0 351 181.5 554t495.5 203q169 0 307 -67t221.5 -186t97.5 -270v-12h-294v7q-23 122 -113.5 197t-218.5 75q-170 0 -269 -134.5t-99 -366.5v-2q0 -233 99 -367.5t270 -134.5q129 0 217.5 69.5t112.5 185.5l2 8h294l-1 -11
q-23 -228 -194.5 -368t-431.5 -140z" />
    <glyph glyph-name="Te.cyrl" unicode="&#x422;" horiz-adv-x="1372" 
d="M535 0v1194h-433v249h1168v-249h-433v-1194h-302z" />
    <glyph glyph-name="U.cyrl" unicode="&#x423;" horiz-adv-x="1420" 
d="M389 -13q-30 0 -59.5 3t-45 6.5t-19.5 5.5v245q36 -9 88 -9q69 0 118 24.5t85 81.5l-479 1099h321l310 -802h18l299 802h318l-442 -1030q-47 -109 -91.5 -182t-104.5 -131t-138 -85.5t-178 -27.5z" />
    <glyph glyph-name="Ef.cyrl" unicode="&#x424;" horiz-adv-x="1863" 
d="M782 -30v154q-198 6 -347 77.5t-232.5 206t-83.5 316.5v2q0 181 84 315t233 205t346 78v149h299v-149q198 -6 347 -77.5t232.5 -206t83.5 -315.5v-2q0 -273 -181.5 -431t-481.5 -168v-154h-299zM427 724q0 -160 97 -255t262 -102v715q-165 -8 -262 -102.5t-97 -253.5v-2z
M1078 1082v-715q164 8 261 102t97 254v2q0 159 -96.5 254t-261.5 103z" />
    <glyph glyph-name="Ha.cyrl" unicode="&#x425;" horiz-adv-x="1514" 
d="M98 0l458 727v3l-456 713h356l306 -520h12l304 520h338l-473 -718v-4l466 -721h-344l-316 506h-10l-315 -506h-326z" />
    <glyph glyph-name="Tse.cyrl" unicode="&#x426;" horiz-adv-x="1686" 
d="M1343 -285v285h-1158v1443h302v-1194h645v1194h302v-1194h182v-534h-273z" />
    <glyph glyph-name="Che.cyrl" unicode="&#x427;" horiz-adv-x="1524" 
d="M1037 0v578h-18q-135 -80 -336 -80q-251 0 -397 148.5t-146 386.5v410h302v-390q0 -142 78 -220.5t223 -78.5q192 0 294 91v598h302v-1443h-302z" />
    <glyph glyph-name="Sha.cyrl" unicode="&#x428;" horiz-adv-x="2096" 
d="M185 0v1443h302v-1194h410v1194h302v-1194h410v1194h302v-1443h-1726z" />
    <glyph glyph-name="Shcha.cyrl" unicode="&#x429;" horiz-adv-x="2162" 
d="M185 0v1443h302v-1194h410v1194h302v-1194h410v1194h302v-1194h181v-534h-273v285h-1634z" />
    <glyph glyph-name="Hardsign.cyrl" unicode="&#x42a;" horiz-adv-x="1672" 
d="M429 0v1194h-337v249h639v-484h280q229 0 372 -132.5t143 -345.5v-2q0 -215 -138.5 -347t-361.5 -132h-597zM945 721h-214v-480h215q130 0 201 61.5t71 176.5v2q0 116 -71.5 178t-201.5 62z" />
    <glyph glyph-name="Yeru.cyrl" unicode="&#x42b;" horiz-adv-x="2017" 
d="M152 0v1443h302v-484h280q229 0 372 -132.5t143 -345.5v-2q0 -215 -138.5 -347t-361.5 -132h-597zM1530 0v1443h302v-1443h-302zM668 721h-214v-480h215q130 0 201 61.5t71 176.5v2q0 116 -71.5 178t-201.5 62z" />
    <glyph glyph-name="Softsign.cyrl" unicode="&#x42c;" horiz-adv-x="1395" 
d="M152 0v1443h302v-484h280q229 0 372 -132.5t143 -345.5v-2q0 -215 -138.5 -347t-361.5 -132h-597zM668 721h-214v-480h215q130 0 201 61.5t71 176.5v2q0 116 -71.5 178t-201.5 62z" />
    <glyph glyph-name="E.cyrl" unicode="&#x42d;" horiz-adv-x="1558" 
d="M752 -37q-261 0 -439 142.5t-194 363.5l-1 3h294l2 -8q23 -113 115 -181.5t222 -68.5q158 0 259.5 109t114.5 292h-570v234h567q-17 176 -116 278t-254 102q-130 0 -222 -72t-115 -191l-2 -10h-294l1 3q11 150 96 269t225.5 185.5t310.5 66.5q318 0 501.5 -203
t183.5 -554v-2q0 -351 -183.5 -554.5t-501.5 -203.5z" />
    <glyph glyph-name="Iu.cyrl" unicode="&#x42e;" horiz-adv-x="2180" 
d="M185 0v1443h302v-586h213q35 291 214.5 457t461.5 166q315 0 499 -203.5t184 -553.5v-2q0 -350 -183.5 -554t-499.5 -204q-289 0 -468.5 172t-209.5 473h-211v-608h-302zM1375 1224q-171 0 -274 -136t-103 -365v-2q0 -229 102 -365.5t275 -136.5q172 0 274 136.5
t102 365.5v2q0 229 -102 365t-274 136z" />
    <glyph glyph-name="Ia.cyrl" unicode="&#x42f;" horiz-adv-x="1451" 
d="M1266 0h-299v521h-202l-343 -521h-334l379 563q-141 44 -226 154t-85 259v2q0 209 142 337t382 128h586v-1443zM967 746v459h-245q-120 0 -189 -61t-69 -167v-2q0 -108 68.5 -168.5t190.5 -60.5h244z" />
    <glyph glyph-name="a.cyrl" unicode="&#x430;" horiz-adv-x="1228" 
d="M456 -17q-159 0 -259 90.5t-100 239.5v2q0 148 110.5 233t316.5 97l266 16v91q0 72 -47.5 110.5t-137.5 38.5q-159 0 -195 -102l-2 -4h-270l1 9q17 146 146.5 233.5t335.5 87.5q218 0 337.5 -98t119.5 -275v-752h-288v146h-18q-42 -77 -125 -120t-191 -43zM382 331
q0 -62 47.5 -98.5t124.5 -36.5q101 0 168.5 59t67.5 146v81l-222 -14q-186 -12 -186 -135v-2z" />
    <glyph glyph-name="be.cyrl" unicode="&#x431;" horiz-adv-x="1305" 
d="M658 -24q-268 0 -409.5 173t-141.5 497v2q0 426 142.5 631.5t448.5 216.5l141 5q169 7 289 46v-228q-34 -18 -110 -31.5t-161 -16.5l-134 -5q-183 -6 -273.5 -94t-116.5 -284l-3 -19h18q108 206 369 206q220 0 351 -142.5t131 -380.5v-2q0 -263 -145.5 -418.5
t-395.5 -155.5zM653 205q118 0 183.5 90t65.5 247v2q0 148 -65.5 230t-183.5 82t-183.5 -82t-65.5 -230v-2q0 -157 65.5 -247t183.5 -90z" />
    <glyph glyph-name="ve.cyrl" unicode="&#x432;" horiz-adv-x="1232" 
d="M156 0v1101h551q170 0 267 -75.5t97 -202.5v-2q0 -89 -55.5 -156t-142.5 -81v-18q111 -10 179 -80t68 -172v-2q0 -140 -108.5 -226t-294.5 -86h-561zM443 648h170q84 0 127.5 34.5t43.5 98.5v2q0 61 -39.5 96t-115.5 35h-186v-266zM443 188h207q83 0 126.5 37t43.5 103v2
q0 139 -187 139h-190v-281z" />
    <glyph glyph-name="ghe.cyrl" unicode="&#x433;" horiz-adv-x="1009" 
d="M919 881h-471v-881h-292v1101h763v-220z" />
    <glyph glyph-name="de.cyrl" unicode="&#x434;" horiz-adv-x="1366" 
d="M303 -285h-266v509h85q104 59 122 319l36 558h873v-877h166v-509h-266v285h-750v-285zM861 224v653h-334l-25 -352q-13 -184 -78 -283v-18h437z" />
    <glyph glyph-name="ie.cyrl" unicode="&#x435;" horiz-adv-x="1251" 
d="M640 -23q-251 0 -394.5 153.5t-143.5 418.5v1q0 263 142.5 419t383.5 156q239 0 380 -151t141 -402v-91h-758q2 -135 70 -210.5t185 -75.5q86 0 143 35t76 75l3 6h272l-2 -10q-11 -44 -33.5 -87t-64 -86.5t-95.5 -76.5t-133 -53.5t-172 -20.5zM633 906
q-97 0 -161.5 -63.5t-77.5 -178.5h475q-13 118 -76 180t-160 62z" />
    <glyph glyph-name="zhe.cyrl" unicode="&#x436;" horiz-adv-x="1780" 
d="M385 0h-337l403 595l-382 506h325l294 -436h59v436h284v-436h60l294 436h323l-380 -504l404 -597h-339l-299 465h-63v-465h-284v465h-63z" />
    <glyph glyph-name="ze.cyrl" unicode="&#x437;" horiz-adv-x="1179" 
d="M590 -24q-204 0 -339.5 88t-153.5 257l-1 9h279l2 -7q18 -61 72 -93.5t137 -32.5q91 0 142.5 37t51.5 98v2q0 131 -196 131h-151v182h149q87 0 129 34t42 94v2q0 57 -43.5 92t-125.5 35q-78 0 -125.5 -33t-58.5 -90l-1 -6h-275l1 8q20 158 138.5 250t332.5 92
q203 0 322 -82.5t119 -226.5v-2q0 -88 -52 -148t-145 -81v-18q116 -22 173.5 -84.5t57.5 -156.5v-2q0 -156 -130 -252t-351 -96z" />
    <glyph glyph-name="ii.cyrl" unicode="&#x438;" horiz-adv-x="1327" 
d="M156 0v1101h287v-689h21l420 689h287v-1101h-287v697h-22l-419 -697h-287z" />
    <glyph glyph-name="iishort.cyrl" unicode="&#x439;" horiz-adv-x="1327" 
d="M664 1250q-171 0 -276 97t-105 251h218q2 -81 46.5 -134t116.5 -53t116 53t46 134h218q0 -154 -104.5 -251t-275.5 -97zM156 0v1101h287v-689h21l420 689h287v-1101h-287v697h-22l-419 -697h-287z" />
    <glyph glyph-name="el.cyrl" unicode="&#x43b;" horiz-adv-x="1271" 
d="M510 503q-16 -255 -101 -384t-265 -129q-59 0 -101 13v247q28 -7 67 -7q49 0 80.5 40t44.5 99t17 144l34 575h830v-1101h-292v880h-288z" />
    <glyph glyph-name="em.cyrl" unicode="&#x43c;" horiz-adv-x="1658" 
d="M431 0h-275v1101h378l288 -718h18l289 718h373v-1101h-275v734h-18l-279 -674h-203l-278 674h-18v-734z" />
    <glyph glyph-name="en.cyrl" unicode="&#x43d;" horiz-adv-x="1314" 
d="M867 0v455h-419v-455h-292v1101h292v-425h419v425h292v-1101h-292z" />
    <glyph glyph-name="o.cyrl" unicode="&#x43e;" horiz-adv-x="1289" 
d="M645 -23q-254 0 -398.5 152.5t-144.5 420.5v2q0 266 145.5 419.5t397.5 153.5t397.5 -153t145.5 -420v-2q0 -269 -144.5 -421t-398.5 -152zM645 206q116 0 180 90.5t64 253.5v2q0 162 -64.5 253t-179.5 91q-116 0 -180 -91t-64 -253v-2q0 -163 63.5 -253.5t180.5 -90.5z
" />
    <glyph glyph-name="pe.cyrl" unicode="&#x43f;" horiz-adv-x="1304" 
d="M156 0v1101h993v-1101h-292v881h-409v-881h-292z" />
    <glyph glyph-name="er.cyrl" unicode="&#x440;" horiz-adv-x="1345" 
d="M156 -365v1466h292v-170h18q43 89 128.5 138.5t201.5 49.5q207 0 327 -152t120 -415v-2q0 -265 -119 -416t-328 -151q-113 0 -200.5 51.5t-129.5 141.5h-18v-541h-292zM696 225q116 0 183 87t67 238v2q0 151 -67 238t-183 87t-183.5 -87t-67.5 -238v-2q0 -151 68 -238
t183 -87z" />
    <glyph glyph-name="es.cyrl" unicode="&#x441;" horiz-adv-x="1223" 
d="M641 -23q-258 0 -398.5 150t-140.5 425v2q0 272 140.5 421.5t398.5 149.5q215 0 343 -108.5t148 -296.5v-3h-272l-1 2q-15 83 -70.5 130t-146.5 47q-118 0 -180.5 -88.5t-62.5 -253.5v-2q0 -167 63 -256.5t180 -89.5q178 0 217 167l2 4h270l-1 -6q-23 -183 -150 -288.5
t-339 -105.5z" />
    <glyph glyph-name="te.cyrl" unicode="&#x442;" horiz-adv-x="1091" 
d="M1021 1101v-221h-329v-880h-292v880h-330v221h951z" />
    <glyph glyph-name="u.cyrl" unicode="&#x443;" horiz-adv-x="1243" 
d="M287 -388q-54 0 -105 3v220q30 -3 76 -3q154 0 185 126l10 42l-387 1101h321l231 -834h20l231 834h308l-375 -1100q-72 -215 -190 -302t-325 -87z" />
    <glyph glyph-name="ef.cyrl" unicode="&#x444;" horiz-adv-x="1675" 
d="M695 -365v350q-273 6 -433 156.5t-160 408.5v2q0 255 161 407t432 158v339h285v-339q273 -6 433 -156.5t160 -409.5v-2q0 -255 -161 -407t-432 -157v-350h-285zM698 205v691q-138 -4 -219.5 -95.5t-81.5 -248.5v-2q0 -158 81 -249t220 -96zM977 205q138 4 219.5 96
t81.5 249v2q0 158 -81 249t-220 95v-691z" />
    <glyph glyph-name="ha.cyrl" unicode="&#x445;" horiz-adv-x="1209" 
d="M76 0l345 545l-348 556h335l195 -365h18l195 365h318l-347 -544l349 -557h-323l-206 364h-18l-205 -364h-308z" />
    <glyph glyph-name="tse.cyrl" unicode="&#x446;" horiz-adv-x="1362" 
d="M1047 -285v285h-891v1101h292v-881h409v881h292v-881h166v-505h-268z" />
    <glyph glyph-name="che.cyrl" unicode="&#x447;" horiz-adv-x="1266" 
d="M1111 0h-292v431h-18q-93 -75 -255 -75q-193 0 -303 109.5t-110 298.5v337h292v-304q0 -199 195 -199q135 0 199 62v441h292v-1101z" />
    <glyph glyph-name="sha.cyrl" unicode="&#x448;" horiz-adv-x="1816" 
d="M156 0v1101h292v-877h314v877h292v-877h315v877h292v-1101h-1505z" />
    <glyph glyph-name="shcha.cyrl" unicode="&#x449;" horiz-adv-x="1880" 
d="M156 0v1101h292v-877h314v877h292v-877h315v877h292v-881h172v-505h-268v285h-1409z" />
    <glyph glyph-name="hardsign.cyrl" unicode="&#x44a;" horiz-adv-x="1368" 
d="M339 0v881h-276v220h568v-320h218q195 0 310.5 -105.5t115.5 -284.5v-2q0 -178 -115.5 -283.5t-310.5 -105.5h-510zM798 561h-167v-341h167q83 0 132.5 47.5t49.5 123.5v2q0 76 -49.5 122t-132.5 46z" />
    <glyph glyph-name="yeru.cyrl" unicode="&#x44b;" horiz-adv-x="1714" 
d="M156 0v1101h292v-320h218q195 0 310.5 -105.5t115.5 -284.5v-2q0 -178 -115.5 -283.5t-310.5 -105.5h-510zM1266 0v1101h292v-1101h-292zM615 561h-167v-341h167q83 0 132.5 47.5t49.5 123.5v2q0 76 -49.5 122t-132.5 46z" />
    <glyph glyph-name="softsign.cyrl" unicode="&#x44c;" horiz-adv-x="1185" 
d="M156 0v1101h292v-320h218q195 0 310.5 -105.5t115.5 -284.5v-2q0 -178 -115.5 -283.5t-310.5 -105.5h-510zM615 561h-167v-341h167q83 0 132.5 47.5t49.5 123.5v2q0 76 -49.5 122t-132.5 46z" />
    <glyph glyph-name="e.cyrl" unicode="&#x44d;" horiz-adv-x="1227" 
d="M585 -24q-215 0 -349.5 106.5t-146.5 281.5l-1 8h273l1 -6q19 -77 77.5 -119t146.5 -42q103 0 169.5 71.5t75.5 191.5h-406v191h402q-11 110 -77 173.5t-164 63.5q-86 0 -144.5 -43.5t-76.5 -113.5l-3 -12h-273l2 14q13 169 149 276.5t346 107.5q248 0 394 -154t146 -417
v-2q0 -267 -146 -421.5t-395 -154.5z" />
    <glyph glyph-name="iu.cyrl" unicode="&#x44e;" horiz-adv-x="1779" 
d="M156 0v1101h292v-424h159q33 212 172 330t356 118q249 0 393.5 -152.5t144.5 -420.5v-2q0 -270 -143.5 -422t-394.5 -152q-226 0 -366 125t-166 352h-155v-453h-292zM1134 205q113 0 176.5 90.5t63.5 254.5v2q0 162 -63.5 253t-176.5 91t-177 -91t-64 -253v-2
q0 -164 63.5 -254.5t177.5 -90.5z" />
    <glyph glyph-name="ia.cyrl" unicode="&#x44f;" horiz-adv-x="1210" 
d="M768 0v358h-118l-245 -358h-330l289 405q-110 32 -174 117t-64 198v2q0 173 119.5 276t314.5 103h494v-1101h-286zM590 564h178v319h-178q-81 0 -128 -44t-47 -118v-2q0 -68 47.5 -111.5t127.5 -43.5z" />
    <glyph glyph-name="io.cyrl" unicode="&#x451;" horiz-adv-x="1251" 
d="M391 1277q-62 0 -107 44t-45 106q0 61 45 105t107 44t106.5 -44t44.5 -105q0 -62 -44.5 -106t-106.5 -44zM880 1277q-62 0 -106.5 44t-44.5 106q0 61 44.5 105t106.5 44t107 -44t45 -105q0 -62 -45 -106t-107 -44zM640 -23q-251 0 -394.5 153.5t-143.5 418.5v1
q0 263 142.5 419t383.5 156q239 0 380 -151t141 -402v-91h-758q2 -135 70 -210.5t185 -75.5q86 0 143 35t76 75l3 6h272l-2 -10q-11 -44 -33.5 -87t-64 -86.5t-95.5 -76.5t-133 -53.5t-172 -20.5zM633 906q-97 0 -161.5 -63.5t-77.5 -178.5h475q-13 118 -76 180t-160 62z
" />
    <glyph glyph-name="emdash" unicode="&#x2014;" horiz-adv-x="1857" 
d="M73 451v263h1711v-263h-1711z" />
    <glyph glyph-name="ellipsis" unicode="&#x2026;" horiz-adv-x="1954" 
d="M356 -25q-76 0 -126 49.5t-50 124.5q0 74 50 123.5t126 49.5q77 0 126.5 -49t49.5 -124t-49.5 -124.5t-126.5 -49.5zM977 -25q-76 0 -126 49.5t-50 124.5q0 74 50 123.5t126 49.5q77 0 126.5 -49t49.5 -124t-49.5 -124.5t-126.5 -49.5zM1598 -25q-76 0 -126 49.5
t-50 124.5q0 74 50 123.5t126 49.5q77 0 126.5 -49t49.5 -124t-49.5 -124.5t-126.5 -49.5z" />
    <glyph glyph-name="fraction" horiz-adv-x="523" 
d="M-109 0h-231l972 1443h231z" />
    <glyph glyph-name="eurosign" unicode="&#x20ac;" horiz-adv-x="1436" 
d="M127 523v115h173q-3 40 -3 84v1q0 39 3 77h-173v115h190q56 247 252.5 377t489.5 130q132 0 212 -23v-241q-87 18 -201 18q-167 0 -283 -66t-165 -195h541v-115h-568q-4 -33 -4 -78v-1q0 -51 5 -83h567v-115h-539q49 -127 165.5 -191t287.5 -64q128 0 198 14v-243
q-77 -18 -209 -18q-295 0 -492.5 128.5t-255.5 373.5h-191z" />
    <glyph glyph-name="rublesign" unicode="&#x20bd;" 
d="M78 218v115h190v183h-190v115h190v782h554q210 0 340 -125t130 -323v-2q0 -197 -135 -322t-350 -125h-245v-183h375v-115h-375v-188h-294v188h-190zM562 741h172q127 0 194 57.5t67 161.5v2q0 103 -67 160.5t-193 57.5h-173v-439z" />
    <glyph glyph-name="numerosign" unicode="&#x2116;" horiz-adv-x="2504" 
d="M2038 734q-170 0 -266.5 96t-96.5 266v1q0 168 97.5 265t265.5 97q170 0 267 -96.5t97 -265.5v-1q0 -170 -96.5 -266t-267.5 -96zM175 0v1443h252l666 -919h16v919h289v-1443h-250l-668 923h-16v-923h-289zM2038 891q76 0 117.5 54t41.5 151v1q0 96 -42 150.5t-117 54.5
t-116.5 -54.5t-41.5 -150.5v-1q0 -97 41.5 -151t116.5 -54zM1711 429v158h655v-158h-655z" />
    <glyph glyph-name="trademark" unicode="&#x2122;" horiz-adv-x="1850" 
d="M284 673v584h-231v186h688v-186h-231v-584h-226zM888 673v770h256l173 -473h10l171 473h256v-770h-197v450h-17l-158 -450h-122l-159 450h-16v-450h-197z" />
    <glyph glyph-name="summation" unicode="&#x2211;" horiz-adv-x="1329" 
d="M178 -285v243l466 615v12l-466 616v242h955v-242h-638v-10l461 -606v-12l-461 -605v-10h638v-243h-955z" />
    <glyph glyph-name="squareroot" unicode="&#x221a;" horiz-adv-x="1527" 
d="M462 -365l-312 688h250l219 -484h21l679 2008h401v-220h-215l-695 -1992h-348z" />
    <glyph glyph-name="De.cyrl.BGR" horiz-adv-x="1601" 
d="M40 -285v534h148l417 1194h365l423 -1194h153v-534h-273v285h-959v-285h-274zM771 1106l-263 -857h549l-268 857h-18z" />
    <glyph glyph-name="Zhe.cyrl.BGR" horiz-adv-x="2183" 
d="M408 0h-351l535 811l-491 632h329l494 -648h19v648h295v-648h19l494 648h328l-491 -630l538 -813h-353l-393 608l-142 -176v-432h-295v432l-142 176z" />
    <glyph glyph-name="Iishort.cyrl.YAK" horiz-adv-x="1629" 
d="M825 1588q-164 0 -265 93t-101 241h215q2 -76 43.5 -125t107.5 -49q67 0 108 49t43 125h215q0 -149 -100.5 -241.5t-265.5 -92.5zM185 0v1443h301v-965h20l649 965h289v-1495q0 -337 -365 -337q-68 0 -111 5v214q18 -3 48 -3q127 0 127 117v1020h-19l-649 -964h-290z" />
    <glyph glyph-name="Ka.cyrl.BGR" horiz-adv-x="1453" 
d="M175 0v1443h302v-648h18l533 648h336l-526 -632l563 -811h-362l-419 613l-143 -172v-441h-302z" />
    <glyph glyph-name="El.cyrl.BGR" horiz-adv-x="1467" 
d="M77 0l470 1443h365l479 -1443h-343l-316 1106h-18l-311 -1106h-326z" />
    <glyph glyph-name="idotabove" horiz-adv-x="588" 
d="M295 1270q-68 0 -116.5 47.5t-48.5 114.5q0 68 48.5 115.5t116.5 47.5t116 -47.5t48 -115.5q0 -67 -48 -114.5t-116 -47.5zM148 0v1101h292v-1101h-292z" />
    <glyph glyph-name="be.cyrl.SRB" horiz-adv-x="1292" 
d="M641 -23q-254 0 -396.5 146.5t-142.5 406.5v2q0 151 64.5 258t188.5 160v17q-200 73 -200 246v2q0 135 96.5 201.5t261.5 68.5l281 3q196 1 325 48v-227q-108 -50 -310 -51l-240 -2q-141 0 -141 -73v-2q0 -40 61.5 -66.5t203.5 -45.5q252 -34 374.5 -166.5t122.5 -370.5
v-2q0 -262 -144.5 -407.5t-404.5 -145.5zM646 206q117 0 182 85t65 239v2q0 146 -66 229t-180 83q-115 0 -181.5 -83.5t-66.5 -228.5v-2q0 -154 65 -239t182 -85z" />
    <glyph glyph-name="ve.cyrl.BGR" horiz-adv-x="1230" 
d="M630 -23q-227 0 -357.5 127t-130.5 340v623q0 229 124 349t352 120q217 0 343 -110t126 -298l-1 -3q1 -105 -55 -187.5t-150 -117.5v-17q121 -40 187.5 -134t66.5 -226v-2q0 -212 -137.5 -338t-367.5 -126zM426 914h157q218 0 218 196v2q0 92 -50 145.5t-135 53.5
q-93 0 -141.5 -57t-48.5 -166v-174zM630 202q102 0 157.5 64.5t55.5 174.5v2q0 118 -65 181.5t-187 63.5h-165v-248q0 -110 53 -174t151 -64z" />
    <glyph glyph-name="ghe.cyrl.BGR" horiz-adv-x="1171" 
d="M584 -23q-221 0 -353 93.5t-132 250.5v2q0 124 73 197t236 114l209 51q142 35 142 116v2q0 53 -47.5 84.5t-128.5 31.5q-78 0 -128 -31t-62 -87l-1 -1h-267l-2 1q13 156 133 240t329 84q212 0 335.5 -91.5t123.5 -248.5v-1q0 -123 -76.5 -199t-241.5 -118l-204 -51
q-68 -17 -99.5 -44t-31.5 -67v-2q0 -56 50 -88t138 -32q84 0 138 31t70 89l1 1h283l2 -1q-16 -156 -143.5 -241t-345.5 -85z" />
    <glyph glyph-name="de.cyrl.BGR" horiz-adv-x="1342" 
d="M642 -387q-224 0 -356 85.5t-150 229.5v5h289l1 -4q12 -49 69.5 -78.5t152.5 -29.5q117 0 182 52.5t65 148.5v205h-18q-46 -87 -130.5 -133t-199.5 -46q-206 0 -327 145t-121 382v2q0 245 121.5 393.5t331.5 148.5q112 0 197.5 -52t130.5 -146h14v180h292v-1067
q0 -193 -147 -307t-397 -114zM646 272q117 0 184.5 83.5t67.5 220.5v2q0 137 -67.5 220.5t-184.5 83.5q-116 0 -182 -83t-66 -221v-2q0 -138 65.5 -221t182.5 -83z" />
    <glyph glyph-name="zhe.cyrl.BGR" horiz-adv-x="1820" 
d="M392 0h-344l419 626l-393 475h333l338 -435h18v856h292v-856h18l339 435h331l-392 -472l421 -629h-345l-291 451l-81 -82v-369h-292v369l-81 82z" />
    <glyph glyph-name="ze.cyrl.BGR" horiz-adv-x="1233" 
d="M602 -396q-220 0 -359 114.5t-153 306.5l-1 14h284l1 -9q11 -92 72 -144.5t151 -52.5q102 0 162 62t60 167v2q0 111 -67.5 168.5t-198.5 57.5h-130v229h122q106 0 165.5 51.5t59.5 141.5v2q0 84 -50 133t-139 49q-77 0 -127.5 -48t-61.5 -134l-1 -8h-277l1 12
q16 191 139.5 299t327.5 108q219 0 347.5 -107.5t128.5 -279.5v-2q0 -104 -65.5 -191t-163.5 -116v-18q134 -36 209 -127t75 -224v-2q0 -201 -144.5 -327.5t-366.5 -126.5z" />
    <glyph glyph-name="iishort.cyrl.YAK" horiz-adv-x="1327" 
d="M664 1250q-171 0 -276 97t-105 251h218q2 -81 46.5 -134t116.5 -53t116 53t46 134h218q0 -154 -104.5 -251t-275.5 -97zM156 0v1101h287v-689h21l420 689h287v-1153q0 -337 -361 -337q-68 0 -111 5v214q19 -3 51 -3q135 0 135 117v56h-1v697h-22l-419 -697h-287z" />
    <glyph glyph-name="ii.cyrl.BGR" horiz-adv-x="1305" 
d="M520 -23q-184 0 -279 107t-95 305v712h292v-645q0 -119 47.5 -178t149.5 -59q106 0 164 66t58 180v636h292v-1101h-292v170h-18q-38 -91 -120.5 -142t-198.5 -51z" />
    <glyph glyph-name="iishort.cyrl.BGR" horiz-adv-x="1305" 
d="M645 1250q-171 0 -276 97t-105 251h218q2 -81 46.5 -134t116.5 -53t116 53t46 134h218q0 -154 -104.5 -251t-275.5 -97zM520 -23q-184 0 -279 107t-95 305v712h292v-645q0 -119 47.5 -178t149.5 -59q106 0 164 66t58 180v636h292v-1101h-292v170h-18q-38 -91 -120.5 -142
t-198.5 -51z" />
    <glyph glyph-name="ka.cyrl.BGR" horiz-adv-x="1260" 
d="M166 0v1522h292v-856h18l368 435h331l-423 -467l452 -634h-345l-321 454l-80 -85v-369h-292z" />
    <glyph glyph-name="el.cyrl.BGR" horiz-adv-x="1214" 
d="M770 1101l383 -1101h-313l-228 828h-18l-226 -828h-307l381 1101h328z" />
    <glyph glyph-name="en.cyrl.BGR" horiz-adv-x="1314" 
d="M867 0v455h-419v-455h-292v1101h292v-425h419v425h292v-1101h-292z" />
    <glyph glyph-name="pe.cyrl.BGR" horiz-adv-x="1305" 
d="M156 0v1101h292v-170h18q38 91 119.5 142.5t196.5 51.5q183 0 280 -107.5t97 -305.5v-712h-292v646q0 237 -202 237q-101 0 -159 -67t-58 -179v-637h-292z" />
    <glyph glyph-name="te.cyrl.BGR" horiz-adv-x="1929" 
d="M156 0v1101h292v-172h18q35 93 116 144.5t189 51.5q112 0 192 -53.5t114 -149.5h18q38 92 127.5 147.5t204.5 55.5q164 0 260 -99.5t96 -269.5v-756h-292v683q0 200 -182 200q-87 0 -140.5 -58t-53.5 -148v-677h-292v696q0 88 -47.5 137.5t-133.5 49.5q-85 0 -139.5 -62
t-54.5 -157v-664h-292z" />
    <glyph glyph-name="tse.cyrl.BGR" horiz-adv-x="1371" 
d="M520 -23q-184 0 -279 107t-95 305v712h292v-645q0 -119 47.5 -178t149.5 -59q106 0 164 66t58 180v636h292v-881h175v-505h-268v285h-199v170h-18q-38 -91 -120.5 -142t-198.5 -51z" />
    <glyph glyph-name="che.cyrl.BGR" horiz-adv-x="1266" 
d="M1111 0h-292v431h-18q-93 -75 -255 -75q-193 0 -303 109.5t-110 298.5v337h292v-304q0 -199 195 -199q135 0 199 62v441h292v-1101z" />
    <glyph glyph-name="sha.cyrl.BGR" horiz-adv-x="1909" 
d="M1763 1101v-1101h-292v173h-18q-34 -93 -115 -144.5t-190 -51.5q-111 0 -191 53.5t-114 149.5h-18q-38 -93 -127.5 -148t-204.5 -55q-165 0 -261 99t-96 270v755h292v-682q0 -200 183 -200q87 0 140 57.5t53 148.5v676h292v-696q0 -88 48 -137t134 -49q84 0 138.5 61.5
t54.5 156.5v664h292z" />
    <glyph glyph-name="shcha.cyrl.BGR" horiz-adv-x="1986" 
d="M1670 -285v285h-199v173h-18q-34 -93 -115 -144.5t-190 -51.5q-111 0 -191 53.5t-114 149.5h-18q-38 -93 -127.5 -148t-204.5 -55q-165 0 -261 99t-96 270v755h292v-682q0 -200 183 -200q87 0 140 57.5t53 148.5v676h292v-696q0 -88 48 -137t134 -49q84 0 138.5 61.5
t54.5 156.5v664h292v-881h175v-505h-268z" />
    <glyph glyph-name="softsign.cyrl.BGR" horiz-adv-x="1186" 
d="M629 -24q-225 0 -349 109t-124 327v689h292v-313h171q229 0 351 -108t122 -301v-2q0 -181 -126.5 -291t-336.5 -110zM629 205q78 0 122 46.5t44 128.5v2q0 186 -215 186h-132v-178q0 -92 46.5 -138.5t134.5 -46.5z" />
    <glyph glyph-name="hardsign.cyrl.BGR" horiz-adv-x="1369" 
d="M812 -24q-225 0 -349 109t-124 327v469h-276v220h568v-313h171q229 0 351 -108t122 -301v-2q0 -181 -126.5 -291t-336.5 -110zM812 205q78 0 122 46.5t44 128.5v2q0 186 -215 186h-132v-178q0 -92 46.5 -138.5t134.5 -46.5z" />
    <glyph glyph-name="iu.cyrl.BGR" horiz-adv-x="1779" 
d="M156 0v1522h292v-845h159q33 212 172 330t356 118q249 0 393.5 -152.5t144.5 -420.5v-2q0 -270 -143.5 -422t-394.5 -152q-226 0 -366 125t-166 352h-155v-453h-292zM1134 205q113 0 176.5 90.5t63.5 254.5v2q0 162 -63.5 253t-176.5 91t-177 -91t-64 -253v-2
q0 -164 63.5 -254.5t177.5 -90.5z" />
    <glyph glyph-name="zero.dnom" horiz-adv-x="838" 
d="M419 -21q-158 0 -249.5 109t-91.5 297v1q0 188 91.5 296.5t249.5 108.5q159 0 250 -108.5t91 -296.5v-1q0 -188 -91 -297t-250 -109zM419 139q66 0 101.5 64t35.5 182v1q0 118 -35.5 181.5t-101.5 63.5q-65 0 -100.5 -63.5t-35.5 -181.5v-1q0 -118 35.5 -182t100.5 -64z
" />
    <glyph glyph-name="one.dnom" horiz-adv-x="627" 
d="M281 0v583h-11l-197 -123v179l208 131h203v-770h-203z" />
    <glyph glyph-name="two.dnom" horiz-adv-x="787" 
d="M90 0v140l258 217q90 78 120.5 116t30.5 70v3q0 41 -30 64.5t-82 23.5q-55 0 -89 -28.5t-34 -73.5v-4h-185l-1 4q0 117 87.5 188t229.5 71q135 0 218 -62.5t83 -166.5v-3q0 -67 -45.5 -132t-155.5 -153l-136 -106v-6h348v-162h-617z" />
    <glyph glyph-name="three.dnom" horiz-adv-x="819" 
d="M408 -20q-144 0 -233.5 67t-97.5 179l-1 7h193l1 -6q6 -36 43 -59.5t95 -23.5t93 25.5t35 65.5v1q0 43 -37.5 66t-106.5 23h-90v140h88q60 0 95.5 23t35.5 61v1q0 39 -30.5 62t-84.5 23t-87.5 -24t-38.5 -64l-1 -5h-184l1 7q8 111 91.5 176t218.5 65q139 0 221.5 -57.5
t82.5 -153.5v-1q0 -70 -48 -116t-122 -59v-4q94 -9 148 -55t54 -121v-1q0 -111 -91 -176.5t-243 -65.5z" />
    <glyph glyph-name="four.dnom" horiz-adv-x="841" 
d="M471 0v127h-402v157q116 198 312 486h282v-480h103v-163h-103v-127h-192zM245 282h231v341h-10q-127 -176 -221 -331v-10z" />
    <glyph glyph-name="five.dnom" horiz-adv-x="812" 
d="M416 -21q-135 0 -220 66.5t-92 168.5l-1 9h181l1 -3q10 -34 46 -56.5t86 -22.5q59 0 96.5 32t37.5 81v1q0 50 -37.5 81t-96.5 31q-51 0 -89 -22q-25 -17 -39 -41h-173l35 466h538v-160h-380l-17 -188h10q25 39 70.5 62.5t104.5 23.5q114 0 188 -70t74 -179v-1
q0 -125 -89.5 -202t-233.5 -77z" />
    <glyph glyph-name="six.dnom" horiz-adv-x="837" 
d="M430 -21q-159 0 -255 107t-96 297v1q0 190 94 298.5t255 108.5q124 0 211.5 -63.5t105.5 -159.5l1 -4h-197l-2 4q-30 63 -117 63q-75 0 -114.5 -57.5t-45.5 -156.5v-17h12q24 47 76 77.5t132 30.5q120 0 193 -69.5t73 -179.5v-1q0 -121 -91 -200t-235 -79zM297 253
q0 -49 38 -81.5t94 -32.5t94.5 32t38.5 79v1q0 49 -37 80.5t-95 31.5q-57 0 -95 -30.5t-38 -78.5v-1z" />
    <glyph glyph-name="seven.dnom" horiz-adv-x="740" 
d="M125 0l341 600v10h-402v161h605v-161l-332 -610h-212z" />
    <glyph glyph-name="eight.dnom" horiz-adv-x="850" 
d="M425 -20q-156 0 -252 63t-96 165v2q0 76 55 127.5t143 66.5v4q-75 14 -121.5 60.5t-46.5 109.5v1q0 93 88.5 152t229.5 59t229.5 -59t88.5 -152v-1q0 -63 -46.5 -109.5t-121.5 -60.5v-4q88 -15 143 -66.5t55 -127.5v-2q0 -102 -96 -165t-252 -63zM425 466q52 0 85 25.5
t33 65.5v2q0 40 -33 65t-85 25q-51 0 -84.5 -25t-33.5 -65v-2q0 -40 33 -65.5t85 -25.5zM425 122q60 0 98 28.5t38 72.5v1q0 44 -38 72.5t-98 28.5t-97.5 -28.5t-37.5 -72.5v-1q0 -44 37.5 -72.5t97.5 -28.5z" />
    <glyph glyph-name="nine.dnom" horiz-adv-x="837" 
d="M406 792q159 0 255.5 -107.5t96.5 -296.5v-2q0 -190 -94 -298t-256 -108q-124 0 -211.5 63.5t-105.5 159.5v3h197l1 -4q13 -27 44 -44.5t74 -17.5q75 0 114.5 58t44.5 156v16h-11q-56 -107 -208 -107q-120 0 -193.5 69.5t-73.5 178.5v1q0 121 91 200.5t235 79.5zM407 408
q56 0 94.5 30.5t38.5 77.5v1q0 48 -38.5 81t-94.5 33t-94.5 -32t-38.5 -79v-1q0 -49 37.5 -80t95.5 -31z" />
    <glyph glyph-name="plus.dnom" horiz-adv-x="758" 
d="M66 295v181h226v208h174v-208h225v-181h-225v-208h-174v208h-226z" />
    <glyph glyph-name="equal.dnom" horiz-adv-x="758" 
d="M74 444v181h610v-181h-610zM74 146v180h610v-180h-610z" />
    <glyph glyph-name="parenleft.dnom" horiz-adv-x="610" 
d="M348 -230q-200 221 -200 595q0 376 200 594h203q-77 -90 -127.5 -257t-50.5 -337q0 -169 50.5 -335.5t127.5 -259.5h-203z" />
    <glyph glyph-name="parenright.dnom" horiz-adv-x="610" 
d="M263 959q199 -221 199 -595q0 -377 -199 -594h-203q77 90 127.5 257t50.5 337q0 169 -50.5 335.5t-127.5 259.5h203z" />
    <glyph glyph-name="zero.numr" horiz-adv-x="838" 
d="M419 652q-158 0 -249.5 109t-91.5 297v1q0 188 91.5 296.5t249.5 108.5q159 0 250 -108.5t91 -296.5v-1q0 -188 -91 -297t-250 -109zM419 812q66 0 101.5 64t35.5 182v1q0 118 -35.5 181.5t-101.5 63.5q-65 0 -100.5 -63.5t-35.5 -181.5v-1q0 -118 35.5 -182t100.5 -64z
" />
    <glyph glyph-name="one.numr" horiz-adv-x="627" 
d="M281 673v583h-11l-197 -123v179l208 131h203v-770h-203z" />
    <glyph glyph-name="two.numr" horiz-adv-x="787" 
d="M90 673v140l258 217q90 78 120.5 116t30.5 70v3q0 41 -30 64.5t-82 23.5q-55 0 -89 -28.5t-34 -73.5v-4h-185l-1 4q0 117 87.5 188t229.5 71q135 0 218 -62.5t83 -166.5v-3q0 -67 -45.5 -132t-155.5 -153l-136 -106v-6h348v-162h-617z" />
    <glyph glyph-name="three.numr" horiz-adv-x="819" 
d="M408 653q-144 0 -233.5 67t-97.5 179l-1 7h193l1 -6q6 -36 43 -59.5t95 -23.5t93 25.5t35 65.5v1q0 43 -37.5 66t-106.5 23h-90v140h88q60 0 95.5 23t35.5 61v1q0 39 -30.5 62t-84.5 23t-87.5 -24t-38.5 -64l-1 -5h-184l1 7q8 111 91.5 176t218.5 65q139 0 221.5 -57.5
t82.5 -153.5v-1q0 -70 -48 -116t-122 -59v-4q94 -9 148 -55t54 -121v-1q0 -111 -91 -176.5t-243 -65.5z" />
    <glyph glyph-name="four.numr" horiz-adv-x="841" 
d="M471 673v127h-402v157q116 198 312 486h282v-480h103v-163h-103v-127h-192zM245 955h231v341h-10q-127 -176 -221 -331v-10z" />
    <glyph glyph-name="five.numr" horiz-adv-x="812" 
d="M416 652q-135 0 -220 66.5t-92 168.5l-1 9h181l1 -3q10 -34 46 -56.5t86 -22.5q59 0 96.5 32t37.5 81v1q0 50 -37.5 81t-96.5 31q-51 0 -89 -22q-25 -17 -39 -41h-173l35 466h538v-160h-380l-17 -188h10q25 39 70.5 62.5t104.5 23.5q114 0 188 -70t74 -179v-1
q0 -125 -89.5 -202t-233.5 -77z" />
    <glyph glyph-name="six.numr" horiz-adv-x="837" 
d="M430 652q-159 0 -255 107t-96 297v1q0 190 94 298.5t255 108.5q124 0 211.5 -63.5t105.5 -159.5l1 -4h-197l-2 4q-30 63 -117 63q-75 0 -114.5 -57.5t-45.5 -156.5v-17h12q24 47 76 77.5t132 30.5q120 0 193 -69.5t73 -179.5v-1q0 -121 -91 -200t-235 -79zM297 926
q0 -49 38 -81.5t94 -32.5t94.5 32t38.5 79v1q0 49 -37 80.5t-95 31.5q-57 0 -95 -30.5t-38 -78.5v-1z" />
    <glyph glyph-name="seven.numr" horiz-adv-x="740" 
d="M125 673l341 600v10h-402v161h605v-161l-332 -610h-212z" />
    <glyph glyph-name="eight.numr" horiz-adv-x="850" 
d="M425 653q-156 0 -252 63t-96 165v2q0 76 55 127.5t143 66.5v4q-75 14 -121.5 60.5t-46.5 109.5v1q0 93 88.5 152t229.5 59t229.5 -59t88.5 -152v-1q0 -63 -46.5 -109.5t-121.5 -60.5v-4q88 -15 143 -66.5t55 -127.5v-2q0 -102 -96 -165t-252 -63zM425 1139q52 0 85 25.5
t33 65.5v2q0 40 -33 65t-85 25q-51 0 -84.5 -25t-33.5 -65v-2q0 -40 33 -65.5t85 -25.5zM425 795q60 0 98 28.5t38 72.5v1q0 44 -38 72.5t-98 28.5t-97.5 -28.5t-37.5 -72.5v-1q0 -44 37.5 -72.5t97.5 -28.5z" />
    <glyph glyph-name="nine.numr" horiz-adv-x="837" 
d="M406 1465q159 0 255.5 -107.5t96.5 -296.5v-2q0 -190 -94 -298t-256 -108q-124 0 -211.5 63.5t-105.5 159.5v3h197l1 -4q13 -27 44 -44.5t74 -17.5q75 0 114.5 58t44.5 156v16h-11q-56 -107 -208 -107q-120 0 -193.5 69.5t-73.5 178.5v1q0 121 91 200.5t235 79.5z
M407 1081q56 0 94.5 30.5t38.5 77.5v1q0 48 -38.5 81t-94.5 33t-94.5 -32t-38.5 -79v-1q0 -49 37.5 -80t95.5 -31z" />
    <glyph glyph-name="plus.numr" horiz-adv-x="758" 
d="M292 760v208h-226v181h226v208h174v-208h225v-181h-225v-208h-174z" />
    <glyph glyph-name="equal.numr" horiz-adv-x="758" 
d="M74 1117v181h610v-181h-610zM74 819v180h610v-180h-610z" />
    <glyph glyph-name="parenleft.numr" horiz-adv-x="610" 
d="M348 443q-200 221 -200 595q0 376 200 594h203q-77 -90 -127.5 -257t-50.5 -337q0 -169 50.5 -335.5t127.5 -259.5h-203z" />
    <glyph glyph-name="parenright.numr" horiz-adv-x="610" 
d="M263 1632q199 -221 199 -595q0 -377 -199 -594h-203q77 90 127.5 257t50.5 337q0 169 -50.5 335.5t-127.5 259.5h203z" />
    <glyph glyph-name="numbersign.numr" horiz-adv-x="826" 
d="M268 673h-160l38 182h-125l29 158h130l21 100h-127l29 159h132l37 172h160l-37 -172h119l37 172h160l-37 -172h132l-29 -159h-137l-21 -100h133l-29 -158h-138l-39 -182h-160l38 182h-118zM325 997h141l29 130h-142z" />
    <glyph glyph-name="dollarsign.numr" horiz-adv-x="838" 
d="M352 598v87q-114 14 -185 71t-78 152l-1 7h204v-5q4 -29 41 -50.5t95 -21.5q55 1 86 16t31 41v1q0 23 -26.5 37.5t-87.5 25.5l-75 15q-251 53 -251 224v1q0 97 66.5 158t180.5 75v89h136v-89q115 -15 178 -75.5t69 -144.5l1 -10h-197v6q-4 29 -37 50t-84 21t-79.5 -15
t-28.5 -42v-1q0 -44 112 -64l69 -13q125 -24 191.5 -80.5t66.5 -140.5v-1q0 -100 -72.5 -162t-188.5 -76v-86h-136z" />
    <glyph glyph-name="rublesign.numr" horiz-adv-x="841" 
d="M151 689v95h-107v58h107v93h-107v58h107v434h359q126 0 204.5 -68t78.5 -178v-1q0 -107 -83 -176t-213 -69h-130v-93h201v-58h-201v-95h-216zM367 1095h76q64 0 98.5 21.5t34.5 60.5v1q0 38 -34.5 59t-97.5 21h-77v-163z" />
    <glyph glyph-name="eurosign.numr" horiz-adv-x="843" 
d="M629 685q-185 0 -302 69.5t-151 199.5h-101v58h90q-2 30 -2 47q0 24 1 35h-89v58h98q31 133 148.5 206.5t300.5 73.5q72 0 121 -13v-178q-49 10 -111 10q-174 0 -231 -99h311v-58h-331q-3 -16 -3 -34q0 -23 5 -48h329v-58h-305q59 -88 232 -88q61 0 108 6v-180
q-48 -7 -118 -7z" />
    <glyph glyph-name="a.dnom" horiz-adv-x="886" 
d="M327 -10q-107 0 -173 57t-66 152v1q0 93 74 147t212 62l175 9v56q0 40 -31.5 61.5t-89.5 21.5q-104 0 -127 -59l-2 -2h-184l1 6q11 94 98 151t225 57q147 0 227 -62t80 -174v-474h-197v89h-13q-27 -46 -82.5 -72.5t-126.5 -26.5zM282 212q0 -35 31.5 -56t81.5 -21
q65 0 109.5 33.5t44.5 82.5v49l-145 -9q-122 -7 -122 -78v-1z" />
    <glyph glyph-name="b.dnom" horiz-adv-x="979" 
d="M590 -10q-78 0 -134.5 30.5t-84.5 86.5h-12v-107h-200v957h200v-374h12q28 57 86 89.5t133 32.5q140 0 218.5 -94.5t78.5 -262.5v-1q0 -167 -79.5 -262t-217.5 -95zM521 157q75 0 119 51t44 139v1q0 88 -44 139t-119 51q-76 0 -120 -51t-44 -139v-1q0 -89 44 -139.5
t120 -50.5z" />
    <glyph glyph-name="c.dnom" horiz-adv-x="882" 
d="M463 -15q-174 0 -267.5 94t-93.5 269v1q0 174 93.5 267t267.5 93q144 0 229.5 -70t99.5 -194l-1 -1h-185l-1 1q-9 51 -45 79t-96 28q-78 0 -118.5 -51.5t-40.5 -151.5v-1q0 -101 41 -153.5t118 -52.5q117 0 141 102l1 1l185 1l-1 -4q-14 -120 -99.5 -188.5t-227.5 -68.5z
" />
    <glyph glyph-name="d.dnom" horiz-adv-x="979" 
d="M390 -10q-138 0 -218 95t-80 262v1q0 168 79 262.5t219 94.5q75 0 133 -32.5t86 -89.5h12v374h200v-957h-200v107h-12q-29 -56 -85.5 -86.5t-133.5 -30.5zM459 157q76 0 120 50.5t44 139.5v1q0 88 -44.5 139t-119.5 51q-76 0 -119.5 -51t-43.5 -139v-1q0 -88 43.5 -139
t119.5 -51z" />
    <glyph glyph-name="e.dnom" horiz-adv-x="903" 
d="M460 -15q-168 0 -264 96.5t-96 264.5v1q0 167 95.5 264.5t257.5 97.5q160 0 254.5 -95t94.5 -254v-60h-504q1 -79 45.5 -123t121.5 -44q56 0 93 20.5t50 43.5l2 3l186 1l-2 -7q-9 -35 -31.5 -69t-61 -67t-101.5 -53t-140 -20zM456 561q-63 0 -104.5 -36t-51.5 -102h310
q-9 66 -50 102t-104 36z" />
    <glyph glyph-name="f.dnom" horiz-adv-x="614" 
d="M175 0v542h-118v152h118v61q0 105 61 156.5t194 51.5q52 0 101 -7v-132q-18 3 -58 3q-55 0 -78.5 -21.5t-23.5 -65.5v-46h154v-152h-150v-542h-200z" />
    <glyph glyph-name="g.dnom" horiz-adv-x="970" 
d="M454 -243q-150 0 -238.5 54.5t-100.5 145.5v4h197l1 -3q8 -28 45.5 -44.5t100.5 -16.5q76 0 118.5 30.5t42.5 86.5v126h-12q-61 -111 -219 -111q-137 0 -217.5 90.5t-80.5 240.5v2q0 157 80.5 250t220.5 93q75 0 132 -32.5t86 -91.5h9v113h200v-669q0 -124 -98.5 -196
t-266.5 -72zM457 182q77 0 120.5 48.5t43.5 130.5v1q0 82 -44 131t-120 49t-119 -49t-43 -130v-2q0 -81 43 -130t119 -49z" />
    <glyph glyph-name="h.dnom" horiz-adv-x="950" 
d="M148 0v956h200v-370h12q26 58 80 90.5t131 32.5q122 0 186 -67.5t64 -192.5v-449h-200v402q0 140 -132 140q-65 0 -103 -39t-38 -104v-399h-200z" />
    <glyph glyph-name="i.dnom" horiz-adv-x="433" 
d="M217 793q-46 0 -79 32t-33 77t33 77t79 32t79 -32t33 -77t-33 -77t-79 -32zM117 0v694h200v-694h-200z" />
    <glyph glyph-name="j.dnom" horiz-adv-x="433" 
d="M217 793q-46 0 -78.5 32t-32.5 77q0 46 32.5 78t78.5 32t79 -32t33 -78q0 -45 -33 -77t-79 -32zM54 -235q-30 0 -54 2v150q7 -1 25 -1q50 0 71 16t21 55v707h200v-713q0 -106 -67 -161t-196 -55z" />
    <glyph glyph-name="k.dnom" horiz-adv-x="905" 
d="M167 0v956h200v-528h12l240 266h226l-279 -295l298 -399h-236l-209 275l-52 -51v-224h-200z" />
    <glyph glyph-name="l.dnom" horiz-adv-x="445" 
d="M122 0v956h200v-956h-200z" />
    <glyph glyph-name="m.dnom" horiz-adv-x="1401" 
d="M161 0v694h200v-110h13q22 59 76 92t127 33q75 0 128 -33.5t76 -95.5h12q25 59 84.5 94t136.5 35q109 0 173.5 -63.5t64.5 -170.5v-475h-200v423q0 119 -120 119q-57 0 -91.5 -33.5t-34.5 -87.5v-421h-200v430q0 54 -31 83t-88 29q-55 0 -90.5 -35.5t-35.5 -90.5v-416
h-200z" />
    <glyph glyph-name="n.dnom" horiz-adv-x="943" 
d="M140 0v694h200v-108h12q25 58 79 90.5t131 32.5q122 0 186.5 -68t64.5 -192v-449h-200v402q0 140 -132 140q-65 0 -103 -39t-38 -104v-399h-200z" />
    <glyph glyph-name="o.dnom" horiz-adv-x="931" 
d="M465 -15q-170 0 -266.5 96t-96.5 266v1q0 168 97.5 264.5t265.5 96.5q169 0 266.5 -96.5t97.5 -264.5v-1q0 -170 -96.5 -266t-267.5 -96zM465 142q76 0 117.5 54t41.5 151v1q0 96 -42 150.5t-117 54.5t-116.5 -54.5t-41.5 -150.5v-1q0 -98 41 -151.5t117 -53.5z" />
    <glyph glyph-name="p.dnom" horiz-adv-x="972" 
d="M150 -229v923h200v-107h13q28 56 84.5 87t133.5 31q138 0 218 -95t80 -262v-1q0 -169 -79 -263t-219 -94q-75 0 -133 32.5t-85 89.5h-13v-341h-200zM513 157q75 0 119 51t44 139v1q0 88 -44 139t-119 51q-76 0 -120 -50.5t-44 -139.5v-1q0 -88 44.5 -139t119.5 -51z" />
    <glyph glyph-name="q.dnom" horiz-adv-x="973" 
d="M625 -229v336h-12q-27 -56 -84.5 -86.5t-136.5 -30.5q-138 0 -217 94.5t-79 262.5v1q0 168 79 262.5t220 94.5q75 0 133 -33t88 -92h9v114h200v-923h-200zM463 157q75 0 119.5 51t44.5 139v1q0 88 -44.5 139t-119.5 51q-76 0 -120 -51t-44 -139v-1q0 -88 44 -139t120 -51
z" />
    <glyph glyph-name="r.dnom" horiz-adv-x="656" 
d="M139 0v694h200v-110h13q17 58 64.5 89.5t119.5 31.5q41 0 73 -10v-175q-46 11 -90 11q-84 0 -132 -41t-48 -113v-377h-200z" />
    <glyph glyph-name="s.dnom" horiz-adv-x="852" 
d="M428 -15q-147 0 -232.5 57t-96.5 150v4h196l1 -4q28 -67 134 -67q55 0 88.5 18.5t33.5 49.5q0 27 -23.5 43.5t-78.5 26.5l-123 24q-210 42 -210 201q0 101 84.5 161t223.5 60q140 0 222 -59t88 -147v-3h-186v3q-8 27 -40.5 46.5t-83.5 19.5q-50 0 -81.5 -18t-31.5 -50v-1
q0 -26 23 -41.5t79 -26.5l122 -24q112 -22 164 -67.5t52 -123.5v-1q0 -105 -90 -168t-234 -63z" />
    <glyph glyph-name="t.dnom" horiz-adv-x="622" 
d="M425 -2q-136 0 -195.5 44.5t-59.5 146.5v353h-112v152h112v162h203v-162h151v-152h-151v-307q0 -43 22 -63t71 -20q30 0 58 3v-148q-43 -9 -99 -9z" />
    <glyph glyph-name="u.dnom" horiz-adv-x="943" 
d="M379 -15q-122 0 -185.5 67.5t-63.5 192.5v449h200v-402q0 -140 129 -140q69 0 106.5 38.5t37.5 104.5v399h200v-694h-200v108h-12q-25 -58 -80 -90.5t-132 -32.5z" />
    <glyph glyph-name="v.dnom" horiz-adv-x="876" 
d="M326 0l-254 694h214l149 -508h12l147 508h210l-253 -694h-225z" />
    <glyph glyph-name="w.dnom" horiz-adv-x="1275" 
d="M292 0l-195 694h202l106 -488h13l126 488h190l128 -488h12l107 488h198l-195 -694h-213l-129 470h-12l-128 -470h-210z" />
    <glyph glyph-name="x.dnom" horiz-adv-x="874" 
d="M82 0l229 342l-231 352h229l127 -223h12l127 223h218l-230 -344l231 -350h-221l-134 220h-12l-134 -220h-211z" />
    <glyph glyph-name="y.dnom" horiz-adv-x="898" 
d="M225 -245q-24 0 -72 2v151q14 -1 51 -1q103 0 123 70l6 23l-257 694h220l150 -513h15l150 513h211l-247 -682q-49 -141 -129.5 -199t-220.5 -58z" />
    <glyph glyph-name="z.dnom" horiz-adv-x="851" 
d="M118 0v112l371 419v11h-365v152h601v-127l-348 -404v-11h357v-152h-616z" />
    <glyph glyph-name="colon.uc" horiz-adv-x="712" 
d="M356 911q-76 0 -126 49.5t-50 123.5q0 75 50 124.5t126 49.5q77 0 126.5 -49.5t49.5 -124.5q0 -74 -49.5 -123.5t-126.5 -49.5zM356 187q-76 0 -126 49.5t-50 123.5q0 75 50 124.5t126 49.5q77 0 126.5 -49.5t49.5 -124.5q0 -74 -49.5 -123.5t-126.5 -49.5z" />
    </font>
</defs>
</svg>
